NotoNaskhArabic-Regular.ufo
<glyph name="uni0021" format="2">
  <advance width="206"/>
  <unicode hex="0021"/>
  <outline>
    <contour>
      <point x="85" y="114" type="curve"/>
      <point x="130" y="134" type="line"/>
      <point x="130" y="376"/>
      <point x="128" y="437"/>
      <point x="119" y="614" type="curve"/>
      <point x="91" y="594"/>
      <point x="69" y="576"/>
      <point x="51" y="558" type="curve"/>
      <point x="67" y="427"/>
      <point x="76" y="291"/>
    </contour>
    <contour>
      <point x="125" y="-66" type="curve"/>
      <point x="153" y="-26"/>
      <point x="167" y="-2"/>
      <point x="167" y="5" type="curve" smooth="yes"/>
      <point x="167" y="9"/>
      <point x="161" y="16"/>
      <point x="149" y="26" type="curve" smooth="yes"/>
      <point x="137" y="36"/>
      <point x="118" y="48"/>
      <point x="90" y="64" type="curve"/>
      <point x="82" y="52"/>
      <point x="74" y="39"/>
      <point x="68" y="26" type="curve" smooth="yes"/>
      <point x="61" y="13"/>
      <point x="54" y="0"/>
      <point x="46" y="-14" type="curve"/>
      <point x="76" y="-32"/>
      <point x="95" y="-44"/>
    </contour>
  </outline>
</glyph>
<glyph name="uni002E" format="2">
  <advance width="206"/>
  <unicode hex="002E"/>
  <outline>
    <contour>
      <point x="125" y="-66" type="curve"/>
      <point x="153" y="-26"/>
      <point x="167" y="-3"/>
      <point x="167" y="5" type="curve" smooth="yes"/>
      <point x="167" y="15"/>
      <point x="141" y="34"/>
      <point x="90" y="64" type="curve"/>
      <point x="82" y="52"/>
      <point x="74" y="39"/>
      <point x="67" y="26" type="curve" smooth="yes"/>
      <point x="61" y="13"/>
      <point x="53" y="0"/>
      <point x="46" y="-14" type="curve"/>
      <point x="66" y="-26"/>
      <point x="93" y="-43"/>
    </contour>
  </outline>
</glyph>
<glyph name="uni0031" format="2">
  <advance width="572"/>
  <unicode hex="0031"/>
  <outline>
    <contour>
      <point x="269" y="0" type="line"/>
      <point x="355" y="0" type="line"/>
      <point x="355" y="714" type="line"/>
      <point x="282" y="714" type="line"/>
      <point x="89" y="564" type="line"/>
      <point x="135" y="505" type="line"/>
      <point x="174" y="537"/>
      <point x="210" y="567"/>
      <point x="244" y="595" type="curve" smooth="yes"/>
      <point x="254" y="603"/>
      <point x="264" y="612"/>
      <point x="273" y="622" type="curve"/>
      <point x="270" y="584"/>
      <point x="269" y="543"/>
      <point x="269" y="499" type="curve" smooth="yes"/>
    </contour>
  </outline>
</glyph>
<glyph name="uni0032" format="2">
  <advance width="572"/>
  <unicode hex="0032"/>
  <outline>
    <contour>
      <point x="48" y="0" type="line"/>
      <point x="520" y="0" type="line"/>
      <point x="520" y="80" type="line"/>
      <point x="159" y="80" type="line"/>
      <point x="159" y="84" type="line"/>
      <point x="308" y="231" type="line" smooth="yes"/>
      <point x="362" y="283"/>
      <point x="400" y="325"/>
      <point x="423" y="355" type="curve" smooth="yes"/>
      <point x="468" y="415"/>
      <point x="491" y="472"/>
      <point x="491" y="534" type="curve" smooth="yes"/>
      <point x="491" y="563"/>
      <point x="486" y="589"/>
      <point x="477" y="613" type="curve" smooth="yes"/>
      <point x="447" y="683"/>
      <point x="375" y="724"/>
      <point x="275" y="724" type="curve" smooth="yes"/>
      <point x="196" y="724"/>
      <point x="123" y="696"/>
      <point x="56" y="640" type="curve"/>
      <point x="103" y="581" type="line"/>
      <point x="169" y="632"/>
      <point x="216" y="649"/>
      <point x="275" y="649" type="curve" smooth="yes"/>
      <point x="353" y="649"/>
      <point x="401" y="604"/>
      <point x="401" y="529" type="curve" smooth="yes"/>
      <point x="401" y="475"/>
      <point x="387" y="438"/>
      <point x="347" y="384" type="curve" smooth="yes"/>
      <point x="328" y="360"/>
      <point x="291" y="319"/>
      <point x="235" y="262" type="curve" smooth="yes"/>
      <point x="48" y="73" type="line"/>
    </contour>
  </outline>
</glyph>
<glyph name="uni0034" format="2">
  <advance width="572"/>
  <unicode hex="0034"/>
  <outline>
    <contour>
      <point x="363" y="0" type="line"/>
      <point x="448" y="0" type="line"/>
      <point x="448" y="162" type="line"/>
      <point x="552" y="162" type="line"/>
      <point x="552" y="241" type="line"/>
      <point x="448" y="241" type="line"/>
      <point x="448" y="718" type="line"/>
      <point x="357" y="718" type="line"/>
      <point x="21" y="237" type="line"/>
      <point x="21" y="162" type="line"/>
      <point x="363" y="162" type="line"/>
    </contour>
    <contour>
      <point x="107" y="241" type="line"/>
      <point x="321" y="546" type="line" smooth="yes"/>
      <point x="335" y="565"/>
      <point x="357" y="607"/>
      <point x="364" y="624" type="curve"/>
      <point x="368" y="624" type="line"/>
      <point x="365" y="563"/>
      <point x="363" y="510"/>
      <point x="363" y="466" type="curve" smooth="yes"/>
      <point x="363" y="241" type="line"/>
    </contour>
  </outline>
</glyph>
<glyph name="uni0035" format="2">
  <advance width="572"/>
  <unicode hex="0035"/>
  <outline>
    <contour>
      <point x="248" y="-10" type="curve" smooth="yes"/>
      <point x="415" y="-10"/>
      <point x="515" y="80"/>
      <point x="515" y="228" type="curve" smooth="yes"/>
      <point x="515" y="358"/>
      <point x="424" y="438"/>
      <point x="275" y="438" type="curve" smooth="yes"/>
      <point x="239" y="438"/>
      <point x="202" y="434"/>
      <point x="165" y="427" type="curve"/>
      <point x="182" y="634" type="line"/>
      <point x="465" y="634" type="line"/>
      <point x="465" y="714" type="line"/>
      <point x="107" y="714" type="line"/>
      <point x="80" y="377" type="line"/>
      <point x="124" y="349" type="line"/>
      <point x="167" y="359"/>
      <point x="208" y="364"/>
      <point x="246" y="364" type="curve" smooth="yes"/>
      <point x="365" y="364"/>
      <point x="425" y="316"/>
      <point x="425" y="219" type="curve" smooth="yes"/>
      <point x="425" y="120"/>
      <point x="361" y="65"/>
      <point x="249" y="65" type="curve" smooth="yes"/>
      <point x="185" y="65"/>
      <point x="111" y="83"/>
      <point x="63" y="112" type="curve"/>
      <point x="63" y="29" type="line"/>
      <point x="107" y="3"/>
      <point x="168" y="-10"/>
    </contour>
  </outline>
</glyph>
<glyph name="uni0036" format="2">
  <advance width="572"/>
  <unicode hex="0036"/>
  <outline>
    <contour>
      <point x="298" y="-10" type="curve" smooth="yes"/>
      <point x="438" y="-10"/>
      <point x="525" y="82"/>
      <point x="525" y="230" type="curve" smooth="yes"/>
      <point x="525" y="363"/>
      <point x="447" y="447"/>
      <point x="318" y="447" type="curve" smooth="yes"/>
      <point x="241" y="447"/>
      <point x="185" y="419"/>
      <point x="149" y="363" type="curve"/>
      <point x="143" y="363" type="line"/>
      <point x="146" y="432"/>
      <point x="158" y="488"/>
      <point x="178" y="532" type="curve" smooth="yes"/>
      <point x="216" y="614"/>
      <point x="285" y="652"/>
      <point x="384" y="652" type="curve" smooth="yes"/>
      <point x="417" y="652"/>
      <point x="445" y="648"/>
      <point x="470" y="640" type="curve"/>
      <point x="470" y="715" type="line"/>
      <point x="449" y="721"/>
      <point x="420" y="724"/>
      <point x="382" y="724" type="curve" smooth="yes"/>
      <point x="164" y="724"/>
      <point x="55" y="584"/>
      <point x="55" y="305" type="curve" smooth="yes"/>
      <point x="55" y="240"/>
      <point x="65" y="184"/>
      <point x="85" y="136" type="curve" smooth="yes"/>
      <point x="125" y="41"/>
      <point x="200" y="-10"/>
    </contour>
    <contour>
      <point x="297" y="64" type="curve" smooth="yes"/>
      <point x="267" y="64"/>
      <point x="241" y="72"/>
      <point x="218" y="88" type="curve" smooth="yes"/>
      <point x="172" y="121"/>
      <point x="144" y="182"/>
      <point x="144" y="247" type="curve" smooth="yes"/>
      <point x="144" y="269"/>
      <point x="151" y="291"/>
      <point x="165" y="312" type="curve" smooth="yes"/>
      <point x="194" y="353"/>
      <point x="243" y="378"/>
      <point x="300" y="378" type="curve" smooth="yes"/>
      <point x="389" y="378"/>
      <point x="438" y="325"/>
      <point x="438" y="230" type="curve" smooth="yes"/>
      <point x="438" y="125"/>
      <point x="387" y="64"/>
    </contour>
  </outline>
</glyph>
<glyph name="uni0038" format="2">
  <advance width="572"/>
  <unicode hex="0038"/>
  <outline>
    <contour>
      <point x="288" y="-10" type="curve" smooth="yes"/>
      <point x="432" y="-10"/>
      <point x="522" y="67"/>
      <point x="522" y="185" type="curve" smooth="yes"/>
      <point x="522" y="264"/>
      <point x="478" y="322"/>
      <point x="363" y="378" type="curve"/>
      <point x="458" y="427"/>
      <point x="499" y="482"/>
      <point x="499" y="553" type="curve" smooth="yes"/>
      <point x="499" y="660"/>
      <point x="415" y="724"/>
      <point x="285" y="724" type="curve" smooth="yes"/>
      <point x="156" y="724"/>
      <point x="72" y="658"/>
      <point x="72" y="554" type="curve" smooth="yes"/>
      <point x="72" y="481"/>
      <point x="108" y="424"/>
      <point x="197" y="373" type="curve"/>
      <point x="98" y="327"/>
      <point x="49" y="264"/>
      <point x="49" y="182" type="curve" smooth="yes"/>
      <point x="49" y="59"/>
      <point x="136" y="-10"/>
    </contour>
    <contour>
      <point x="286" y="60" type="curve" smooth="yes"/>
      <point x="192" y="60"/>
      <point x="135" y="106"/>
      <point x="135" y="181" type="curve" smooth="yes"/>
      <point x="135" y="250"/>
      <point x="176" y="297"/>
      <point x="270" y="337" type="curve"/>
      <point x="390" y="293"/>
      <point x="436" y="247"/>
      <point x="436" y="184" type="curve" smooth="yes"/>
      <point x="436" y="107"/>
      <point x="379" y="60"/>
    </contour>
    <contour>
      <point x="289" y="412" type="curve"/>
      <point x="253" y="427"/>
      <point x="226" y="441"/>
      <point x="209" y="454" type="curve" smooth="yes"/>
      <point x="176" y="478"/>
      <point x="158" y="509"/>
      <point x="158" y="550" type="curve" smooth="yes"/>
      <point x="158" y="614"/>
      <point x="207" y="653"/>
      <point x="284" y="653" type="curve" smooth="yes"/>
      <point x="362" y="653"/>
      <point x="412" y="615"/>
      <point x="412" y="550" type="curve" smooth="yes"/>
      <point x="412" y="492"/>
      <point x="378" y="449"/>
    </contour>
  </outline>
</glyph>
<glyph name="uni0039" format="2">
  <advance width="572"/>
  <unicode hex="0039"/>
  <outline>
    <contour>
      <point x="192" y="-10" type="curve" smooth="yes"/>
      <point x="411" y="-10"/>
      <point x="520" y="130"/>
      <point x="520" y="409" type="curve" smooth="yes"/>
      <point x="520" y="474"/>
      <point x="510" y="530"/>
      <point x="490" y="578" type="curve" smooth="yes"/>
      <point x="451" y="673"/>
      <point x="375" y="724"/>
      <point x="278" y="724" type="curve" smooth="yes"/>
      <point x="139" y="724"/>
      <point x="50" y="630"/>
      <point x="50" y="483" type="curve" smooth="yes"/>
      <point x="50" y="348"/>
      <point x="129" y="267"/>
      <point x="255" y="267" type="curve" smooth="yes"/>
      <point x="332" y="267"/>
      <point x="388" y="295"/>
      <point x="425" y="350" type="curve"/>
      <point x="431" y="350" type="line"/>
      <point x="429" y="282"/>
      <point x="418" y="228"/>
      <point x="400" y="187" type="curve" smooth="yes"/>
      <point x="364" y="106"/>
      <point x="296" y="62"/>
      <point x="190" y="62" type="curve" smooth="yes"/>
      <point x="156" y="62"/>
      <point x="127" y="66"/>
      <point x="102" y="75" type="curve"/>
      <point x="102" y="0" type="line"/>
      <point x="124" y="-7"/>
      <point x="154" y="-10"/>
    </contour>
    <contour>
      <point x="274" y="337" type="curve" smooth="yes"/>
      <point x="185" y="337"/>
      <point x="137" y="389"/>
      <point x="137" y="484" type="curve" smooth="yes"/>
      <point x="137" y="589"/>
      <point x="189" y="650"/>
      <point x="278" y="650" type="curve" smooth="yes"/>
      <point x="308" y="650"/>
      <point x="335" y="642"/>
      <point x="358" y="625" type="curve" smooth="yes"/>
      <point x="404" y="592"/>
      <point x="431" y="532"/>
      <point x="431" y="467" type="curve" smooth="yes"/>
      <point x="431" y="444"/>
      <point x="424" y="423"/>
      <point x="411" y="403" type="curve" smooth="yes"/>
      <point x="383" y="362"/>
      <point x="333" y="337"/>
    </contour>
  </outline>
</glyph>
<glyph name="uni003A" format="2">
  <advance width="206"/>
  <unicode hex="003A"/>
  <outline>
    <contour>
      <point x="125" y="288" type="curve"/>
      <point x="153" y="328"/>
      <point x="167" y="352"/>
      <point x="167" y="358" type="curve" smooth="yes"/>
      <point x="167" y="368"/>
      <point x="141" y="388"/>
      <point x="90" y="417" type="curve"/>
      <point x="82" y="405"/>
      <point x="74" y="392"/>
      <point x="68" y="379" type="curve" smooth="yes"/>
      <point x="61" y="366"/>
      <point x="54" y="353"/>
      <point x="46" y="340" type="curve"/>
      <point x="66" y="327"/>
      <point x="93" y="310"/>
    </contour>
    <contour>
      <point x="125" y="-66" type="curve"/>
      <point x="153" y="-26"/>
      <point x="167" y="-3"/>
      <point x="167" y="5" type="curve" smooth="yes"/>
      <point x="167" y="15"/>
      <point x="141" y="34"/>
      <point x="90" y="64" type="curve"/>
      <point x="82" y="52"/>
      <point x="74" y="39"/>
      <point x="68" y="26" type="curve" smooth="yes"/>
      <point x="61" y="13"/>
      <point x="54" y="0"/>
      <point x="46" y="-14" type="curve"/>
      <point x="70" y="-29"/>
      <point x="97" y="-46"/>
    </contour>
  </outline>
</glyph>
<glyph name="uni00AB" format="2">
  <advance width="414"/>
  <unicode hex="00AB"/>
  <outline>
    <contour>
      <point x="336" y="91" type="curve" smooth="yes"/>
      <point x="354" y="91"/>
      <point x="370" y="99"/>
      <point x="385" y="116" type="curve"/>
      <point x="365" y="138"/>
      <point x="346" y="161"/>
      <point x="328" y="184" type="curve" smooth="yes"/>
      <point x="280" y="243" type="line"/>
      <point x="368" y="378" type="line"/>
      <point x="335" y="409" type="line"/>
      <point x="216" y="236" type="line"/>
      <point x="246" y="192"/>
      <point x="275" y="148"/>
      <point x="305" y="105" type="curve" smooth="yes"/>
      <point x="312" y="95"/>
      <point x="323" y="91"/>
    </contour>
    <contour>
      <point x="178" y="91" type="curve" smooth="yes"/>
      <point x="196" y="91"/>
      <point x="212" y="99"/>
      <point x="227" y="116" type="curve"/>
      <point x="212" y="132"/>
      <point x="193" y="155"/>
      <point x="170" y="184" type="curve" smooth="yes"/>
      <point x="122" y="243" type="line"/>
      <point x="209" y="378" type="line"/>
      <point x="177" y="409" type="line"/>
      <point x="59" y="236" type="line"/>
      <point x="88" y="192"/>
      <point x="117" y="148"/>
      <point x="146" y="105" type="curve" smooth="yes"/>
      <point x="153" y="95"/>
      <point x="165" y="91"/>
    </contour>
  </outline>
</glyph>
<glyph name="uni00BB" format="2">
  <advance width="414"/>
  <unicode hex="00BB"/>
  <outline>
    <contour>
      <point x="237" y="80" type="line"/>
      <point x="355" y="254" type="line"/>
      <point x="326" y="297"/>
      <point x="297" y="341"/>
      <point x="268" y="384" type="curve" smooth="yes"/>
      <point x="261" y="394"/>
      <point x="249" y="399"/>
      <point x="235" y="399" type="curve" smooth="yes"/>
      <point x="218" y="399"/>
      <point x="202" y="390"/>
      <point x="187" y="374" type="curve"/>
      <point x="207" y="351"/>
      <point x="226" y="329"/>
      <point x="244" y="306" type="curve" smooth="yes"/>
      <point x="292" y="247" type="line"/>
      <point x="204" y="112" type="line"/>
    </contour>
    <contour>
      <point x="79" y="80" type="line"/>
      <point x="197" y="254" type="line"/>
      <point x="168" y="297"/>
      <point x="139" y="341"/>
      <point x="109" y="384" type="curve" smooth="yes"/>
      <point x="103" y="394"/>
      <point x="91" y="399"/>
      <point x="78" y="399" type="curve" smooth="yes"/>
      <point x="60" y="399"/>
      <point x="44" y="390"/>
      <point x="29" y="374" type="curve"/>
      <point x="54" y="345"/>
      <point x="81" y="313"/>
      <point x="110" y="276" type="curve" smooth="yes"/>
      <point x="134" y="247" type="line"/>
      <point x="46" y="112" type="line"/>
    </contour>
  </outline>
</glyph>
<glyph name="uni0602" format="2">
  <advance width="203"/>
  <unicode hex="0602"/>
  <outline>
    <contour>
      <point x="211" y="-30" type="curve" smooth="yes"/>
      <point x="333" y="-30"/>
      <point x="461" y="-30"/>
      <point x="596" y="-30" type="curve" smooth="yes"/>
      <point x="731" y="-30"/>
      <point x="805" y="-30"/>
      <point x="818" y="-30" type="curve" smooth="yes"/>
      <point x="902" y="-30"/>
      <point x="1095" y="-25"/>
      <point x="1147" y="-11" type="curve" smooth="yes"/>
      <point x="1189" y="-1"/>
      <point x="1203" y="29"/>
      <point x="1203" y="71" type="curve"/>
      <point x="1091" y="56"/>
      <point x="984" y="49"/>
      <point x="872" y="48" type="curve" smooth="yes"/>
      <point x="844" y="47"/>
      <point x="503" y="47"/>
      <point x="258" y="47" type="curve"/>
      <point x="270" y="66"/>
      <point x="280" y="91"/>
      <point x="280" y="114" type="curve" smooth="yes"/>
      <point x="280" y="169"/>
      <point x="236" y="214"/>
      <point x="184" y="214" type="curve" smooth="yes"/>
      <point x="114" y="214"/>
      <point x="51" y="150"/>
      <point x="51" y="82" type="curve" smooth="yes"/>
      <point x="51" y="-8"/>
      <point x="131" y="-30"/>
    </contour>
    <contour>
      <point x="223" y="47" type="curve"/>
      <point x="199" y="47"/>
      <point x="172" y="49"/>
      <point x="149" y="52" type="curve" smooth="yes"/>
      <point x="115" y="59"/>
      <point x="87" y="71"/>
      <point x="87" y="96" type="curve" smooth="yes"/>
      <point x="87" y="134"/>
      <point x="140" y="147"/>
      <point x="173" y="147" type="curve" smooth="yes"/>
      <point x="212" y="147"/>
      <point x="232" y="125"/>
      <point x="232" y="80" type="curve" smooth="yes"/>
      <point x="232" y="71"/>
      <point x="229" y="60"/>
    </contour>
  </outline>
</glyph>
<glyph name="uni0603" format="2">
  <advance width="50"/>
  <unicode hex="0603"/>
  <outline>
    <contour>
      <point x="743" y="-63" type="line"/>
      <point x="773" y="-17" type="line"/>
      <point x="807" y="-28"/>
      <point x="841" y="-34"/>
      <point x="878" y="-34" type="curve" smooth="yes"/>
      <point x="911" y="-34"/>
      <point x="954" y="-24"/>
      <point x="989" y="0" type="curve" smooth="yes"/>
      <point x="1024" y="24"/>
      <point x="1050" y="60"/>
      <point x="1050" y="112" type="curve" smooth="yes"/>
      <point x="1050" y="130"/>
      <point x="1045" y="148"/>
      <point x="1037" y="163" type="curve" smooth="yes"/>
      <point x="1020" y="195"/>
      <point x="988" y="217"/>
      <point x="950" y="217" type="curve" smooth="yes"/>
      <point x="928" y="217"/>
      <point x="901" y="202"/>
      <point x="871" y="175" type="curve" smooth="yes"/>
      <point x="841" y="147"/>
      <point x="809" y="107"/>
      <point x="775" y="57" type="curve"/>
      <point x="762" y="61"/>
      <point x="749" y="66"/>
      <point x="737" y="72" type="curve"/>
      <point x="746" y="86"/>
      <point x="754" y="106"/>
      <point x="765" y="131" type="curve"/>
      <point x="758" y="138"/>
      <point x="749" y="140"/>
      <point x="741" y="140" type="curve" smooth="yes"/>
      <point x="727" y="140"/>
      <point x="716" y="133"/>
      <point x="710" y="123" type="curve" smooth="yes"/>
      <point x="698" y="104"/>
      <point x="689" y="87"/>
      <point x="667" y="69" type="curve" smooth="yes"/>
      <point x="645" y="50"/>
      <point x="611" y="41"/>
      <point x="557" y="41" type="curve" smooth="yes"/>
      <point x="264" y="41" type="line" smooth="yes"/>
      <point x="179" y="41"/>
      <point x="128" y="49"/>
      <point x="24" y="66" type="curve"/>
      <point x="24" y="21"/>
      <point x="42" y="-5"/>
      <point x="87" y="-14" type="curve" smooth="yes"/>
      <point x="152" y="-27"/>
      <point x="202" y="-31"/>
      <point x="264" y="-31" type="curve" smooth="yes"/>
      <point x="533" y="-31" type="line" smooth="yes"/>
      <point x="608" y="-31"/>
      <point x="654" y="-18"/>
      <point x="695" y="15" type="curve"/>
      <point x="708" y="8"/>
      <point x="722" y="2"/>
      <point x="736" y="-4" type="curve"/>
      <point x="728" y="-17"/>
      <point x="720" y="-31"/>
      <point x="713" y="-45" type="curve"/>
    </contour>
    <contour>
      <point x="885" y="42" type="curve" smooth="yes"/>
      <point x="864" y="42"/>
      <point x="841" y="44"/>
      <point x="818" y="48" type="curve"/>
      <point x="840" y="79"/>
      <point x="861" y="102"/>
      <point x="878" y="118" type="curve" smooth="yes"/>
      <point x="896" y="134"/>
      <point x="912" y="142"/>
      <point x="926" y="142" type="curve" smooth="yes"/>
      <point x="956" y="142"/>
      <point x="985" y="128"/>
      <point x="1012" y="87" type="curve"/>
      <point x="967" y="52"/>
      <point x="925" y="42"/>
    </contour>
  </outline>
</glyph>
<glyph name="uni0608" format="2">
  <advance width="836"/>
  <unicode hex="0608"/>
  <outline>
    <contour>
      <point x="384" y="-262" type="curve" smooth="yes"/>
      <point x="462" y="-262"/>
      <point x="554" y="-226"/>
      <point x="617" y="-171" type="curve" smooth="yes"/>
      <point x="680" y="-116"/>
      <point x="714" y="-43"/>
      <point x="714" y="41" type="curve" smooth="yes"/>
      <point x="714" y="54" type="line"/>
      <point x="759" y="77"/>
      <point x="800" y="101"/>
      <point x="821" y="126" type="curve" smooth="yes"/>
      <point x="831" y="138"/>
      <point x="836" y="149"/>
      <point x="836" y="162" type="curve" smooth="yes"/>
      <point x="836" y="179"/>
      <point x="826" y="192"/>
      <point x="807" y="202" type="curve"/>
      <point x="770" y="175"/>
      <point x="736" y="152"/>
      <point x="704" y="134" type="curve"/>
      <point x="694" y="181"/>
      <point x="677" y="222"/>
      <point x="656" y="254" type="curve" smooth="yes"/>
      <point x="622" y="308"/>
      <point x="577" y="340"/>
      <point x="531" y="340" type="curve" smooth="yes"/>
      <point x="509" y="340"/>
      <point x="486" y="330"/>
      <point x="464" y="310" type="curve" smooth="yes"/>
      <point x="420" y="269"/>
      <point x="390" y="197"/>
      <point x="390" y="129" type="curve" smooth="yes"/>
      <point x="390" y="51"/>
      <point x="439" y="0"/>
      <point x="515" y="0" type="curve" smooth="yes"/>
      <point x="559" y="0"/>
      <point x="606" y="9"/>
      <point x="657" y="28" type="curve"/>
      <point x="660" y="4"/>
      <point x="662" y="-22"/>
      <point x="663" y="-51" type="curve"/>
      <point x="647" y="-76"/>
      <point x="624" y="-99"/>
      <point x="594" y="-118" type="curve" smooth="yes"/>
      <point x="535" y="-157"/>
      <point x="456" y="-179"/>
      <point x="387" y="-179" type="curve" smooth="yes"/>
      <point x="299" y="-179"/>
      <point x="248" y="-122"/>
      <point x="248" y="-24" type="curve" smooth="yes"/>
      <point x="248" y="-10"/>
      <point x="255" y="24"/>
      <point x="268" y="76" type="curve"/>
      <point x="235" y="92" type="line"/>
      <point x="166" y="58"/>
      <point x="118" y="31"/>
      <point x="91" y="13" type="curve" smooth="yes"/>
      <point x="76" y="3"/>
      <point x="68" y="-11"/>
      <point x="68" y="-30" type="curve" smooth="yes"/>
      <point x="68" y="-41"/>
      <point x="71" y="-51"/>
      <point x="77" y="-61" type="curve"/>
      <point x="122" y="-37"/>
      <point x="166" y="-13"/>
      <point x="210" y="11" type="curve"/>
      <point x="205" y="-12"/>
      <point x="203" y="-41"/>
      <point x="203" y="-74" type="curve" smooth="yes"/>
      <point x="203" y="-194"/>
      <point x="270" y="-262"/>
    </contour>
    <contour>
      <point x="539" y="82" type="curve" smooth="yes"/>
      <point x="468" y="82"/>
      <point x="429" y="108"/>
      <point x="429" y="157" type="curve" smooth="yes"/>
      <point x="429" y="170"/>
      <point x="433" y="185"/>
      <point x="442" y="200" type="curve" smooth="yes"/>
      <point x="459" y="231"/>
      <point x="488" y="255"/>
      <point x="516" y="255" type="curve" smooth="yes"/>
      <point x="530" y="255"/>
      <point x="545" y="249"/>
      <point x="561" y="238" type="curve" smooth="yes"/>
      <point x="594" y="214"/>
      <point x="623" y="166"/>
      <point x="642" y="104" type="curve"/>
      <point x="604" y="89"/>
      <point x="570" y="82"/>
    </contour>
  </outline>
</glyph>
<glyph name="uni060D" format="2">
  <advance width="300"/>
  <unicode hex="060D"/>
  <outline>
    <contour>
      <point x="69" y="-151" type="curve"/>
      <point x="98" y="-61"/>
      <point x="147" y="15"/>
      <point x="228" y="95" type="curve"/>
      <point x="210" y="155" type="line"/>
      <point x="185" y="129"/>
      <point x="157" y="98"/>
      <point x="131" y="64" type="curve" smooth="yes"/>
      <point x="83" y="1"/>
      <point x="41" y="-67"/>
      <point x="41" y="-110" type="curve" smooth="yes"/>
      <point x="41" y="-127"/>
      <point x="52" y="-146"/>
    </contour>
  </outline>
</glyph>
<glyph name="uni060E" format="2">
  <advance width="854"/>
  <unicode hex="060E"/>
  <outline>
    <contour>
      <point x="342" y="0" type="curve" smooth="yes"/>
      <point x="470" y="0"/>
      <point x="570" y="7"/>
      <point x="641" y="22" type="curve" smooth="yes"/>
      <point x="711" y="37"/>
      <point x="763" y="61"/>
      <point x="795" y="93" type="curve" smooth="yes"/>
      <point x="810" y="107"/>
      <point x="824" y="129"/>
      <point x="837" y="156" type="curve"/>
      <point x="811" y="177" type="line"/>
      <point x="795" y="157"/>
      <point x="771" y="139"/>
      <point x="737" y="125" type="curve" smooth="yes"/>
      <point x="661" y="92"/>
      <point x="539" y="75"/>
      <point x="371" y="72" type="curve"/>
      <point x="374" y="81"/>
      <point x="383" y="131"/>
      <point x="383" y="153" type="curve" smooth="yes"/>
      <point x="383" y="247"/>
      <point x="333" y="311"/>
      <point x="255" y="311" type="curve" smooth="yes"/>
      <point x="218" y="311"/>
      <point x="181" y="299"/>
      <point x="150" y="279" type="curve" smooth="yes"/>
      <point x="102" y="248"/>
      <point x="68" y="196"/>
      <point x="68" y="139" type="curve" smooth="yes"/>
      <point x="68" y="88"/>
      <point x="88" y="52"/>
      <point x="128" y="31" type="curve" smooth="yes"/>
      <point x="168" y="10"/>
      <point x="240" y="0"/>
    </contour>
    <contour>
      <point x="334" y="72" type="curve"/>
      <point x="260" y="73"/>
      <point x="203" y="81"/>
      <point x="164" y="96" type="curve" smooth="yes"/>
      <point x="124" y="111"/>
      <point x="104" y="132"/>
      <point x="104" y="160" type="curve" smooth="yes"/>
      <point x="104" y="171"/>
      <point x="111" y="182"/>
      <point x="124" y="194" type="curve" smooth="yes"/>
      <point x="151" y="217"/>
      <point x="194" y="233"/>
      <point x="237" y="233" type="curve" smooth="yes"/>
      <point x="256" y="233"/>
      <point x="273" y="228"/>
      <point x="290" y="219" type="curve" smooth="yes"/>
      <point x="322" y="200"/>
      <point x="342" y="165"/>
      <point x="342" y="119" type="curve" smooth="yes"/>
      <point x="342" y="109"/>
      <point x="339" y="93"/>
    </contour>
  </outline>
</glyph>
<glyph name="uni060F" format="2">
  <advance width="648"/>
  <unicode hex="060F"/>
  <anchor x="338" y="-330" name="bottom"/>
  <anchor x="228" y="581" name="top"/>
  <outline>
    <contour>
      <point x="67" y="-297" type="line"/>
      <point x="99" y="-249"/>
      <point x="127" y="-211"/>
      <point x="151" y="-182" type="curve"/>
      <point x="189" y="-245"/>
      <point x="254" y="-281"/>
      <point x="338" y="-281" type="curve" smooth="yes"/>
      <point x="378" y="-281"/>
      <point x="416" y="-272"/>
      <point x="452" y="-255" type="curve" smooth="yes"/>
      <point x="524" y="-220"/>
      <point x="569" y="-156"/>
      <point x="569" y="-83" type="curve" smooth="yes"/>
      <point x="569" y="19"/>
      <point x="518" y="76"/>
      <point x="425" y="76" type="curve" smooth="yes"/>
      <point x="337" y="76"/>
      <point x="254" y="21"/>
      <point x="161" y="-96" type="curve"/>
      <point x="152" y="-75"/>
      <point x="148" y="-51"/>
      <point x="148" y="-25" type="curve" smooth="yes"/>
      <point x="148" y="24"/>
      <point x="167" y="70"/>
      <point x="202" y="112" type="curve" smooth="yes"/>
      <point x="243" y="160"/>
      <point x="308" y="202"/>
      <point x="394" y="236" type="curve" smooth="yes"/>
      <point x="416" y="245"/>
      <point x="431" y="252"/>
      <point x="440" y="259" type="curve" smooth="yes"/>
      <point x="459" y="271"/>
      <point x="471" y="287"/>
      <point x="471" y="309" type="curve" smooth="yes"/>
      <point x="471" y="319"/>
      <point x="467" y="330"/>
      <point x="460" y="340" type="curve"/>
      <point x="395" y="319"/>
      <point x="340" y="295"/>
      <point x="296" y="267" type="curve"/>
      <point x="190" y="276"/>
      <point x="125" y="332"/>
      <point x="125" y="416" type="curve"/>
      <point x="171" y="440"/>
      <point x="213" y="452"/>
      <point x="253" y="452" type="curve" smooth="yes"/>
      <point x="282" y="452"/>
      <point x="297" y="449"/>
      <point x="350" y="429" type="curve"/>
      <point x="368" y="460" type="line"/>
      <point x="310" y="511"/>
      <point x="272" y="532"/>
      <point x="228" y="532" type="curve" smooth="yes"/>
      <point x="201" y="532"/>
      <point x="176" y="523"/>
      <point x="151" y="503" type="curve" smooth="yes"/>
      <point x="101" y="464"/>
      <point x="68" y="395"/>
      <point x="68" y="338" type="curve" smooth="yes"/>
      <point x="68" y="318"/>
      <point x="74" y="298"/>
      <point x="84" y="280" type="curve" smooth="yes"/>
      <point x="107" y="239"/>
      <point x="152" y="205"/>
      <point x="204" y="193" type="curve"/>
      <point x="148" y="137"/>
      <point x="112" y="58"/>
      <point x="112" y="-25" type="curve" smooth="yes"/>
      <point x="112" y="-69"/>
      <point x="118" y="-106"/>
      <point x="129" y="-137" type="curve"/>
      <point x="100" y="-178"/>
      <point x="70" y="-224"/>
      <point x="38" y="-275" type="curve"/>
    </contour>
    <contour>
      <point x="346" y="-204" type="curve" smooth="yes"/>
      <point x="286" y="-204"/>
      <point x="228" y="-182"/>
      <point x="188" y="-140" type="curve"/>
      <point x="271" y="-52"/>
      <point x="352" y="-9"/>
      <point x="432" y="-9" type="curve" smooth="yes"/>
      <point x="484" y="-9"/>
      <point x="534" y="-44"/>
      <point x="534" y="-86" type="curve" smooth="yes"/>
      <point x="534" y="-109"/>
      <point x="526" y="-129"/>
      <point x="511" y="-146" type="curve" smooth="yes"/>
      <point x="481" y="-182"/>
      <point x="413" y="-204"/>
    </contour>
  </outline>
</glyph>
<glyph name="uni0610" format="2">
  <unicode hex="0610"/>
  <anchor x="99" y="469" name="_top"/>
  <anchor x="99" y="469" name="_top2"/>
  <anchor x="99" y="469" name="_top3"/>
  <anchor x="73" y="687" name="top3"/>
  <outline>
    <contour>
      <point x="7" y="458" type="curve"/>
      <point x="17" y="459"/>
      <point x="26" y="465"/>
      <point x="33" y="478" type="curve"/>
      <point x="37" y="487"/>
      <point x="39" y="503"/>
      <point x="39" y="526" type="curve"/>
      <point x="52" y="523"/>
      <point x="65" y="521"/>
      <point x="80" y="521" type="curve" smooth="yes"/>
      <point x="139" y="521"/>
      <point x="181" y="557"/>
      <point x="181" y="611" type="curve" smooth="yes"/>
      <point x="181" y="635"/>
      <point x="155" y="663"/>
      <point x="129" y="663" type="curve" smooth="yes"/>
      <point x="98" y="663"/>
      <point x="66" y="635"/>
      <point x="33" y="581" type="curve"/>
      <point x="27" y="592"/>
      <point x="20" y="609"/>
      <point x="12" y="631" type="curve"/>
      <point x="5" y="623"/>
      <point x="-2" y="609"/>
      <point x="-10" y="589" type="curve"/>
      <point x="4" y="558"/>
      <point x="11" y="531"/>
      <point x="11" y="507" type="curve" smooth="yes"/>
      <point x="11" y="490"/>
      <point x="10" y="473"/>
    </contour>
    <contour>
      <point x="81" y="558" type="curve" smooth="yes"/>
      <point x="65" y="558"/>
      <point x="53" y="559"/>
      <point x="44" y="563" type="curve"/>
      <point x="66" y="602"/>
      <point x="91" y="622"/>
      <point x="119" y="622" type="curve" smooth="yes"/>
      <point x="140" y="622"/>
      <point x="155" y="611"/>
      <point x="162" y="588" type="curve"/>
      <point x="149" y="568"/>
      <point x="122" y="558"/>
    </contour>
  </outline>
</glyph>
<glyph name="uni0611" format="2">
  <unicode hex="0611"/>
  <anchor x="91" y="469" name="_top"/>
  <anchor x="91" y="469" name="_top2"/>
  <anchor x="91" y="469" name="_top3"/>
  <anchor x="66" y="685" name="top3"/>
  <outline>
    <contour>
      <point x="5" y="458" type="curve"/>
      <point x="27" y="459"/>
      <point x="38" y="481"/>
      <point x="38" y="522" type="curve"/>
      <point x="47" y="520"/>
      <point x="58" y="519"/>
      <point x="71" y="519" type="curve" smooth="yes"/>
      <point x="89" y="519"/>
      <point x="107" y="521"/>
      <point x="126" y="526" type="curve" smooth="yes"/>
      <point x="166" y="534"/>
      <point x="190" y="545"/>
      <point x="190" y="571" type="curve" smooth="yes"/>
      <point x="190" y="575"/>
      <point x="189" y="580"/>
      <point x="187" y="584" type="curve"/>
      <point x="174" y="578"/>
      <point x="155" y="571"/>
      <point x="132" y="564" type="curve"/>
      <point x="131" y="565" type="line"/>
      <point x="121" y="567" type="line"/>
      <point x="95" y="575"/>
      <point x="83" y="591"/>
      <point x="83" y="617" type="curve"/>
      <point x="97" y="625"/>
      <point x="110" y="628"/>
      <point x="122" y="628" type="curve" smooth="yes"/>
      <point x="134" y="628"/>
      <point x="147" y="625"/>
      <point x="160" y="620" type="curve"/>
      <point x="169" y="633" type="line"/>
      <point x="143" y="656"/>
      <point x="132" y="661"/>
      <point x="117" y="661" type="curve" smooth="yes"/>
      <point x="87" y="661"/>
      <point x="58" y="621"/>
      <point x="58" y="587" type="curve" smooth="yes"/>
      <point x="58" y="578"/>
      <point x="60" y="569"/>
      <point x="66" y="561" type="curve"/>
      <point x="71" y="555" type="line"/>
      <point x="69" y="555" type="line" smooth="yes"/>
      <point x="56" y="555"/>
      <point x="46" y="559"/>
      <point x="52" y="558" type="curve"/>
      <point x="46" y="560"/>
      <point x="42" y="564"/>
      <point x="38" y="570" type="curve" smooth="yes"/>
      <point x="33" y="576"/>
      <point x="24" y="596"/>
      <point x="9" y="630" type="curve"/>
      <point x="0" y="618"/>
      <point x="-7" y="604"/>
      <point x="-12" y="589" type="curve"/>
      <point x="2" y="558"/>
      <point x="9" y="531"/>
      <point x="9" y="507" type="curve" smooth="yes"/>
      <point x="9" y="494"/>
      <point x="8" y="477"/>
    </contour>
  </outline>
</glyph>
<glyph name="uni0612" format="2">
  <unicode hex="0612"/>
  <anchor x="28" y="488" name="_top"/>
  <anchor x="28" y="488" name="_top2"/>
  <anchor x="28" y="488" name="_top3"/>
  <anchor x="48" y="723" name="top3"/>
  <outline>
    <contour>
      <point x="-52" y="502" type="curve"/>
      <point x="-36" y="502" type="line"/>
      <point x="-35" y="551"/>
      <point x="18" y="595"/>
      <point x="89" y="607" type="curve" smooth="yes"/>
      <point x="90" y="607" type="line"/>
      <point x="114" y="608" type="line"/>
      <point x="128" y="645" type="line"/>
      <point x="99" y="643" type="line" smooth="yes"/>
      <point x="83" y="643"/>
      <point x="63" y="647"/>
      <point x="39" y="656" type="curve" smooth="yes"/>
      <point x="15" y="664"/>
      <point x="-5" y="668"/>
      <point x="-20" y="668" type="curve" smooth="yes"/>
      <point x="-47" y="668"/>
      <point x="-67" y="655"/>
      <point x="-67" y="635" type="curve" smooth="yes"/>
      <point x="-67" y="627"/>
      <point x="-64" y="621"/>
      <point x="-58" y="617" type="curve"/>
      <point x="-49" y="626"/>
      <point x="-36" y="631"/>
      <point x="-19" y="631" type="curve" smooth="yes"/>
      <point x="-11" y="631"/>
      <point x="-2" y="630"/>
      <point x="6" y="627" type="curve" smooth="yes"/>
      <point x="26" y="622" type="line"/>
      <point x="-24" y="598"/>
      <point x="-52" y="555"/>
    </contour>
    <contour>
      <point x="107" y="498" type="curve" smooth="yes"/>
      <point x="156" y="498"/>
      <point x="192" y="546"/>
      <point x="192" y="607" type="curve" smooth="yes"/>
      <point x="192" y="618"/>
      <point x="187" y="640"/>
      <point x="175" y="672" type="curve" smooth="yes"/>
      <point x="164" y="708" type="line"/>
      <point x="145" y="700"/>
      <point x="136" y="690"/>
      <point x="136" y="678" type="curve" smooth="yes"/>
      <point x="136" y="668"/>
      <point x="140" y="657"/>
      <point x="147" y="645" type="curve" smooth="yes"/>
      <point x="154" y="633"/>
      <point x="162" y="617"/>
      <point x="173" y="595" type="curve"/>
      <point x="161" y="559"/>
      <point x="137" y="534"/>
      <point x="98" y="534" type="curve" smooth="yes"/>
      <point x="90" y="534"/>
      <point x="76" y="537"/>
      <point x="56" y="542" type="curve"/>
      <point x="49" y="526" type="line"/>
      <point x="63" y="514"/>
      <point x="95" y="498"/>
    </contour>
  </outline>
</glyph>
<glyph name="uni0613" format="2">
  <unicode hex="0613"/>
  <anchor x="39" y="452" name="_top"/>
  <anchor x="39" y="452" name="_top2"/>
  <anchor x="39" y="452" name="_top3"/>
  <anchor x="81" y="728" name="top3"/>
  <outline>
    <contour>
      <point x="-38" y="457" type="curve"/>
      <point x="-28" y="458"/>
      <point x="-20" y="464"/>
      <point x="-12" y="477" type="curve"/>
      <point x="-8" y="484"/>
      <point x="-6" y="501"/>
      <point x="-6" y="525" type="curve"/>
      <point x="6" y="522"/>
      <point x="20" y="521"/>
      <point x="34" y="521" type="curve" smooth="yes"/>
      <point x="93" y="521"/>
      <point x="136" y="555"/>
      <point x="136" y="610" type="curve" smooth="yes"/>
      <point x="136" y="634"/>
      <point x="110" y="662"/>
      <point x="83" y="662" type="curve" smooth="yes"/>
      <point x="52" y="662"/>
      <point x="20" y="634"/>
      <point x="-12" y="580" type="curve"/>
      <point x="-19" y="593"/>
      <point x="-27" y="610"/>
      <point x="-34" y="630" type="curve"/>
      <point x="-42" y="621"/>
      <point x="-49" y="607"/>
      <point x="-55" y="588" type="curve"/>
      <point x="-42" y="556"/>
      <point x="-35" y="529"/>
      <point x="-35" y="506" type="curve" smooth="yes"/>
      <point x="-35" y="496"/>
      <point x="-36" y="479"/>
    </contour>
    <contour>
      <point x="35" y="557" type="curve" smooth="yes"/>
      <point x="19" y="557"/>
      <point x="7" y="559"/>
      <point x="-1" y="562" type="curve"/>
      <point x="20" y="601"/>
      <point x="44" y="621"/>
      <point x="73" y="621" type="curve" smooth="yes"/>
      <point x="96" y="621"/>
      <point x="110" y="610"/>
      <point x="117" y="588" type="curve"/>
      <point x="103" y="567"/>
      <point x="76" y="557"/>
    </contour>
    <contour>
      <point x="0" y="647" type="line"/>
      <point x="5" y="650"/>
      <point x="9" y="655"/>
      <point x="13" y="660" type="curve" smooth="yes"/>
      <point x="17" y="666"/>
      <point x="20" y="671"/>
      <point x="23" y="675" type="curve"/>
      <point x="11" y="688"/>
      <point x="0" y="698"/>
      <point x="-8" y="703" type="curve"/>
      <point x="-31" y="674" type="line"/>
    </contour>
    <contour>
      <point x="135" y="461" type="curve" smooth="yes"/>
      <point x="184" y="461"/>
      <point x="220" y="510"/>
      <point x="220" y="570" type="curve" smooth="yes"/>
      <point x="220" y="584"/>
      <point x="214" y="606"/>
      <point x="203" y="635" type="curve" smooth="yes"/>
      <point x="198" y="647"/>
      <point x="195" y="660"/>
      <point x="192" y="672" type="curve"/>
      <point x="174" y="664"/>
      <point x="165" y="656"/>
      <point x="165" y="641" type="curve" smooth="yes"/>
      <point x="165" y="632"/>
      <point x="168" y="621"/>
      <point x="175" y="608" type="curve" smooth="yes"/>
      <point x="186" y="590"/>
      <point x="194" y="573"/>
      <point x="201" y="558" type="curve"/>
      <point x="188" y="518"/>
      <point x="163" y="498"/>
      <point x="126" y="498" type="curve" smooth="yes"/>
      <point x="118" y="498"/>
      <point x="104" y="500"/>
      <point x="83" y="504" type="curve"/>
      <point x="78" y="489" type="line"/>
      <point x="92" y="477"/>
      <point x="122" y="461"/>
    </contour>
  </outline>
</glyph>
<glyph name="uni0614" format="2">
  <unicode hex="0614"/>
  <anchor x="44" y="501" name="_top"/>
  <anchor x="44" y="501" name="_top2"/>
  <anchor x="44" y="501" name="_top3"/>
  <anchor x="66" y="629" name="top3"/>
  <outline>
    <contour>
      <point x="137" y="511" type="curve" smooth="yes"/>
      <point x="168" y="511"/>
      <point x="194" y="539"/>
      <point x="215" y="596" type="curve"/>
      <point x="203" y="606" type="line"/>
      <point x="183" y="572"/>
      <point x="165" y="555"/>
      <point x="149" y="555" type="curve" smooth="yes"/>
      <point x="135" y="555"/>
      <point x="119" y="573"/>
      <point x="119" y="591" type="curve" smooth="yes"/>
      <point x="119" y="600" type="line"/>
      <point x="105" y="605" type="line"/>
      <point x="90" y="587"/>
      <point x="76" y="575"/>
      <point x="63" y="570" type="curve" smooth="yes"/>
      <point x="37" y="558"/>
      <point x="-8" y="554"/>
      <point x="-91" y="554" type="curve" smooth="yes"/>
      <point x="-130" y="555" type="line"/>
      <point x="-130" y="549" type="line" smooth="yes"/>
      <point x="-130" y="536"/>
      <point x="-122" y="528"/>
      <point x="-104" y="524" type="curve" smooth="yes"/>
      <point x="-86" y="520"/>
      <point x="-60" y="519"/>
      <point x="-26" y="519" type="curve" smooth="yes"/>
      <point x="22" y="519"/>
      <point x="61" y="524"/>
      <point x="89" y="547" type="curve"/>
      <point x="101" y="523"/>
      <point x="117" y="511"/>
    </contour>
  </outline>
</glyph>
<glyph name="uni0615" format="2">
  <unicode hex="0615"/>
  <anchor x="48" y="428" name="_top"/>
  <anchor x="48" y="428" name="_top2"/>
  <anchor x="48" y="428" name="_top3"/>
  <anchor x="73" y="650" name="top3"/>
  <outline>
    <contour>
      <point x="39" y="437" type="curve" smooth="yes"/>
      <point x="107" y="437"/>
      <point x="147" y="463"/>
      <point x="147" y="506" type="curve" smooth="yes"/>
      <point x="147" y="526"/>
      <point x="114" y="552"/>
      <point x="90" y="552" type="curve" smooth="yes"/>
      <point x="66" y="552"/>
      <point x="40" y="536"/>
      <point x="11" y="504" type="curve"/>
      <point x="10" y="528"/>
      <point x="8" y="557"/>
      <point x="4" y="591" type="curve"/>
      <point x="14" y="599" type="line"/>
      <point x="1" y="640" type="line"/>
      <point x="-14" y="637"/>
      <point x="-22" y="628"/>
      <point x="-22" y="613" type="curve" smooth="yes"/>
      <point x="-22" y="602"/>
      <point x="-19" y="581"/>
      <point x="-13" y="549" type="curve" smooth="yes"/>
      <point x="-2" y="489" type="line"/>
      <point x="-20" y="468" type="line"/>
      <point x="-76" y="479" type="line"/>
      <point x="-80" y="467" type="line"/>
      <point x="-50" y="447"/>
      <point x="-38" y="437"/>
    </contour>
    <contour>
      <point x="43" y="464" type="curve" smooth="yes"/>
      <point x="-1" y="465" type="line"/>
      <point x="30" y="504"/>
      <point x="58" y="523"/>
      <point x="82" y="523" type="curve" smooth="yes"/>
      <point x="102" y="523"/>
      <point x="119" y="512"/>
      <point x="131" y="489" type="curve"/>
      <point x="100" y="470"/>
      <point x="76" y="464"/>
    </contour>
  </outline>
</glyph>
<glyph name="uni0616" format="2">
  <unicode hex="0616"/>
  <anchor x="0" y="479" name="_top"/>
  <anchor x="0" y="479" name="_top2"/>
  <anchor x="0" y="479" name="_top3"/>
  <anchor x="0" y="825" name="top3"/>
  <outline>
    <contour>
      <point x="-28" y="489" type="curve" smooth="yes"/>
      <point x="40" y="489"/>
      <point x="148" y="497"/>
      <point x="87" y="494" type="curve"/>
      <point x="130" y="498"/>
      <point x="156" y="502"/>
      <point x="163" y="506" type="curve" smooth="yes"/>
      <point x="171" y="510"/>
      <point x="175" y="515"/>
      <point x="175" y="521" type="curve" smooth="yes"/>
      <point x="175" y="526"/>
      <point x="173" y="530"/>
      <point x="169" y="534" type="curve"/>
      <point x="129" y="526"/>
      <point x="26" y="518"/>
      <point x="-26" y="518" type="curve" smooth="yes"/>
      <point x="-102" y="518"/>
      <point x="-152" y="522"/>
      <point x="-176" y="529" type="curve"/>
      <point x="-152" y="544"/>
      <point x="-123" y="553"/>
      <point x="-95" y="561" type="curve"/>
      <point x="-25" y="579" type="line"/>
      <point x="-18" y="591"/>
      <point x="-12" y="610"/>
      <point x="-12" y="620" type="curve" smooth="yes"/>
      <point x="-12" y="643"/>
      <point x="-13" y="670"/>
      <point x="-15" y="699" type="curve" smooth="yes"/>
      <point x="-21" y="799" type="line"/>
      <point x="-29" y="794"/>
      <point x="-37" y="787"/>
      <point x="-45" y="778" type="curve"/>
      <point x="-37" y="708"/>
      <point x="-31" y="651"/>
      <point x="-28" y="604" type="curve"/>
      <point x="-111" y="590"/>
      <point x="-152" y="571"/>
      <point x="-184" y="543" type="curve"/>
      <point x="-188" y="537"/>
      <point x="-194" y="516"/>
      <point x="-194" y="512" type="curve" smooth="yes"/>
      <point x="-194" y="506"/>
      <point x="-177" y="501"/>
      <point x="-145" y="496" type="curve" smooth="yes"/>
      <point x="-112" y="491"/>
      <point x="-73" y="489"/>
    </contour>
    <contour>
      <point x="21" y="569" type="line"/>
      <point x="38" y="572" type="line"/>
      <point x="41" y="657" type="line"/>
      <point x="41" y="678" type="line"/>
      <point x="39" y="747" type="line"/>
      <point x="49" y="755" type="line"/>
      <point x="35" y="800" type="line"/>
      <point x="17" y="796"/>
      <point x="11" y="787"/>
      <point x="11" y="772" type="curve"/>
      <point x="18" y="675" type="line"/>
      <point x="21" y="604" type="line"/>
    </contour>
  </outline>
</glyph>
<glyph name="uni0617" format="2">
  <unicode hex="0617"/>
  <anchor x="0" y="408" name="_top"/>
  <anchor x="0" y="408" name="_top2"/>
  <anchor x="0" y="408" name="_top3"/>
  <anchor x="1" y="722" name="top3"/>
  <outline>
    <contour>
      <point x="-22" y="418" type="curve" smooth="yes"/>
      <point x="28" y="418"/>
      <point x="62" y="466"/>
      <point x="62" y="526" type="curve" smooth="yes"/>
      <point x="62" y="538"/>
      <point x="59" y="555"/>
      <point x="51" y="576" type="curve" smooth="yes"/>
      <point x="34" y="625" type="line"/>
      <point x="19" y="618"/>
      <point x="11" y="612"/>
      <point x="11" y="599" type="curve" smooth="yes"/>
      <point x="11" y="583"/>
      <point x="24" y="560"/>
      <point x="37" y="538" type="curve" smooth="yes"/>
      <point x="48" y="514" type="line"/>
      <point x="34" y="470"/>
      <point x="7" y="448"/>
      <point x="-31" y="448" type="curve" smooth="yes"/>
      <point x="-42" y="448"/>
      <point x="-54" y="449"/>
      <point x="-67" y="452" type="curve"/>
      <point x="-72" y="439" type="line"/>
      <point x="-57" y="428"/>
      <point x="-34" y="418"/>
    </contour>
    <contour>
      <point x="15" y="645" type="curve"/>
      <point x="25" y="654"/>
      <point x="33" y="663"/>
      <point x="40" y="673" type="curve"/>
      <point x="33" y="678"/>
      <point x="24" y="687"/>
      <point x="15" y="697" type="curve"/>
      <point x="-12" y="669" type="line"/>
      <point x="-5" y="662"/>
      <point x="4" y="654"/>
    </contour>
  </outline>
</glyph>
<glyph name="uni0618" format="2">
  <unicode hex="0618"/>
  <anchor x="0" y="447" name="_top"/>
  <anchor x="0" y="447" name="_top2"/>
  <anchor x="0" y="447" name="_top3"/>
  <anchor x="-3" y="571" name="top3"/>
  <outline>
    <contour>
      <point x="-55" y="462" type="line"/>
      <point x="-29" y="471" type="line" smooth="yes"/>
      <point x="-7" y="478"/>
      <point x="19" y="487"/>
      <point x="50" y="500" type="curve" smooth="yes"/>
      <point x="66" y="507"/>
      <point x="73" y="518"/>
      <point x="73" y="536" type="curve"/>
      <point x="72" y="546" type="line"/>
      <point x="39" y="533"/>
      <point x="-1" y="519"/>
      <point x="-50" y="504" type="curve"/>
    </contour>
  </outline>
</glyph>
<glyph name="uni0619" format="2">
  <unicode hex="0619"/>
  <anchor x="0" y="438" name="_top"/>
  <anchor x="0" y="438" name="_top2"/>
  <anchor x="0" y="438" name="_top3"/>
  <anchor x="0" y="627" name="top3"/>
  <outline>
    <contour>
      <point x="-25" y="448" type="curve" smooth="yes"/>
      <point x="-9" y="448"/>
      <point x="10" y="462"/>
      <point x="32" y="489" type="curve"/>
      <point x="57" y="489"/>
      <point x="68" y="496"/>
      <point x="70" y="517" type="curve"/>
      <point x="49" y="518" type="line"/>
      <point x="53" y="528"/>
      <point x="55" y="539"/>
      <point x="55" y="550" type="curve" smooth="yes"/>
      <point x="55" y="588"/>
      <point x="39" y="603"/>
      <point x="23" y="603" type="curve" smooth="yes"/>
      <point x="-2" y="603"/>
      <point x="-32" y="573"/>
      <point x="-32" y="542" type="curve" smooth="yes"/>
      <point x="-32" y="523"/>
      <point x="-21" y="508"/>
      <point x="1" y="496" type="curve"/>
      <point x="-10" y="487"/>
      <point x="-28" y="479"/>
      <point x="-54" y="473" type="curve"/>
      <point x="-54" y="457"/>
      <point x="-43" y="448"/>
    </contour>
    <contour>
      <point x="25" y="522" type="line"/>
      <point x="3" y="530"/>
      <point x="-8" y="542"/>
      <point x="-8" y="556" type="curve" smooth="yes"/>
      <point x="-8" y="562"/>
      <point x="2" y="571"/>
      <point x="11" y="571" type="curve" smooth="yes"/>
      <point x="23" y="571"/>
      <point x="30" y="561"/>
      <point x="30" y="540" type="curve" smooth="yes"/>
      <point x="30" y="536"/>
      <point x="29" y="532"/>
      <point x="27" y="526" type="curve" smooth="yes"/>
    </contour>
  </outline>
</glyph>
<glyph name="uni061A" format="2">
  <unicode hex="061A"/>
  <anchor x="0" y="-89" name="_bottom"/>
  <anchor x="0" y="-89" name="_bottom2"/>
  <anchor x="0" y="-89" name="_bottom3"/>
  <anchor x="7" y="-188" name="bottom3"/>
  <outline>
    <contour>
      <point x="-55" y="-179" type="line"/>
      <point x="-29" y="-170" type="line" smooth="yes"/>
      <point x="-7" y="-163"/>
      <point x="19" y="-153"/>
      <point x="50" y="-140" type="curve" smooth="yes"/>
      <point x="66" y="-134"/>
      <point x="73" y="-122"/>
      <point x="73" y="-105" type="curve"/>
      <point x="72" y="-94" type="line"/>
      <point x="39" y="-107"/>
      <point x="-1" y="-121"/>
      <point x="-50" y="-136" type="curve"/>
    </contour>
  </outline>
</glyph>
<glyph name="uni0621" format="2">
  <advance width="437"/>
  <unicode hex="0621"/>
  <unicode hex="FE80"/>
  <anchor x="237" y="-86" name="bottom"/>
  <anchor x="206" y="326" name="top"/>
  <outline>
    <contour>
      <point x="68" y="-37" type="line"/>
      <point x="159" y="-16"/>
      <point x="195" y="-9"/>
      <point x="231" y="-3" type="curve" smooth="yes"/>
      <point x="267" y="3"/>
      <point x="324" y="9"/>
      <point x="372" y="14" type="curve" smooth="yes"/>
      <point x="397" y="16"/>
      <point x="419" y="33"/>
      <point x="419" y="62" type="curve" smooth="yes"/>
      <point x="419" y="74"/>
      <point x="414" y="86"/>
      <point x="404" y="97" type="curve"/>
      <point x="394" y="96"/>
      <point x="382" y="94"/>
      <point x="366" y="92" type="curve" smooth="yes"/>
      <point x="336" y="87"/>
      <point x="301" y="81"/>
      <point x="269" y="72" type="curve" smooth="yes"/>
      <point x="259" y="70"/>
      <point x="250" y="68"/>
      <point x="242" y="65" type="curve"/>
      <point x="223" y="70"/>
      <point x="199" y="79"/>
      <point x="184" y="87" type="curve" smooth="yes"/>
      <point x="161" y="100"/>
      <point x="146" y="118"/>
      <point x="135" y="143" type="curve"/>
      <point x="163" y="180"/>
      <point x="209" y="207"/>
      <point x="248" y="207" type="curve" smooth="yes"/>
      <point x="260" y="207"/>
      <point x="281" y="203"/>
      <point x="289" y="195" type="curve"/>
      <point x="288" y="185"/>
      <point x="286" y="178"/>
      <point x="281" y="170" type="curve"/>
      <point x="292" y="165"/>
      <point x="298" y="162"/>
      <point x="311" y="158" type="curve"/>
      <point x="318" y="170"/>
      <point x="323" y="188"/>
      <point x="323" y="203" type="curve" smooth="yes"/>
      <point x="323" y="252"/>
      <point x="291" y="277"/>
      <point x="244" y="277" type="curve" smooth="yes"/>
      <point x="228" y="277"/>
      <point x="213" y="273"/>
      <point x="199" y="267" type="curve" smooth="yes"/>
      <point x="141" y="242"/>
      <point x="97" y="172"/>
      <point x="97" y="116" type="curve" smooth="yes"/>
      <point x="97" y="93"/>
      <point x="109" y="71"/>
      <point x="127" y="53" type="curve" smooth="yes"/>
      <point x="131" y="49"/>
      <point x="138" y="44"/>
      <point x="146" y="39" type="curve"/>
      <point x="106" y="25"/>
      <point x="79" y="15"/>
      <point x="54" y="5" type="curve"/>
    </contour>
  </outline>
</glyph>
<glyph name="uni0627" format="2">
  <advance width="238"/>
  <unicode hex="0627"/>
  <unicode hex="FE8D"/>
  <anchor x="131" y="-52" name="bottom"/>
  <anchor x="122" y="720" name="top"/>
  <outline>
    <contour>
      <point x="104" y="0" type="curve"/>
      <point x="150" y="8" type="line"/>
      <point x="159" y="230"/>
      <point x="159" y="380"/>
      <point x="151" y="529" type="curve"/>
      <point x="178" y="552" type="line"/>
      <point x="162" y="599"/>
      <point x="148" y="645"/>
      <point x="143" y="671" type="curve"/>
      <point x="91" y="661"/>
      <point x="72" y="636"/>
      <point x="77" y="582" type="curve" smooth="yes"/>
      <point x="92" y="428"/>
      <point x="100" y="234"/>
    </contour>
  </outline>
</glyph>
<glyph name="uni062D" format="2">
  <advance width="636"/>
  <unicode hex="062D"/>
  <unicode hex="FEA1"/>
  <anchor x="346" y="-336" name="bottom"/>
  <anchor x="342" y="430" name="top"/>
  <outline>
    <contour>
      <point x="360" y="-287" type="curve" smooth="yes"/>
      <point x="438" y="-287"/>
      <point x="521" y="-264"/>
      <point x="619" y="-210" type="curve"/>
      <point x="607" y="-177" type="line"/>
      <point x="527" y="-195"/>
      <point x="445" y="-205"/>
      <point x="363" y="-205" type="curve" smooth="yes"/>
      <point x="210" y="-205"/>
      <point x="136" y="-147"/>
      <point x="136" y="-42" type="curve" smooth="yes"/>
      <point x="136" y="24"/>
      <point x="178" y="87"/>
      <point x="251" y="138" type="curve" smooth="yes"/>
      <point x="324" y="189"/>
      <point x="429" y="226"/>
      <point x="512" y="232" type="curve"/>
      <point x="530" y="232"/>
      <point x="549" y="233"/>
      <point x="568" y="236" type="curve"/>
      <point x="597" y="313" type="line"/>
      <point x="531" y="311" type="line" smooth="yes"/>
      <point x="469" y="311"/>
      <point x="413" y="329"/>
      <point x="357" y="346" type="curve" smooth="yes"/>
      <point x="301" y="363"/>
      <point x="246" y="381"/>
      <point x="189" y="381" type="curve" smooth="yes"/>
      <point x="117" y="381"/>
      <point x="68" y="347"/>
      <point x="68" y="297" type="curve" smooth="yes"/>
      <point x="68" y="281"/>
      <point x="75" y="266"/>
      <point x="83" y="259" type="curve"/>
      <point x="131" y="289"/>
      <point x="152" y="297"/>
      <point x="192" y="297" type="curve" smooth="yes"/>
      <point x="235" y="297"/>
      <point x="309" y="270"/>
      <point x="333" y="261" type="curve"/>
      <point x="291" y="245"/>
      <point x="252" y="221"/>
      <point x="216" y="190" type="curve" smooth="yes"/>
      <point x="144" y="127"/>
      <point x="101" y="41"/>
      <point x="101" y="-42" type="curve" smooth="yes"/>
      <point x="101" y="-201"/>
      <point x="195" y="-287"/>
    </contour>
  </outline>
</glyph>
<glyph name="uni062F" format="2">
  <advance width="414"/>
  <unicode hex="062F"/>
  <unicode hex="FEA9"/>
  <anchor x="214" y="-52" name="bottom"/>
  <anchor x="219" y="447" name="top"/>
  <outline>
    <contour>
      <point x="156" y="0" type="curve" smooth="yes"/>
      <point x="228" y="0"/>
      <point x="288" y="13"/>
      <point x="336" y="39" type="curve"/>
      <point x="359" y="81"/>
      <point x="372" y="121"/>
      <point x="372" y="141" type="curve" smooth="yes"/>
      <point x="372" y="171"/>
      <point x="357" y="208"/>
      <point x="337" y="251" type="curve" smooth="yes"/>
      <point x="321" y="288"/>
      <point x="290" y="354"/>
      <point x="273" y="398" type="curve"/>
      <point x="238" y="387"/>
      <point x="221" y="365"/>
      <point x="221" y="332" type="curve" smooth="yes"/>
      <point x="221" y="299"/>
      <point x="229" y="284"/>
      <point x="282" y="188" type="curve" smooth="yes"/>
      <point x="299" y="157"/>
      <point x="313" y="126"/>
      <point x="324" y="97" type="curve"/>
      <point x="278" y="83"/>
      <point x="232" y="76"/>
      <point x="188" y="76" type="curve" smooth="yes"/>
      <point x="125" y="76"/>
      <point x="85" y="89"/>
      <point x="52" y="116" type="curve"/>
      <point x="40" y="103"/>
      <point x="34" y="85"/>
      <point x="34" y="63" type="curve" smooth="yes"/>
      <point x="34" y="23"/>
      <point x="75" y="0"/>
    </contour>
  </outline>
</glyph>
<glyph name="uni0631" format="2">
  <advance width="372"/>
  <unicode hex="0631"/>
  <unicode hex="FEAD"/>
  <anchor x="100" y="-253" name="bottom"/>
  <anchor x="182" y="390" name="top"/>
  <outline>
    <contour>
      <point x="97" y="-204" type="curve" smooth="yes"/>
      <point x="138" y="-204"/>
      <point x="176" y="-192"/>
      <point x="211" y="-167" type="curve" smooth="yes"/>
      <point x="279" y="-118"/>
      <point x="321" y="-23"/>
      <point x="321" y="81" type="curve" smooth="yes"/>
      <point x="321" y="118"/>
      <point x="307" y="165"/>
      <point x="290" y="212" type="curve" smooth="yes"/>
      <point x="276" y="251"/>
      <point x="253" y="309"/>
      <point x="245" y="341" type="curve"/>
      <point x="208" y="323"/>
      <point x="187" y="305"/>
      <point x="187" y="271" type="curve" smooth="yes"/>
      <point x="187" y="238"/>
      <point x="207" y="193"/>
      <point x="253" y="112" type="curve" smooth="yes"/>
      <point x="265" y="91"/>
      <point x="275" y="70"/>
      <point x="284" y="49" type="curve"/>
      <point x="246" y="-65"/>
      <point x="174" y="-126"/>
      <point x="74" y="-126" type="curve" smooth="yes"/>
      <point x="47" y="-126"/>
      <point x="16" y="-122"/>
      <point x="-21" y="-115" type="curve"/>
      <point x="-34" y="-148" type="line"/>
      <point x="-2" y="-173"/>
      <point x="65" y="-204"/>
    </contour>
  </outline>
</glyph>
<glyph name="uni0633" format="2">
  <advance width="1013"/>
  <unicode hex="0633"/>
  <unicode hex="FEB1"/>
  <anchor x="718" y="-76" name="bottom"/>
  <anchor x="690" y="330" name="top"/>
  <outline>
    <contour>
      <point x="249" y="-262" type="curve" smooth="yes"/>
      <point x="297" y="-262"/>
      <point x="344" y="-250"/>
      <point x="389" y="-226" type="curve" smooth="yes"/>
      <point x="480" y="-179"/>
      <point x="535" y="-99"/>
      <point x="535" y="-17" type="curve" smooth="yes"/>
      <point x="535" y="2" type="line"/>
      <point x="547" y="1"/>
      <point x="559" y="0"/>
      <point x="571" y="0" type="curve" smooth="yes"/>
      <point x="605" y="0"/>
      <point x="634" y="2"/>
      <point x="658" y="7" type="curve" smooth="yes"/>
      <point x="683" y="12"/>
      <point x="698" y="18"/>
      <point x="703" y="27" type="curve" smooth="yes"/>
      <point x="712" y="43" type="line"/>
      <point x="784" y="10"/>
      <point x="838" y="0"/>
      <point x="924" y="0" type="curve"/>
      <point x="943" y="37"/>
      <point x="962" y="102"/>
      <point x="962" y="123" type="curve" smooth="yes"/>
      <point x="962" y="154"/>
      <point x="955" y="189"/>
      <point x="947" y="225" type="curve" smooth="yes"/>
      <point x="940" y="256"/>
      <point x="928" y="308"/>
      <point x="923" y="340" type="curve"/>
      <point x="882" y="317"/>
      <point x="857" y="285"/>
      <point x="857" y="256" type="curve" smooth="yes"/>
      <point x="857" y="246"/>
      <point x="864" y="223"/>
      <point x="877" y="188" type="curve" smooth="yes"/>
      <point x="895" y="143"/>
      <point x="907" y="106"/>
      <point x="915" y="79" type="curve"/>
      <point x="853" y="79"/>
      <point x="805" y="88"/>
      <point x="739" y="118" type="curve"/>
      <point x="758" y="183"/>
      <point x="773" y="225"/>
      <point x="782" y="245" type="curve"/>
      <point x="775" y="250"/>
      <point x="767" y="252"/>
      <point x="758" y="252" type="curve" smooth="yes"/>
      <point x="736" y="252"/>
      <point x="729" y="245"/>
      <point x="718" y="219" type="curve" smooth="yes"/>
      <point x="711" y="205"/>
      <point x="699" y="170"/>
      <point x="683" y="115" type="curve" smooth="yes"/>
      <point x="679" y="102"/>
      <point x="675" y="93"/>
      <point x="671" y="86" type="curve"/>
      <point x="649" y="80"/>
      <point x="620" y="76"/>
      <point x="583" y="76" type="curve" smooth="yes"/>
      <point x="563" y="76"/>
      <point x="543" y="79"/>
      <point x="523" y="85" type="curve"/>
      <point x="506" y="170"/>
      <point x="501" y="198"/>
      <point x="498" y="226" type="curve"/>
      <point x="450" y="197"/>
      <point x="433" y="171"/>
      <point x="433" y="137" type="curve" smooth="yes"/>
      <point x="433" y="105"/>
      <point x="454" y="41"/>
      <point x="498" y="-54" type="curve"/>
      <point x="465" y="-125"/>
      <point x="350" y="-179"/>
      <point x="251" y="-179" type="curve" smooth="yes"/>
      <point x="164" y="-179"/>
      <point x="113" y="-122"/>
      <point x="113" y="-24" type="curve" smooth="yes"/>
      <point x="113" y="-6"/>
      <point x="117" y="18"/>
      <point x="124" y="47" type="curve"/>
      <point x="87" y="56" type="line"/>
      <point x="71" y="-10"/>
      <point x="68" y="-35"/>
      <point x="68" y="-74" type="curve" smooth="yes"/>
      <point x="68" y="-194"/>
      <point x="135" y="-262"/>
    </contour>
  </outline>
</glyph>
<glyph name="uni0635" format="2">
  <advance width="1096"/>
  <unicode hex="0635"/>
  <unicode hex="FEB9"/>
  <anchor x="791" y="-52" name="bottom"/>
  <anchor x="719" y="406" name="top"/>
  <outline>
    <contour>
      <point x="249" y="-262" type="curve" smooth="yes"/>
      <point x="297" y="-262"/>
      <point x="344" y="-250"/>
      <point x="389" y="-226" type="curve" smooth="yes"/>
      <point x="480" y="-179"/>
      <point x="535" y="-99"/>
      <point x="535" y="-17" type="curve" smooth="yes"/>
      <point x="535" y="-3"/>
      <point x="534" y="10"/>
      <point x="533" y="24" type="curve"/>
      <point x="592" y="8"/>
      <point x="656" y="0"/>
      <point x="723" y="0" type="curve" smooth="yes"/>
      <point x="781" y="0"/>
      <point x="836" y="9"/>
      <point x="888" y="28" type="curve" smooth="yes"/>
      <point x="993" y="66"/>
      <point x="1044" y="130"/>
      <point x="1044" y="211" type="curve" smooth="yes"/>
      <point x="1044" y="229"/>
      <point x="1034" y="249"/>
      <point x="1014" y="272" type="curve" smooth="yes"/>
      <point x="974" y="319"/>
      <point x="909" y="357"/>
      <point x="868" y="357" type="curve" smooth="yes"/>
      <point x="780" y="357"/>
      <point x="675" y="278"/>
      <point x="541" y="103" type="curve"/>
      <point x="518" y="111" type="line"/>
      <point x="507" y="168"/>
      <point x="501" y="207"/>
      <point x="498" y="226" type="curve"/>
      <point x="450" y="197"/>
      <point x="433" y="171"/>
      <point x="433" y="137" type="curve" smooth="yes"/>
      <point x="433" y="105"/>
      <point x="454" y="41"/>
      <point x="498" y="-54" type="curve"/>
      <point x="465" y="-125"/>
      <point x="350" y="-179"/>
      <point x="251" y="-179" type="curve" smooth="yes"/>
      <point x="164" y="-179"/>
      <point x="113" y="-122"/>
      <point x="113" y="-24" type="curve" smooth="yes"/>
      <point x="113" y="-6"/>
      <point x="117" y="18"/>
      <point x="124" y="47" type="curve"/>
      <point x="87" y="56" type="line"/>
      <point x="71" y="-10"/>
      <point x="68" y="-35"/>
      <point x="68" y="-74" type="curve" smooth="yes"/>
      <point x="68" y="-194"/>
      <point x="135" y="-262"/>
    </contour>
    <contour>
      <point x="732" y="76" type="curve" smooth="yes"/>
      <point x="691" y="76"/>
      <point x="643" y="81"/>
      <point x="588" y="90" type="curve"/>
      <point x="683" y="204"/>
      <point x="778" y="273"/>
      <point x="843" y="273" type="curve" smooth="yes"/>
      <point x="898" y="273"/>
      <point x="959" y="232"/>
      <point x="1000" y="162" type="curve"/>
      <point x="908" y="105"/>
      <point x="819" y="76"/>
    </contour>
  </outline>
</glyph>
<glyph name="uni0637" format="2">
  <advance width="769"/>
  <unicode hex="0637"/>
  <unicode hex="FEC1"/>
  <anchor x="392" y="-52" name="bottom"/>
  <anchor x="531" y="435" name="top"/>
  <outline>
    <contour>
      <point x="396" y="0" type="curve" smooth="yes"/>
      <point x="454" y="0"/>
      <point x="509" y="9"/>
      <point x="561" y="28" type="curve" smooth="yes"/>
      <point x="666" y="65"/>
      <point x="718" y="129"/>
      <point x="718" y="211" type="curve" smooth="yes"/>
      <point x="718" y="230"/>
      <point x="707" y="251"/>
      <point x="686" y="275" type="curve" smooth="yes"/>
      <point x="642" y="323"/>
      <point x="579" y="357"/>
      <point x="542" y="357" type="curve" smooth="yes"/>
      <point x="476" y="357"/>
      <point x="396" y="307"/>
      <point x="302" y="207" type="curve"/>
      <point x="301" y="232"/>
      <point x="300" y="258"/>
      <point x="298" y="286" type="curve" smooth="yes"/>
      <point x="295" y="321"/>
      <point x="279" y="466"/>
      <point x="272" y="529" type="curve"/>
      <point x="299" y="552" type="line"/>
      <point x="281" y="608"/>
      <point x="271" y="639"/>
      <point x="264" y="671" type="curve"/>
      <point x="217" y="662"/>
      <point x="197" y="637"/>
      <point x="197" y="592" type="curve" smooth="yes"/>
      <point x="197" y="540"/>
      <point x="219" y="396"/>
      <point x="262" y="162" type="curve"/>
      <point x="243" y="139"/>
      <point x="224" y="115"/>
      <point x="204" y="90" type="curve"/>
      <point x="152" y="98"/>
      <point x="102" y="109"/>
      <point x="53" y="121" type="curve"/>
      <point x="42" y="86" type="line"/>
      <point x="82" y="58"/>
      <point x="157" y="19"/>
      <point x="192" y="12" type="curve" smooth="yes"/>
      <point x="226" y="6"/>
      <point x="315" y="0"/>
    </contour>
    <contour>
      <point x="406" y="76" type="curve" smooth="yes"/>
      <point x="356" y="76"/>
      <point x="306" y="78"/>
      <point x="255" y="83" type="curve"/>
      <point x="354" y="203"/>
      <point x="451" y="273"/>
      <point x="517" y="273" type="curve" smooth="yes"/>
      <point x="572" y="273"/>
      <point x="633" y="232"/>
      <point x="673" y="162" type="curve"/>
      <point x="582" y="105"/>
      <point x="493" y="76"/>
    </contour>
  </outline>
</glyph>
<glyph name="uni0639" format="2">
  <advance width="604"/>
  <unicode hex="0639"/>
  <unicode hex="FEC9"/>
  <anchor x="353" y="-334" name="bottom"/>
  <anchor x="224" y="513" name="top"/>
  <outline>
    <contour>
      <point x="372" y="-286" type="curve" smooth="yes"/>
      <point x="451" y="-286"/>
      <point x="537" y="-260"/>
      <point x="629" y="-209" type="curve"/>
      <point x="618" y="-175" type="line"/>
      <point x="567" y="-187"/>
      <point x="520" y="-195"/>
      <point x="468" y="-199" type="curve" smooth="yes"/>
      <point x="439" y="-202"/>
      <point x="408" y="-203"/>
      <point x="375" y="-203" type="curve" smooth="yes"/>
      <point x="227" y="-203"/>
      <point x="150" y="-149"/>
      <point x="150" y="-54" type="curve" smooth="yes"/>
      <point x="150" y="-25"/>
      <point x="159" y="2"/>
      <point x="175" y="29" type="curve" smooth="yes"/>
      <point x="205" y="76"/>
      <point x="260" y="117"/>
      <point x="360" y="160" type="curve" smooth="yes"/>
      <point x="395" y="173"/>
      <point x="425" y="186"/>
      <point x="444" y="200" type="curve" smooth="yes"/>
      <point x="464" y="214"/>
      <point x="471" y="229"/>
      <point x="471" y="246" type="curve" smooth="yes"/>
      <point x="471" y="257"/>
      <point x="467" y="267"/>
      <point x="460" y="277" type="curve"/>
      <point x="392" y="255"/>
      <point x="334" y="229"/>
      <point x="285" y="199" type="curve"/>
      <point x="187" y="215"/>
      <point x="130" y="269"/>
      <point x="130" y="348" type="curve"/>
      <point x="174" y="372"/>
      <point x="217" y="384"/>
      <point x="258" y="384" type="curve" smooth="yes"/>
      <point x="282" y="384"/>
      <point x="313" y="378"/>
      <point x="353" y="366" type="curve"/>
      <point x="370" y="398" type="line"/>
      <point x="311" y="446"/>
      <point x="280" y="464"/>
      <point x="233" y="464" type="curve" smooth="yes"/>
      <point x="206" y="464"/>
      <point x="180" y="455"/>
      <point x="156" y="435" type="curve" smooth="yes"/>
      <point x="106" y="397"/>
      <point x="73" y="328"/>
      <point x="73" y="271" type="curve" smooth="yes"/>
      <point x="73" y="249"/>
      <point x="78" y="229"/>
      <point x="90" y="210" type="curve" smooth="yes"/>
      <point x="113" y="172"/>
      <point x="154" y="141"/>
      <point x="195" y="129" type="curve"/>
      <point x="141" y="71"/>
      <point x="114" y="5"/>
      <point x="114" y="-70" type="curve" smooth="yes"/>
      <point x="114" y="-201"/>
      <point x="216" y="-286"/>
    </contour>
  </outline>
</glyph>
<glyph name="uni0640" format="2">
  <advance width="210"/>
  <unicode hex="0640"/>
  <anchor x="99" y="-144" name="bottom"/>
  <anchor x="99" y="452" name="top"/>
  <outline>
    <contour>
      <point x="0" y="0" type="curve" smooth="yes"/>
      <point x="210" y="0" type="line" smooth="yes"/>
      <point x="216" y="0"/>
      <point x="219" y="3"/>
      <point x="219" y="8" type="curve" smooth="yes"/>
      <point x="219" y="68" type="line" smooth="yes"/>
      <point x="219" y="73"/>
      <point x="216" y="76"/>
      <point x="210" y="76" type="curve" smooth="yes"/>
      <point x="0" y="76" type="line" smooth="yes"/>
      <point x="-6" y="76"/>
      <point x="-8" y="73"/>
      <point x="-8" y="68" type="curve" smooth="yes"/>
      <point x="-8" y="8" type="line" smooth="yes"/>
      <point x="-8" y="3"/>
      <point x="-6" y="0"/>
    </contour>
  </outline>
</glyph>
<glyph name="uni0643" format="2">
  <advance width="558"/>
  <unicode hex="0643"/>
  <unicode hex="FED9"/>
  <anchor x="262" y="-52" name="bottom"/>
  <anchor x="231" y="418" name="top"/>
  <outline>
    <contour>
      <point x="226" y="0" type="curve" smooth="yes"/>
      <point x="309" y="0"/>
      <point x="388" y="6"/>
      <point x="462" y="17" type="curve"/>
      <point x="483" y="44"/>
      <point x="498" y="71"/>
      <point x="498" y="108" type="curve" smooth="yes"/>
      <point x="498" y="147"/>
      <point x="485" y="287"/>
      <point x="459" y="530" type="curve"/>
      <point x="485" y="552" type="line"/>
      <point x="473" y="592"/>
      <point x="456" y="646"/>
      <point x="450" y="671" type="curve"/>
      <point x="402" y="660"/>
      <point x="384" y="636"/>
      <point x="384" y="592" type="curve" smooth="yes"/>
      <point x="384" y="552"/>
      <point x="402" y="419"/>
      <point x="419" y="333" type="curve" smooth="yes"/>
      <point x="433" y="254"/>
      <point x="447" y="175"/>
      <point x="460" y="96" type="curve"/>
      <point x="388" y="83"/>
      <point x="316" y="76"/>
      <point x="245" y="76" type="curve" smooth="yes"/>
      <point x="173" y="76"/>
      <point x="85" y="85"/>
      <point x="33" y="97" type="curve"/>
      <point x="25" y="84"/>
      <point x="17" y="43"/>
      <point x="17" y="20" type="curve" smooth="yes"/>
      <point x="17" y="14"/>
      <point x="41" y="10"/>
      <point x="90" y="6" type="curve" smooth="yes"/>
      <point x="138" y="2"/>
      <point x="184" y="0"/>
    </contour>
    <contour>
      <point x="180" y="194" type="curve" smooth="yes"/>
      <point x="228" y="194"/>
      <point x="296" y="247"/>
      <point x="296" y="274" type="curve" smooth="yes"/>
      <point x="296" y="282"/>
      <point x="294" y="288"/>
      <point x="287" y="293" type="curve" smooth="yes"/>
      <point x="270" y="305"/>
      <point x="227" y="304"/>
      <point x="205" y="315" type="curve"/>
      <point x="209" y="336"/>
      <point x="240" y="364"/>
      <point x="256" y="364" type="curve" smooth="yes"/>
      <point x="261" y="364"/>
      <point x="265" y="362"/>
      <point x="268" y="359" type="curve"/>
      <point x="284" y="366" type="line"/>
      <point x="279" y="384"/>
      <point x="268" y="394"/>
      <point x="250" y="394" type="curve" smooth="yes"/>
      <point x="213" y="394"/>
      <point x="172" y="348"/>
      <point x="172" y="316" type="curve" smooth="yes"/>
      <point x="172" y="276"/>
      <point x="208" y="269"/>
      <point x="271" y="268" type="curve"/>
      <point x="267" y="260"/>
      <point x="259" y="253"/>
      <point x="249" y="246" type="curve" smooth="yes"/>
      <point x="226" y="230"/>
      <point x="192" y="217"/>
      <point x="157" y="214" type="curve"/>
      <point x="157" y="203"/>
      <point x="163" y="194"/>
    </contour>
  </outline>
</glyph>
<glyph name="uni0644" format="2">
  <advance width="595"/>
  <unicode hex="0644"/>
  <unicode hex="FEDD"/>
  <anchor x="308" y="-311" name="bottom"/>
  <anchor x="399" y="720" name="top"/>
  <outline>
    <contour>
      <point x="249" y="-262" type="curve" smooth="yes"/>
      <point x="297" y="-262"/>
      <point x="343" y="-250"/>
      <point x="388" y="-226" type="curve" smooth="yes"/>
      <point x="478" y="-179"/>
      <point x="533" y="-99"/>
      <point x="533" y="-17" type="curve" smooth="yes"/>
      <point x="533" y="42"/>
      <point x="526" y="120"/>
      <point x="513" y="220" type="curve" smooth="yes"/>
      <point x="479" y="532" type="line"/>
      <point x="502" y="552" type="line"/>
      <point x="490" y="591"/>
      <point x="475" y="641"/>
      <point x="466" y="671" type="curve"/>
      <point x="421" y="661"/>
      <point x="401" y="638"/>
      <point x="401" y="593" type="curve" smooth="yes"/>
      <point x="401" y="527"/>
      <point x="442" y="278"/>
      <point x="470" y="107" type="curve" smooth="yes"/>
      <point x="496" y="-54" type="line"/>
      <point x="485" y="-77"/>
      <point x="466" y="-98"/>
      <point x="440" y="-117" type="curve" smooth="yes"/>
      <point x="388" y="-156"/>
      <point x="315" y="-179"/>
      <point x="251" y="-179" type="curve" smooth="yes"/>
      <point x="164" y="-179"/>
      <point x="113" y="-122"/>
      <point x="113" y="-24" type="curve" smooth="yes"/>
      <point x="113" y="-6"/>
      <point x="117" y="18"/>
      <point x="124" y="47" type="curve"/>
      <point x="87" y="56" type="line"/>
      <point x="71" y="-10"/>
      <point x="68" y="-35"/>
      <point x="68" y="-74" type="curve" smooth="yes"/>
      <point x="68" y="-194"/>
      <point x="135" y="-262"/>
    </contour>
  </outline>
</glyph>
<glyph name="uni0645" format="2">
  <advance width="489"/>
  <unicode hex="0645"/>
  <unicode hex="FEE1"/>
  <anchor x="293" y="-50" name="bottom"/>
  <anchor x="222" y="398" name="top"/>
  <outline>
    <contour>
      <point x="87" y="-305" type="curve"/>
      <point x="113" y="-295"/>
      <point x="135" y="-282"/>
      <point x="154" y="-268" type="curve"/>
      <point x="148" y="-219"/>
      <point x="139" y="-162"/>
      <point x="126" y="-97" type="curve" smooth="yes"/>
      <point x="119" y="-58"/>
      <point x="113" y="-20"/>
      <point x="106" y="20" type="curve"/>
      <point x="180" y="45"/>
      <point x="271" y="58"/>
      <point x="412" y="58" type="curve"/>
      <point x="450" y="160" type="line"/>
      <point x="415" y="186"/>
      <point x="382" y="224"/>
      <point x="339" y="284" type="curve" smooth="yes"/>
      <point x="305" y="329"/>
      <point x="278" y="349"/>
      <point x="248" y="349" type="curve" smooth="yes"/>
      <point x="192" y="349"/>
      <point x="139" y="298"/>
      <point x="104" y="208" type="curve"/>
      <point x="136" y="192" type="line"/>
      <point x="170" y="245"/>
      <point x="197" y="266"/>
      <point x="229" y="266" type="curve" smooth="yes"/>
      <point x="259" y="266"/>
      <point x="295" y="231"/>
      <point x="337" y="162" type="curve"/>
      <point x="358" y="131" type="line"/>
      <point x="241" y="131"/>
      <point x="173" y="120"/>
      <point x="100" y="98" type="curve"/>
      <point x="83" y="63"/>
      <point x="68" y="30"/>
      <point x="68" y="5" type="curve" smooth="yes"/>
      <point x="68" y="-10"/>
      <point x="71" y="-51"/>
      <point x="77" y="-118" type="curve" smooth="yes"/>
      <point x="83" y="-191"/>
      <point x="87" y="-254"/>
    </contour>
  </outline>
</glyph>
<glyph name="uni0647" format="2">
  <advance width="408"/>
  <unicode hex="0647"/>
  <unicode hex="FEE9"/>
  <anchor x="215" y="-52" name="bottom"/>
  <anchor x="169" y="457" name="top"/>
  <outline>
    <contour>
      <point x="190" y="0" type="curve" smooth="yes"/>
      <point x="228" y="0"/>
      <point x="261" y="9"/>
      <point x="289" y="28" type="curve" smooth="yes"/>
      <point x="317" y="47"/>
      <point x="357" y="136"/>
      <point x="357" y="176" type="curve" smooth="yes"/>
      <point x="357" y="203"/>
      <point x="347" y="234"/>
      <point x="328" y="267" type="curve" smooth="yes"/>
      <point x="289" y="335"/>
      <point x="228" y="387"/>
      <point x="168" y="408" type="curve"/>
      <point x="153" y="402"/>
      <point x="142" y="381"/>
      <point x="142" y="360" type="curve" smooth="yes"/>
      <point x="142" y="345"/>
      <point x="146" y="328"/>
      <point x="167" y="316" type="curve"/>
      <point x="98" y="251"/>
      <point x="68" y="188"/>
      <point x="68" y="126" type="curve" smooth="yes"/>
      <point x="68" y="46"/>
      <point x="116" y="0"/>
    </contour>
    <contour>
      <point x="201" y="80" type="curve" smooth="yes"/>
      <point x="146" y="80"/>
      <point x="114" y="108"/>
      <point x="114" y="155" type="curve" smooth="yes"/>
      <point x="114" y="194"/>
      <point x="145" y="248"/>
      <point x="195" y="294" type="curve"/>
      <point x="256" y="247"/>
      <point x="294" y="190"/>
      <point x="308" y="124" type="curve"/>
      <point x="286" y="104"/>
      <point x="237" y="80"/>
    </contour>
  </outline>
</glyph>
<glyph name="uni0648" format="2">
  <advance width="468"/>
  <unicode hex="0648"/>
  <unicode hex="FEED"/>
  <anchor x="193" y="-252" name="bottom"/>
  <anchor x="256" y="389" name="top"/>
  <outline>
    <contour>
      <point x="193" y="-203" type="curve" smooth="yes"/>
      <point x="232" y="-203"/>
      <point x="269" y="-190"/>
      <point x="303" y="-165" type="curve" smooth="yes"/>
      <point x="371" y="-114"/>
      <point x="417" y="-14"/>
      <point x="417" y="81" type="curve" smooth="yes"/>
      <point x="417" y="122"/>
      <point x="410" y="164"/>
      <point x="394" y="207" type="curve" smooth="yes"/>
      <point x="363" y="292"/>
      <point x="313" y="340"/>
      <point x="261" y="340" type="curve" smooth="yes"/>
      <point x="239" y="340"/>
      <point x="216" y="330"/>
      <point x="194" y="310" type="curve" smooth="yes"/>
      <point x="150" y="269"/>
      <point x="120" y="197"/>
      <point x="120" y="129" type="curve" smooth="yes"/>
      <point x="120" y="51"/>
      <point x="168" y="0"/>
      <point x="245" y="0" type="curve" smooth="yes"/>
      <point x="292" y="0"/>
      <point x="340" y="20"/>
      <point x="379" y="57" type="curve"/>
      <point x="380" y="49" type="line"/>
      <point x="343" y="-65"/>
      <point x="270" y="-125"/>
      <point x="170" y="-125" type="curve" smooth="yes"/>
      <point x="125" y="-125"/>
      <point x="84" y="-119"/>
      <point x="48" y="-106" type="curve"/>
      <point x="34" y="-139" type="line"/>
      <point x="70" y="-170"/>
      <point x="150" y="-203"/>
    </contour>
    <contour>
      <point x="269" y="82" type="curve" smooth="yes"/>
      <point x="198" y="82"/>
      <point x="158" y="109"/>
      <point x="158" y="157" type="curve" smooth="yes"/>
      <point x="158" y="170"/>
      <point x="163" y="185"/>
      <point x="171" y="200" type="curve" smooth="yes"/>
      <point x="189" y="232"/>
      <point x="218" y="255"/>
      <point x="246" y="255" type="curve" smooth="yes"/>
      <point x="260" y="255"/>
      <point x="274" y="250"/>
      <point x="288" y="240" type="curve" smooth="yes"/>
      <point x="322" y="217"/>
      <point x="354" y="167"/>
      <point x="370" y="104" type="curve"/>
      <point x="323" y="85"/>
      <point x="302" y="82"/>
    </contour>
  </outline>
</glyph>
<glyph name="uni0649" format="2">
  <advance width="618"/>
  <unicode hex="0649"/>
  <unicode hex="FEEF"/>
  <anchor x="273" y="-311" name="bottom"/>
  <anchor x="205" y="241" name="top"/>
  <outline>
    <contour>
      <point x="249" y="-262" type="curve" smooth="yes"/>
      <point x="293" y="-262"/>
      <point x="342" y="-251"/>
      <point x="394" y="-229" type="curve" smooth="yes"/>
      <point x="499" y="-185"/>
      <point x="583" y="-108"/>
      <point x="583" y="-47" type="curve" smooth="yes"/>
      <point x="583" y="-16"/>
      <point x="575" y="5"/>
      <point x="553" y="21" type="curve" smooth="yes"/>
      <point x="533" y="34"/>
      <point x="500" y="42"/>
      <point x="452" y="49" type="curve" smooth="yes"/>
      <point x="398" y="57"/>
      <point x="361" y="69"/>
      <point x="342" y="87" type="curve"/>
      <point x="347" y="112"/>
      <point x="360" y="137"/>
      <point x="380" y="164" type="curve" smooth="yes"/>
      <point x="421" y="216"/>
      <point x="481" y="258"/>
      <point x="516" y="258" type="curve" smooth="yes"/>
      <point x="532" y="258"/>
      <point x="539" y="256"/>
      <point x="548" y="243" type="curve"/>
      <point x="584" y="253" type="line"/>
      <point x="572" y="307"/>
      <point x="552" y="340"/>
      <point x="507" y="340" type="curve" smooth="yes"/>
      <point x="481" y="340"/>
      <point x="452" y="326"/>
      <point x="419" y="297" type="curve" smooth="yes"/>
      <point x="354" y="240"/>
      <point x="306" y="152"/>
      <point x="306" y="91" type="curve" smooth="yes"/>
      <point x="306" y="61"/>
      <point x="312" y="37"/>
      <point x="325" y="18" type="curve" smooth="yes"/>
      <point x="351" y="-20"/>
      <point x="394" y="-33"/>
      <point x="495" y="-41" type="curve" smooth="yes"/>
      <point x="513" y="-43"/>
      <point x="530" y="-45"/>
      <point x="547" y="-48" type="curve"/>
      <point x="537" y="-70"/>
      <point x="516" y="-91"/>
      <point x="484" y="-111" type="curve" smooth="yes"/>
      <point x="421" y="-151"/>
      <point x="322" y="-179"/>
      <point x="251" y="-179" type="curve" smooth="yes"/>
      <point x="164" y="-179"/>
      <point x="113" y="-122"/>
      <point x="113" y="-24" type="curve" smooth="yes"/>
      <point x="113" y="-6"/>
      <point x="117" y="18"/>
      <point x="124" y="47" type="curve"/>
      <point x="87" y="56" type="line"/>
      <point x="71" y="-10"/>
      <point x="68" y="-35"/>
      <point x="68" y="-74" type="curve" smooth="yes"/>
      <point x="68" y="-194"/>
      <point x="135" y="-262"/>
    </contour>
  </outline>
</glyph>
<glyph name="uni064B" format="2">
  <unicode hex="064B"/>
  <anchor x="85" y="450" name="_top"/>
  <anchor x="85" y="450" name="_top2"/>
  <anchor x="85" y="450" name="_top3"/>
  <anchor x="63" y="642" name="top3"/>
  <outline>
    <contour>
      <point x="-11" y="449" type="line"/>
      <point x="56" y="470"/>
      <point x="109" y="489"/>
      <point x="148" y="507" type="curve" smooth="yes"/>
      <point x="163" y="514"/>
      <point x="171" y="526"/>
      <point x="171" y="543" type="curve"/>
      <point x="170" y="553" type="line"/>
      <point x="100" y="526"/>
      <point x="41" y="506"/>
      <point x="-7" y="492" type="curve"/>
    </contour>
    <contour>
      <point x="-21" y="521" type="line"/>
      <point x="43" y="539"/>
      <point x="96" y="556"/>
      <point x="137" y="574" type="curve" smooth="yes"/>
      <point x="152" y="581"/>
      <point x="159" y="593"/>
      <point x="159" y="611" type="curve"/>
      <point x="158" y="622" type="line"/>
      <point x="99" y="599"/>
      <point x="40" y="578"/>
      <point x="-18" y="561" type="curve"/>
    </contour>
  </outline>
</glyph>
<glyph name="uni064C" format="2">
  <unicode hex="064C"/>
  <anchor x="90" y="436" name="_top"/>
  <anchor x="90" y="436" name="_top2"/>
  <anchor x="90" y="436" name="_top3"/>
  <anchor x="77" y="630" name="top3"/>
  <outline>
    <contour>
      <point x="17" y="436" type="curve" smooth="yes"/>
      <point x="35" y="436"/>
      <point x="80" y="462"/>
      <point x="106" y="488" type="curve"/>
      <point x="120" y="487" type="line" smooth="yes"/>
      <point x="147" y="487"/>
      <point x="159" y="494"/>
      <point x="160" y="515" type="curve"/>
      <point x="150" y="515"/>
      <point x="140" y="515"/>
      <point x="129" y="517" type="curve"/>
      <point x="132" y="522"/>
      <point x="133" y="531"/>
      <point x="133" y="542" type="curve" smooth="yes"/>
      <point x="133" y="565"/>
      <point x="130" y="581"/>
      <point x="123" y="591" type="curve" smooth="yes"/>
      <point x="115" y="601"/>
      <point x="108" y="606"/>
      <point x="99" y="606" type="curve" smooth="yes"/>
      <point x="72" y="606"/>
      <point x="41" y="575"/>
      <point x="41" y="545" type="curve" smooth="yes"/>
      <point x="41" y="525"/>
      <point x="52" y="511"/>
      <point x="78" y="497" type="curve"/>
      <point x="62" y="485"/>
      <point x="42" y="476"/>
      <point x="18" y="470" type="curve"/>
      <point x="21" y="479"/>
      <point x="22" y="488"/>
      <point x="22" y="496" type="curve" smooth="yes"/>
      <point x="22" y="520"/>
      <point x="13" y="532"/>
      <point x="-4" y="532" type="curve" smooth="yes"/>
      <point x="-18" y="532"/>
      <point x="-35" y="519"/>
      <point x="-55" y="493" type="curve"/>
      <point x="-47" y="483" type="line"/>
      <point x="-29" y="492"/>
      <point x="-18" y="496"/>
      <point x="-14" y="496" type="curve" smooth="yes"/>
      <point x="-7" y="496"/>
      <point x="-4" y="491"/>
      <point x="-4" y="481" type="curve"/>
      <point x="-8" y="455" type="line"/>
      <point x="-8" y="452"/>
      <point x="13" y="436"/>
    </contour>
    <contour>
      <point x="104" y="522" type="line"/>
      <point x="78" y="532"/>
      <point x="65" y="544"/>
      <point x="65" y="559" type="curve" smooth="yes"/>
      <point x="65" y="565"/>
      <point x="75" y="575"/>
      <point x="87" y="575" type="curve" smooth="yes"/>
      <point x="102" y="575"/>
      <point x="108" y="558"/>
      <point x="108" y="540" type="curve" smooth="yes"/>
      <point x="108" y="536"/>
      <point x="108" y="532"/>
      <point x="106" y="527" type="curve" smooth="yes"/>
    </contour>
  </outline>
</glyph>
<glyph name="uni064D" format="2">
  <unicode hex="064D"/>
  <anchor x="79" y="6" name="_bottom"/>
  <anchor x="79" y="6" name="_bottom2"/>
  <anchor x="79" y="6" name="_bottom3"/>
  <anchor x="102" y="-134" name="bottom3"/>
  <outline>
    <contour>
      <point x="0" y="-82" type="line"/>
      <point x="79" y="-57"/>
      <point x="114" y="-45"/>
      <point x="132" y="-37" type="curve" smooth="yes"/>
      <point x="163" y="-25"/>
      <point x="175" y="-20"/>
      <point x="175" y="2" type="curve" smooth="yes"/>
      <point x="174" y="8" type="line"/>
      <point x="124" y="-12"/>
      <point x="66" y="-31"/>
      <point x="3" y="-49" type="curve"/>
    </contour>
    <contour>
      <point x="7" y="-134" type="line"/>
      <point x="64" y="-117"/>
      <point x="91" y="-108"/>
      <point x="121" y="-97" type="curve" smooth="yes"/>
      <point x="163" y="-82"/>
      <point x="182" y="-76"/>
      <point x="182" y="-50" type="curve" smooth="yes"/>
      <point x="182" y="-44" type="line"/>
      <point x="131" y="-64"/>
      <point x="74" y="-83"/>
      <point x="10" y="-101" type="curve"/>
    </contour>
  </outline>
</glyph>
<glyph name="uni064E" format="2">
  <unicode hex="064E"/>
  <anchor x="90" y="452" name="_top"/>
  <anchor x="90" y="452" name="_top2"/>
  <anchor x="90" y="452" name="_top3"/>
  <anchor x="77" y="576" name="top3"/>
  <outline>
    <contour>
      <point x="-11" y="452" type="line"/>
      <point x="59" y="473"/>
      <point x="112" y="493"/>
      <point x="148" y="510" type="curve" smooth="yes"/>
      <point x="164" y="517"/>
      <point x="171" y="529"/>
      <point x="171" y="545" type="curve"/>
      <point x="170" y="556" type="line"/>
      <point x="137" y="543"/>
      <point x="78" y="523"/>
      <point x="-6" y="495" type="curve"/>
    </contour>
  </outline>
</glyph>
<glyph name="uni064F" format="2">
  <unicode hex="064F"/>
  <anchor x="74" y="434" name="_top"/>
  <anchor x="74" y="434" name="_top2"/>
  <anchor x="74" y="434" name="_top3"/>
  <anchor x="58" y="630" name="top3"/>
  <outline>
    <contour>
      <point x="0" y="434" type="curve" smooth="yes"/>
      <point x="25" y="434"/>
      <point x="61" y="454"/>
      <point x="95" y="488" type="curve"/>
      <point x="107" y="487" type="line"/>
      <point x="134" y="487"/>
      <point x="146" y="494"/>
      <point x="147" y="515" type="curve"/>
      <point x="116" y="517" type="line"/>
      <point x="119" y="525"/>
      <point x="121" y="533"/>
      <point x="121" y="542" type="curve" smooth="yes"/>
      <point x="121" y="566"/>
      <point x="116" y="584"/>
      <point x="107" y="595" type="curve" smooth="yes"/>
      <point x="102" y="602"/>
      <point x="95" y="606"/>
      <point x="86" y="606" type="curve" smooth="yes"/>
      <point x="60" y="606"/>
      <point x="28" y="576"/>
      <point x="28" y="544" type="curve" smooth="yes"/>
      <point x="28" y="524"/>
      <point x="41" y="508"/>
      <point x="65" y="497" type="curve"/>
      <point x="37" y="478"/>
      <point x="6" y="466"/>
      <point x="-28" y="459" type="curve"/>
      <point x="-28" y="443"/>
      <point x="-17" y="434"/>
    </contour>
    <contour>
      <point x="91" y="522" type="line"/>
      <point x="65" y="532"/>
      <point x="52" y="544"/>
      <point x="52" y="559" type="curve" smooth="yes"/>
      <point x="52" y="565"/>
      <point x="62" y="574"/>
      <point x="74" y="574" type="curve" smooth="yes"/>
      <point x="89" y="574"/>
      <point x="96" y="558"/>
      <point x="96" y="540" type="curve" smooth="yes"/>
      <point x="96" y="536"/>
      <point x="95" y="532"/>
      <point x="93" y="527" type="curve" smooth="yes"/>
    </contour>
  </outline>
</glyph>
<glyph name="uni0650" format="2">
  <unicode hex="0650"/>
  <anchor x="70" y="-6" name="_bottom"/>
  <anchor x="70" y="-6" name="_bottom2"/>
  <anchor x="70" y="-6" name="_bottom3"/>
  <anchor x="86" y="-109" name="bottom3"/>
  <outline>
    <contour>
      <point x="-11" y="-109" type="line"/>
      <point x="59" y="-88"/>
      <point x="112" y="-68"/>
      <point x="148" y="-51" type="curve" smooth="yes"/>
      <point x="164" y="-44"/>
      <point x="171" y="-32"/>
      <point x="171" y="-15" type="curve"/>
      <point x="170" y="-5" type="line"/>
      <point x="137" y="-18"/>
      <point x="78" y="-38"/>
      <point x="-6" y="-66" type="curve"/>
    </contour>
  </outline>
</glyph>
<glyph name="uni0651" format="2">
  <unicode hex="0651"/>
  <anchor x="69" y="438" name="_top"/>
  <anchor x="69" y="438" name="_top2"/>
  <anchor x="69" y="438" name="_top3"/>
  <anchor x="54" y="593" name="top3"/>
  <outline>
    <contour>
      <point x="24" y="448" type="curve" smooth="yes"/>
      <point x="42" y="448"/>
      <point x="59" y="460"/>
      <point x="68" y="482" type="curve"/>
      <point x="76" y="473"/>
      <point x="86" y="468"/>
      <point x="100" y="468" type="curve" smooth="yes"/>
      <point x="126" y="468"/>
      <point x="148" y="493"/>
      <point x="148" y="524" type="curve" smooth="yes"/>
      <point x="148" y="534"/>
      <point x="144" y="560"/>
      <point x="132" y="583" type="curve"/>
      <point x="120" y="580"/>
      <point x="108" y="567"/>
      <point x="108" y="556" type="curve"/>
      <point x="110" y="548" type="line"/>
      <point x="118" y="530"/>
      <point x="123" y="518"/>
      <point x="124" y="512" type="curve"/>
      <point x="122" y="507"/>
      <point x="114" y="501"/>
      <point x="106" y="501" type="curve" smooth="yes"/>
      <point x="85" y="501"/>
      <point x="75" y="512"/>
      <point x="69" y="553" type="curve"/>
      <point x="48" y="540" type="line"/>
      <point x="50" y="509" type="line" smooth="yes"/>
      <point x="50" y="492"/>
      <point x="40" y="481"/>
      <point x="26" y="481" type="curve" smooth="yes"/>
      <point x="12" y="481"/>
      <point x="5" y="490"/>
      <point x="5" y="506" type="curve" smooth="yes"/>
      <point x="5" y="515"/>
      <point x="6" y="523"/>
      <point x="8" y="530" type="curve"/>
      <point x="-5" y="533" type="line"/>
      <point x="-13" y="518"/>
      <point x="-17" y="504"/>
      <point x="-17" y="492" type="curve" smooth="yes"/>
      <point x="-17" y="463"/>
      <point x="0" y="448"/>
    </contour>
  </outline>
</glyph>
<glyph name="uni0652" format="2">
  <unicode hex="0652"/>
  <anchor x="66" y="449" name="_top"/>
  <anchor x="66" y="449" name="_top2"/>
  <anchor x="66" y="449" name="_top3"/>
  <anchor x="66" y="596" name="top3"/>
  <outline>
    <contour>
      <point x="65" y="459" type="curve" smooth="yes"/>
      <point x="92" y="459"/>
      <point x="118" y="484"/>
      <point x="118" y="515" type="curve" smooth="yes"/>
      <point x="118" y="553"/>
      <point x="93" y="581"/>
      <point x="66" y="581" type="curve" smooth="yes"/>
      <point x="40" y="581"/>
      <point x="16" y="553"/>
      <point x="16" y="516" type="curve" smooth="yes"/>
      <point x="16" y="483"/>
      <point x="36" y="459"/>
    </contour>
    <contour>
      <point x="66" y="495" type="curve" smooth="yes"/>
      <point x="48" y="495"/>
      <point x="36" y="505"/>
      <point x="36" y="521" type="curve" smooth="yes"/>
      <point x="36" y="537"/>
      <point x="50" y="545"/>
      <point x="61" y="545" type="curve" smooth="yes"/>
      <point x="79" y="545"/>
      <point x="98" y="527"/>
      <point x="98" y="515" type="curve" smooth="yes"/>
      <point x="98" y="506"/>
      <point x="82" y="495"/>
    </contour>
  </outline>
</glyph>
<glyph name="uni0653" format="2">
  <unicode hex="0653"/>
  <anchor x="67" y="552" name="_top"/>
  <anchor x="67" y="552" name="_top2"/>
  <anchor x="67" y="552" name="_top3"/>
  <anchor x="68" y="648" name="top3"/>
  <outline>
    <contour>
      <point x="-56" y="560" type="line"/>
      <point x="-8" y="583" type="line"/>
      <point x="30" y="569"/>
      <point x="64" y="562"/>
      <point x="95" y="562" type="curve" smooth="yes"/>
      <point x="119" y="562"/>
      <point x="160" y="581"/>
      <point x="187" y="608" type="curve"/>
      <point x="179" y="630" type="line"/>
      <point x="160" y="621"/>
      <point x="121" y="612"/>
      <point x="99" y="612" type="curve" smooth="yes"/>
      <point x="82" y="612"/>
      <point x="54" y="617"/>
      <point x="15" y="626" type="curve"/>
      <point x="-2" y="628" type="line"/>
      <point x="-7" y="628"/>
      <point x="-29" y="612"/>
      <point x="-68" y="581" type="curve"/>
    </contour>
  </outline>
</glyph>
<glyph name="uni0654" format="2">
  <unicode hex="0654"/>
  <anchor x="66" y="516" name="_top"/>
  <anchor x="66" y="516" name="_top2"/>
  <anchor x="66" y="516" name="_top3"/>
  <anchor x="57" y="706" name="top3"/>
  <outline>
    <contour>
      <point x="-4" y="502" type="line"/>
      <point x="34" y="523"/>
      <point x="64" y="536"/>
      <point x="119" y="550" type="curve"/>
      <point x="121" y="588" type="line"/>
      <point x="100" y="584"/>
      <point x="84" y="582"/>
      <point x="72" y="582" type="curve" smooth="yes"/>
      <point x="51" y="582"/>
      <point x="35" y="589"/>
      <point x="24" y="602" type="curve"/>
      <point x="32" y="622"/>
      <point x="50" y="640"/>
      <point x="71" y="640" type="curve" smooth="yes"/>
      <point x="78" y="640"/>
      <point x="84" y="633"/>
      <point x="84" y="627" type="curve" smooth="yes"/>
      <point x="83" y="623" type="line"/>
      <point x="102" y="618" type="line"/>
      <point x="107" y="627"/>
      <point x="109" y="636"/>
      <point x="109" y="645" type="curve" smooth="yes"/>
      <point x="109" y="669"/>
      <point x="96" y="682"/>
      <point x="70" y="682" type="curve" smooth="yes"/>
      <point x="35" y="682"/>
      <point x="-4" y="641"/>
      <point x="-4" y="603" type="curve" smooth="yes"/>
      <point x="-4" y="581"/>
      <point x="8" y="567"/>
      <point x="33" y="563" type="curve"/>
      <point x="-7" y="541" type="line"/>
    </contour>
  </outline>
</glyph>
<glyph name="uni0655" format="2">
  <unicode hex="0655"/>
  <anchor x="84" y="45" name="_bottom"/>
  <anchor x="84" y="45" name="_bottom2"/>
  <anchor x="84" y="45" name="_bottom3"/>
  <anchor x="102" y="-135" name="bottom3"/>
  <outline>
    <contour>
      <point x="25" y="-149" type="line"/>
      <point x="70" y="-125"/>
      <point x="91" y="-116"/>
      <point x="149" y="-101" type="curve"/>
      <point x="151" y="-62" type="line"/>
      <point x="132" y="-67"/>
      <point x="115" y="-69"/>
      <point x="100" y="-69" type="curve" smooth="yes"/>
      <point x="80" y="-69"/>
      <point x="65" y="-62"/>
      <point x="55" y="-49" type="curve"/>
      <point x="62" y="-29"/>
      <point x="81" y="-12"/>
      <point x="102" y="-12" type="curve" smooth="yes"/>
      <point x="109" y="-12"/>
      <point x="114" y="-18"/>
      <point x="114" y="-24" type="curve"/>
      <point x="113" y="-28" type="line"/>
      <point x="132" y="-34" type="line"/>
      <point x="137" y="-24"/>
      <point x="139" y="-15"/>
      <point x="139" y="-6" type="curve" smooth="yes"/>
      <point x="139" y="18"/>
      <point x="126" y="30"/>
      <point x="100" y="30" type="curve" smooth="yes"/>
      <point x="66" y="30"/>
      <point x="26" y="-9"/>
      <point x="26" y="-48" type="curve" smooth="yes"/>
      <point x="26" y="-70"/>
      <point x="38" y="-83"/>
      <point x="62" y="-88" type="curve"/>
      <point x="23" y="-110" type="line"/>
    </contour>
  </outline>
</glyph>
<glyph name="uni0656" format="2">
  <unicode hex="0656"/>
  <anchor x="9" y="-2" name="_bottom"/>
  <anchor x="9" y="-2" name="_bottom2"/>
  <anchor x="9" y="-2" name="_bottom3"/>
  <anchor x="11" y="-262" name="bottom3"/>
  <outline>
    <contour>
      <point x="11" y="-252" type="line"/>
      <point x="28" y="-228"/>
      <point x="37" y="-200"/>
      <point x="37" y="-167" type="curve" smooth="yes"/>
      <point x="37" y="-103"/>
      <point x="32" y="-68"/>
      <point x="22" y="-17" type="curve"/>
      <point x="0" y="-26"/>
      <point x="-15" y="-47"/>
      <point x="-15" y="-73" type="curve" smooth="yes"/>
      <point x="-15" y="-80"/>
      <point x="-14" y="-87"/>
      <point x="-12" y="-96" type="curve" smooth="yes"/>
      <point x="-1" y="-141"/>
      <point x="5" y="-193"/>
      <point x="5" y="-250" type="curve"/>
    </contour>
  </outline>
</glyph>
<glyph name="uni0657" format="2">
  <unicode hex="0657"/>
  <anchor x="75" y="457" name="_top"/>
  <anchor x="75" y="457" name="_top2"/>
  <anchor x="75" y="457" name="_top3"/>
  <anchor x="78" y="685" name="top3"/>
  <outline>
    <contour>
      <point x="70" y="466" type="curve" smooth="yes"/>
      <point x="102" y="466"/>
      <point x="139" y="503"/>
      <point x="139" y="539" type="curve" smooth="yes"/>
      <point x="139" y="563"/>
      <point x="121" y="583"/>
      <point x="94" y="595" type="curve"/>
      <point x="96" y="597" type="line" smooth="yes"/>
      <point x="127" y="618"/>
      <point x="163" y="632"/>
      <point x="206" y="640" type="curve"/>
      <point x="206" y="659"/>
      <point x="192" y="670"/>
      <point x="171" y="670" type="curve" smooth="yes"/>
      <point x="143" y="670"/>
      <point x="98" y="646"/>
      <point x="59" y="606" type="curve"/>
      <point x="45" y="607" type="line"/>
      <point x="14" y="607"/>
      <point x="0" y="599"/>
      <point x="-3" y="575" type="curve"/>
      <point x="9" y="575"/>
      <point x="21" y="574"/>
      <point x="34" y="572" type="curve"/>
      <point x="31" y="564"/>
      <point x="29" y="554"/>
      <point x="29" y="542" type="curve" smooth="yes"/>
      <point x="29" y="495"/>
      <point x="46" y="466"/>
    </contour>
    <contour>
      <point x="84" y="504" type="curve" smooth="yes"/>
      <point x="67" y="504"/>
      <point x="59" y="524"/>
      <point x="59" y="545" type="curve" smooth="yes"/>
      <point x="59" y="553"/>
      <point x="60" y="560"/>
      <point x="64" y="565" type="curve"/>
      <point x="87" y="560"/>
      <point x="110" y="543"/>
      <point x="110" y="522" type="curve" smooth="yes"/>
      <point x="110" y="515"/>
      <point x="98" y="504"/>
    </contour>
  </outline>
</glyph>
<glyph name="uni0658" format="2">
  <unicode hex="0658"/>
  <anchor x="92" y="504" name="_top"/>
  <anchor x="92" y="504" name="_top2"/>
  <anchor x="92" y="504" name="_top3"/>
  <anchor x="102" y="662" name="top3"/>
  <outline>
    <contour>
      <point x="92" y="514" type="curve" smooth="yes"/>
      <point x="135" y="514"/>
      <point x="165" y="556"/>
      <point x="176" y="634" type="curve"/>
      <point x="160" y="637" type="line"/>
      <point x="149" y="583"/>
      <point x="127" y="556"/>
      <point x="95" y="556" type="curve" smooth="yes"/>
      <point x="61" y="556"/>
      <point x="40" y="583"/>
      <point x="34" y="637" type="curve"/>
      <point x="22" y="637"/>
      <point x="10" y="624"/>
      <point x="10" y="609" type="curve" smooth="yes"/>
      <point x="10" y="594"/>
      <point x="14" y="578"/>
      <point x="21" y="562" type="curve" smooth="yes"/>
      <point x="36" y="531"/>
      <point x="61" y="514"/>
    </contour>
  </outline>
</glyph>
<glyph name="uni0659" format="2">
  <unicode hex="0659"/>
  <anchor x="125" y="453" name="_top"/>
  <anchor x="125" y="453" name="_top2"/>
  <anchor x="125" y="453" name="_top3"/>
  <anchor x="122" y="532" name="top3"/>
  <outline>
    <contour>
      <point x="26" y="462" type="line"/>
      <point x="63" y="462"/>
      <point x="156" y="468"/>
      <point x="208" y="474" type="curve" smooth="yes"/>
      <point x="218" y="475"/>
      <point x="226" y="492"/>
      <point x="226" y="507" type="curve"/>
      <point x="132" y="500"/>
      <point x="69" y="497"/>
      <point x="34" y="497" type="curve"/>
    </contour>
  </outline>
</glyph>
<glyph name="uni065A" format="2">
  <unicode hex="065A"/>
  <anchor x="138" y="309" name="_top"/>
  <anchor x="138" y="309" name="_top2"/>
  <anchor x="138" y="309" name="_top3"/>
  <anchor x="125" y="507" name="top3"/>
  <outline>
    <contour>
      <point x="108" y="319" type="curve"/>
      <point x="128" y="322"/>
      <point x="144" y="327"/>
      <point x="157" y="335" type="curve"/>
      <point x="176" y="395"/>
      <point x="207" y="442"/>
      <point x="207" y="454" type="curve" smooth="yes"/>
      <point x="207" y="472"/>
      <point x="196" y="481"/>
      <point x="185" y="482" type="curve"/>
      <point x="169" y="462"/>
      <point x="145" y="400"/>
      <point x="139" y="368" type="curve"/>
      <point x="130" y="390"/>
      <point x="121" y="409"/>
      <point x="111" y="425" type="curve" smooth="yes"/>
      <point x="92" y="457"/>
      <point x="80" y="469"/>
      <point x="62" y="469" type="curve" smooth="yes"/>
      <point x="57" y="469"/>
      <point x="51" y="468"/>
      <point x="44" y="467" type="curve" smooth="yes"/>
      <point x="29" y="463" type="line"/>
      <point x="62" y="418"/>
      <point x="84" y="369"/>
    </contour>
  </outline>
</glyph>
<glyph name="uni065B" format="2">
  <unicode hex="065B"/>
  <anchor x="119" y="330" name="_top"/>
  <anchor x="119" y="330" name="_top2"/>
  <anchor x="119" y="330" name="_top3"/>
  <anchor x="93" y="528" name="top3"/>
  <outline>
    <contour>
      <point x="51" y="340" type="curve"/>
      <point x="67" y="363"/>
      <point x="91" y="419"/>
      <point x="97" y="456" type="curve"/>
      <point x="110" y="426"/>
      <point x="120" y="406"/>
      <point x="126" y="395" type="curve" smooth="yes"/>
      <point x="140" y="372"/>
      <point x="153" y="354"/>
      <point x="174" y="354" type="curve" smooth="yes"/>
      <point x="183" y="354"/>
      <point x="198" y="357"/>
      <point x="207" y="360" type="curve"/>
      <point x="182" y="394"/>
      <point x="156" y="442"/>
      <point x="128" y="504" type="curve"/>
      <point x="109" y="501"/>
      <point x="93" y="495"/>
      <point x="80" y="487" type="curve"/>
      <point x="60" y="431"/>
      <point x="29" y="378"/>
      <point x="29" y="369" type="curve" smooth="yes"/>
      <point x="29" y="350"/>
      <point x="40" y="341"/>
    </contour>
  </outline>
</glyph>
<glyph name="uni065C" format="2">
  <unicode hex="065C"/>
  <anchor x="0" y="-174" name="_bottom"/>
  <anchor x="0" y="-174" name="_bottom2"/>
  <anchor x="0" y="-174" name="_bottom3"/>
  <anchor x="0" y="-345" name="bottom3"/>
  <outline>
    <contour>
      <point x="0" y="-335" type="curve" smooth="yes"/>
      <point x="40" y="-335"/>
      <point x="73" y="-302"/>
      <point x="73" y="-262" type="curve" smooth="yes"/>
      <point x="73" y="-221"/>
      <point x="40" y="-188"/>
      <point x="0" y="-188" type="curve" smooth="yes"/>
      <point x="-40" y="-188"/>
      <point x="-73" y="-221"/>
      <point x="-73" y="-262" type="curve" smooth="yes"/>
      <point x="-73" y="-302"/>
      <point x="-40" y="-335"/>
    </contour>
  </outline>
</glyph>
<glyph name="uni065D" format="2">
  <unicode hex="065D"/>
  <anchor x="79" y="475" name="_top"/>
  <anchor x="79" y="475" name="_top2"/>
  <anchor x="79" y="475" name="_top3"/>
  <anchor x="86" y="713" name="top3"/>
  <outline>
    <contour>
      <point x="186" y="484" type="curve" smooth="yes"/>
      <point x="207" y="484"/>
      <point x="221" y="496"/>
      <point x="221" y="515" type="curve"/>
      <point x="177" y="523"/>
      <point x="141" y="537"/>
      <point x="109" y="559" type="curve"/>
      <point x="142" y="577"/>
      <point x="153" y="593"/>
      <point x="153" y="616" type="curve" smooth="yes"/>
      <point x="153" y="652"/>
      <point x="117" y="688"/>
      <point x="84" y="688" type="curve" smooth="yes"/>
      <point x="61" y="688"/>
      <point x="44" y="661"/>
      <point x="44" y="613" type="curve" smooth="yes"/>
      <point x="44" y="603"/>
      <point x="46" y="594"/>
      <point x="49" y="582" type="curve"/>
      <point x="36" y="580"/>
      <point x="23" y="580"/>
      <point x="12" y="580" type="curve"/>
      <point x="14" y="556"/>
      <point x="29" y="548"/>
      <point x="60" y="548" type="curve"/>
      <point x="74" y="549" type="line"/>
      <point x="113" y="509"/>
      <point x="157" y="484"/>
    </contour>
    <contour>
      <point x="79" y="589" type="curve"/>
      <point x="76" y="596"/>
      <point x="74" y="603"/>
      <point x="74" y="610" type="curve" smooth="yes"/>
      <point x="74" y="631"/>
      <point x="82" y="651"/>
      <point x="99" y="651" type="curve" smooth="yes"/>
      <point x="113" y="651"/>
      <point x="125" y="639"/>
      <point x="125" y="632" type="curve" smooth="yes"/>
      <point x="125" y="615"/>
      <point x="110" y="600"/>
    </contour>
  </outline>
</glyph>
<glyph name="uni065E" format="2">
  <unicode hex="065E"/>
  <anchor x="104" y="487" name="_top"/>
  <anchor x="104" y="487" name="_top2"/>
  <anchor x="104" y="487" name="_top3"/>
  <anchor x="133" y="689" name="top3"/>
  <outline>
    <contour>
      <point x="24" y="509" type="line"/>
      <point x="65" y="528"/>
      <point x="112" y="554"/>
      <point x="166" y="590" type="curve" smooth="yes"/>
      <point x="194" y="608"/>
      <point x="210" y="610"/>
      <point x="210" y="632" type="curve" smooth="yes"/>
      <point x="210" y="641"/>
      <point x="208" y="650"/>
      <point x="204" y="660" type="curve"/>
      <point x="195" y="655"/>
      <point x="184" y="647"/>
      <point x="171" y="637" type="curve" smooth="yes"/>
      <point x="110" y="589"/>
      <point x="64" y="560"/>
      <point x="34" y="549" type="curve"/>
    </contour>
    <contour>
      <point x="167" y="497" type="line"/>
      <point x="174" y="503"/>
      <point x="183" y="514"/>
      <point x="193" y="531" type="curve"/>
      <point x="177" y="546"/>
      <point x="165" y="557"/>
      <point x="156" y="562" type="curve"/>
      <point x="143" y="546" type="line"/>
      <point x="130" y="528" type="line"/>
    </contour>
    <contour>
      <point x="78" y="600" type="line"/>
      <point x="85" y="605"/>
      <point x="94" y="617"/>
      <point x="104" y="633" type="curve"/>
      <point x="91" y="646"/>
      <point x="79" y="657"/>
      <point x="67" y="665" type="curve"/>
      <point x="53" y="647"/>
      <point x="44" y="635"/>
      <point x="42" y="631" type="curve"/>
    </contour>
  </outline>
</glyph>
<glyph name="uni065F" format="2">
  <unicode hex="065F"/>
  <anchor x="79" y="66" name="_bottom"/>
  <anchor x="79" y="66" name="_bottom2"/>
  <anchor x="79" y="66" name="_bottom3"/>
  <anchor x="98" y="-125" name="bottom3"/>
  <outline>
    <contour>
      <point x="-19" y="-120" type="line"/>
      <point x="-7" y="-107"/>
      <point x="3" y="-100"/>
      <point x="13" y="-100" type="curve" smooth="yes"/>
      <point x="20" y="-100"/>
      <point x="27" y="-103"/>
      <point x="35" y="-107" type="curve" smooth="yes"/>
      <point x="43" y="-113"/>
      <point x="52" y="-115"/>
      <point x="59" y="-115" type="curve" smooth="yes"/>
      <point x="80" y="-115"/>
      <point x="122" y="-100"/>
      <point x="160" y="-78" type="curve"/>
      <point x="162" y="-41" type="line"/>
      <point x="147" y="-47"/>
      <point x="134" y="-50"/>
      <point x="122" y="-50" type="curve" smooth="yes"/>
      <point x="105" y="-50"/>
      <point x="81" y="-39"/>
      <point x="66" y="-25" type="curve"/>
      <point x="77" y="-5"/>
      <point x="96" y="10"/>
      <point x="111" y="10" type="curve" smooth="yes"/>
      <point x="119" y="10"/>
      <point x="123" y="5"/>
      <point x="123" y="-6" type="curve"/>
      <point x="140" y="-11" type="line"/>
      <point x="144" y="-1"/>
      <point x="146" y="8"/>
      <point x="146" y="16" type="curve" smooth="yes"/>
      <point x="146" y="38"/>
      <point x="132" y="51"/>
      <point x="110" y="51" type="curve" smooth="yes"/>
      <point x="101" y="51"/>
      <point x="90" y="47"/>
      <point x="79" y="40" type="curve" smooth="yes"/>
      <point x="56" y="24"/>
      <point x="39" y="-2"/>
      <point x="39" y="-25" type="curve" smooth="yes"/>
      <point x="39" y="-45"/>
      <point x="51" y="-60"/>
      <point x="76" y="-73" type="curve"/>
      <point x="71" y="-75"/>
      <point x="66" y="-76"/>
      <point x="60" y="-76" type="curve" smooth="yes"/>
      <point x="53" y="-76"/>
      <point x="45" y="-75"/>
      <point x="36" y="-72" type="curve" smooth="yes"/>
      <point x="27" y="-69"/>
      <point x="23" y="-67"/>
      <point x="16" y="-67" type="curve" smooth="yes"/>
      <point x="2" y="-67"/>
      <point x="-20" y="-86"/>
      <point x="-33" y="-109" type="curve"/>
    </contour>
  </outline>
</glyph>
<glyph name="uni0660" format="2">
  <advance width="314"/>
  <unicode hex="0660"/>
  <outline>
    <contour>
      <point x="183" y="140" type="curve"/>
      <point x="219" y="194"/>
      <point x="238" y="225"/>
      <point x="238" y="234" type="curve" smooth="yes"/>
      <point x="238" y="240"/>
      <point x="230" y="249"/>
      <point x="215" y="262" type="curve" smooth="yes"/>
      <point x="199" y="276"/>
      <point x="173" y="293"/>
      <point x="137" y="314" type="curve"/>
      <point x="125" y="297"/>
      <point x="115" y="280"/>
      <point x="106" y="263" type="curve" smooth="yes"/>
      <point x="97" y="245"/>
      <point x="87" y="227"/>
      <point x="76" y="209" type="curve"/>
      <point x="112" y="190"/>
      <point x="147" y="166"/>
    </contour>
  </outline>
</glyph>
<glyph name="uni0661" format="2">
  <advance width="316"/>
  <unicode hex="0661"/>
  <outline>
    <contour>
      <point x="226" y="0" type="line"/>
      <point x="235" y="63"/>
      <point x="240" y="126"/>
      <point x="240" y="191" type="curve" smooth="yes"/>
      <point x="240" y="296"/>
      <point x="197" y="449"/>
      <point x="131" y="568" type="curve"/>
      <point x="97" y="548"/>
      <point x="77" y="521"/>
      <point x="77" y="495" type="curve" smooth="yes"/>
      <point x="77" y="486"/>
      <point x="79" y="476"/>
      <point x="85" y="466" type="curve" smooth="yes"/>
      <point x="113" y="411"/>
      <point x="135" y="361"/>
      <point x="149" y="313" type="curve" smooth="yes"/>
      <point x="178" y="219"/>
      <point x="186" y="147"/>
      <point x="188" y="9" type="curve"/>
    </contour>
  </outline>
</glyph>
<glyph name="uni0662" format="2">
  <advance width="413"/>
  <unicode hex="0662"/>
  <outline>
    <contour>
      <point x="226" y="0" type="line"/>
      <point x="238" y="90"/>
      <point x="240" y="128"/>
      <point x="240" y="191" type="curve" smooth="yes"/>
      <point x="240" y="239"/>
      <point x="231" y="295"/>
      <point x="214" y="360" type="curve"/>
      <point x="226" y="355"/>
      <point x="238" y="353"/>
      <point x="249" y="353" type="curve" smooth="yes"/>
      <point x="341" y="353"/>
      <point x="388" y="421"/>
      <point x="388" y="559" type="curve"/>
      <point x="348" y="567" type="line"/>
      <point x="339" y="480"/>
      <point x="306" y="437"/>
      <point x="248" y="437" type="curve" smooth="yes"/>
      <point x="222" y="437"/>
      <point x="197" y="444"/>
      <point x="183" y="455" type="curve"/>
      <point x="168" y="494"/>
      <point x="151" y="531"/>
      <point x="131" y="568" type="curve"/>
      <point x="97" y="549"/>
      <point x="77" y="521"/>
      <point x="77" y="495" type="curve" smooth="yes"/>
      <point x="77" y="486"/>
      <point x="79" y="476"/>
      <point x="85" y="466" type="curve" smooth="yes"/>
      <point x="111" y="416"/>
      <point x="131" y="368"/>
      <point x="146" y="322" type="curve" smooth="yes"/>
      <point x="177" y="229"/>
      <point x="186" y="157"/>
      <point x="188" y="9" type="curve"/>
    </contour>
  </outline>
</glyph>
<glyph name="uni0663" format="2">
  <advance width="478"/>
  <unicode hex="0663"/>
  <outline>
    <contour>
      <point x="226" y="0" type="line"/>
      <point x="234" y="62"/>
      <point x="238" y="125"/>
      <point x="238" y="191" type="curve" smooth="yes"/>
      <point x="238" y="240"/>
      <point x="229" y="297"/>
      <point x="212" y="360" type="curve"/>
      <point x="226" y="355"/>
      <point x="238" y="353"/>
      <point x="248" y="353" type="curve" smooth="yes"/>
      <point x="280" y="353"/>
      <point x="304" y="372"/>
      <point x="318" y="399" type="curve"/>
      <point x="335" y="389"/>
      <point x="351" y="385"/>
      <point x="366" y="385" type="curve" smooth="yes"/>
      <point x="415" y="385"/>
      <point x="452" y="435"/>
      <point x="452" y="509" type="curve" smooth="yes"/>
      <point x="452" y="523"/>
      <point x="451" y="540"/>
      <point x="448" y="562" type="curve"/>
      <point x="407" y="566" type="line"/>
      <point x="408" y="560"/>
      <point x="409" y="550"/>
      <point x="409" y="538" type="curve" smooth="yes"/>
      <point x="409" y="493"/>
      <point x="393" y="468"/>
      <point x="365" y="468" type="curve" smooth="yes"/>
      <point x="357" y="468"/>
      <point x="347" y="470"/>
      <point x="336" y="474" type="curve"/>
      <point x="336" y="505"/>
      <point x="332" y="533"/>
      <point x="322" y="568" type="curve"/>
      <point x="292" y="558" type="line"/>
      <point x="294" y="542"/>
      <point x="295" y="527"/>
      <point x="295" y="512" type="curve" smooth="yes"/>
      <point x="295" y="461"/>
      <point x="278" y="437"/>
      <point x="239" y="437" type="curve" smooth="yes"/>
      <point x="217" y="437"/>
      <point x="199" y="443"/>
      <point x="183" y="455" type="curve"/>
      <point x="168" y="494"/>
      <point x="150" y="532"/>
      <point x="131" y="568" type="curve"/>
      <point x="96" y="548"/>
      <point x="77" y="522"/>
      <point x="77" y="495" type="curve" smooth="yes"/>
      <point x="77" y="486"/>
      <point x="79" y="476"/>
      <point x="85" y="466" type="curve" smooth="yes"/>
      <point x="115" y="406"/>
      <point x="137" y="351"/>
      <point x="151" y="303" type="curve" smooth="yes"/>
      <point x="179" y="206"/>
      <point x="187" y="138"/>
      <point x="188" y="9" type="curve"/>
    </contour>
  </outline>
</glyph>
<glyph name="uni0664" format="2">
  <advance width="420"/>
  <unicode hex="0664"/>
  <outline>
    <contour>
      <point x="280" y="-2" type="curve" smooth="yes"/>
      <point x="309" y="-2"/>
      <point x="329" y="9"/>
      <point x="345" y="24" type="curve" smooth="yes"/>
      <point x="359" y="38"/>
      <point x="370" y="56"/>
      <point x="382" y="72" type="curve"/>
      <point x="372" y="90" type="line"/>
      <point x="346" y="83"/>
      <point x="316" y="80"/>
      <point x="282" y="80" type="curve" smooth="yes"/>
      <point x="216" y="80"/>
      <point x="162" y="104"/>
      <point x="162" y="131" type="curve" smooth="yes"/>
      <point x="162" y="144"/>
      <point x="172" y="166"/>
      <point x="187" y="191" type="curve" smooth="yes"/>
      <point x="209" y="227"/>
      <point x="241" y="269"/>
      <point x="265" y="295" type="curve"/>
      <point x="238" y="354" type="line"/>
      <point x="184" y="366"/>
      <point x="146" y="380"/>
      <point x="117" y="412" type="curve"/>
      <point x="125" y="419"/>
      <point x="134" y="428"/>
      <point x="143" y="435" type="curve" smooth="yes"/>
      <point x="162" y="449"/>
      <point x="204" y="481"/>
      <point x="232" y="504" type="curve" smooth="yes"/>
      <point x="250" y="519"/>
      <point x="262" y="547"/>
      <point x="262" y="575" type="curve" smooth="yes"/>
      <point x="262" y="583"/>
      <point x="261" y="590"/>
      <point x="259" y="596" type="curve"/>
      <point x="179" y="555"/>
      <point x="134" y="520"/>
      <point x="110" y="487" type="curve" smooth="yes"/>
      <point x="87" y="454"/>
      <point x="68" y="396"/>
      <point x="68" y="362" type="curve" smooth="yes"/>
      <point x="68" y="334"/>
      <point x="116" y="299"/>
      <point x="185" y="270" type="curve"/>
      <point x="145" y="209"/>
      <point x="116" y="137"/>
      <point x="116" y="99" type="curve" smooth="yes"/>
      <point x="116" y="32"/>
      <point x="174" y="-2"/>
    </contour>
  </outline>
</glyph>
<glyph name="uni0665" format="2">
  <advance width="382"/>
  <unicode hex="0665"/>
  <outline>
    <contour>
      <point x="173" y="60" type="curve" smooth="yes"/>
      <point x="200" y="60"/>
      <point x="227" y="68"/>
      <point x="252" y="85" type="curve" smooth="yes"/>
      <point x="304" y="119"/>
      <point x="335" y="160"/>
      <point x="335" y="280" type="curve" smooth="yes"/>
      <point x="335" y="321"/>
      <point x="330" y="360"/>
      <point x="319" y="398" type="curve" smooth="yes"/>
      <point x="297" y="474"/>
      <point x="256" y="515"/>
      <point x="207" y="515" type="curve" smooth="yes"/>
      <point x="184" y="515"/>
      <point x="160" y="498"/>
      <point x="135" y="465" type="curve" smooth="yes"/>
      <point x="83" y="398"/>
      <point x="47" y="290"/>
      <point x="47" y="204" type="curve" smooth="yes"/>
      <point x="47" y="105"/>
      <point x="84" y="60"/>
    </contour>
    <contour>
      <point x="184" y="144" type="curve" smooth="yes"/>
      <point x="119" y="144"/>
      <point x="87" y="171"/>
      <point x="87" y="226" type="curve" smooth="yes"/>
      <point x="87" y="248"/>
      <point x="92" y="276"/>
      <point x="102" y="308" type="curve" smooth="yes"/>
      <point x="123" y="372"/>
      <point x="158" y="419"/>
      <point x="185" y="419" type="curve" smooth="yes"/>
      <point x="247" y="419"/>
      <point x="293" y="339"/>
      <point x="293" y="235" type="curve" smooth="yes"/>
      <point x="293" y="191"/>
      <point x="239" y="144"/>
    </contour>
  </outline>
</glyph>
<glyph name="uni0666" format="2">
  <advance width="445"/>
  <unicode hex="0666"/>
  <outline>
    <contour>
      <point x="323" y="-1" type="curve"/>
      <point x="382" y="62" type="line"/>
      <point x="332" y="161"/>
      <point x="306" y="273"/>
      <point x="306" y="429" type="curve" smooth="yes"/>
      <point x="306" y="463"/>
      <point x="311" y="502"/>
      <point x="323" y="548" type="curve"/>
      <point x="311" y="564" type="line"/>
      <point x="258" y="557"/>
      <point x="209" y="554"/>
      <point x="165" y="554" type="curve" smooth="yes"/>
      <point x="128" y="554"/>
      <point x="89" y="562"/>
      <point x="48" y="579" type="curve"/>
      <point x="25" y="494" type="line"/>
      <point x="57" y="479"/>
      <point x="111" y="468"/>
      <point x="165" y="468" type="curve" smooth="yes"/>
      <point x="206" y="468"/>
      <point x="240" y="470"/>
      <point x="267" y="474" type="curve"/>
      <point x="262" y="455"/>
      <point x="250" y="376"/>
      <point x="250" y="333" type="curve" smooth="yes"/>
      <point x="250" y="221"/>
      <point x="273" y="122"/>
    </contour>
  </outline>
</glyph>
<glyph name="uni0667" format="2">
  <advance width="436"/>
  <unicode hex="0667"/>
  <outline>
    <contour>
      <point x="204" y="0" type="curve"/>
      <point x="219" y="10"/>
      <point x="237" y="23"/>
      <point x="258" y="40" type="curve"/>
      <point x="299" y="200"/>
      <point x="344" y="327"/>
      <point x="427" y="494" type="curve"/>
      <point x="385" y="566" type="line"/>
      <point x="330" y="466"/>
      <point x="261" y="268"/>
      <point x="233" y="108" type="curve"/>
      <point x="206" y="245"/>
      <point x="119" y="472"/>
      <point x="58" y="566" type="curve"/>
      <point x="28" y="544"/>
      <point x="9" y="515"/>
      <point x="9" y="490" type="curve" smooth="yes"/>
      <point x="9" y="482"/>
      <point x="11" y="475"/>
      <point x="15" y="468" type="curve" smooth="yes"/>
      <point x="101" y="307"/>
      <point x="135" y="233"/>
    </contour>
  </outline>
</glyph>
<glyph name="uni0668" format="2">
  <advance width="436"/>
  <unicode hex="0668"/>
  <outline>
    <contour>
      <point x="51" y="0" type="line"/>
      <point x="109" y="107"/>
      <point x="173" y="292"/>
      <point x="203" y="458" type="curve"/>
      <point x="211" y="416"/>
      <point x="225" y="365"/>
      <point x="242" y="312" type="curve" smooth="yes"/>
      <point x="281" y="193"/>
      <point x="335" y="64"/>
      <point x="378" y="0" type="curve"/>
      <point x="409" y="23"/>
      <point x="427" y="51"/>
      <point x="427" y="76" type="curve" smooth="yes"/>
      <point x="427" y="83"/>
      <point x="425" y="91"/>
      <point x="422" y="98" type="curve" smooth="yes"/>
      <point x="333" y="260"/>
      <point x="297" y="346"/>
      <point x="232" y="566" type="curve"/>
      <point x="178" y="526" type="line"/>
      <point x="135" y="357"/>
      <point x="95" y="244"/>
      <point x="8" y="71" type="curve"/>
    </contour>
  </outline>
</glyph>
<glyph name="uni0669" format="2">
  <advance width="433"/>
  <unicode hex="0669"/>
  <outline>
    <contour>
      <point x="311" y="-1" type="curve"/>
      <point x="370" y="62" type="line"/>
      <point x="316" y="169"/>
      <point x="291" y="268"/>
      <point x="291" y="375" type="curve" smooth="yes"/>
      <point x="291" y="521"/>
      <point x="250" y="585"/>
      <point x="173" y="585" type="curve" smooth="yes"/>
      <point x="154" y="585"/>
      <point x="134" y="577"/>
      <point x="113" y="560" type="curve" smooth="yes"/>
      <point x="72" y="526"/>
      <point x="42" y="470"/>
      <point x="42" y="426" type="curve" smooth="yes"/>
      <point x="42" y="344"/>
      <point x="91" y="300"/>
      <point x="187" y="300" type="curve" smooth="yes"/>
      <point x="205" y="300"/>
      <point x="223" y="304"/>
      <point x="241" y="312" type="curve"/>
      <point x="243" y="211"/>
      <point x="262" y="125"/>
    </contour>
    <contour>
      <point x="213" y="384" type="curve" smooth="yes"/>
      <point x="148" y="384"/>
      <point x="86" y="412"/>
      <point x="86" y="450" type="curve" smooth="yes"/>
      <point x="86" y="470"/>
      <point x="115" y="498"/>
      <point x="148" y="498" type="curve" smooth="yes"/>
      <point x="200" y="498"/>
      <point x="226" y="460"/>
      <point x="237" y="386" type="curve"/>
      <point x="230" y="385"/>
      <point x="222" y="384"/>
    </contour>
  </outline>
</glyph>
<glyph name="uni066A" format="2">
  <advance width="401"/>
  <unicode hex="066A"/>
  <outline>
    <contour>
      <point x="88" y="-60" type="curve"/>
      <point x="137" y="41"/>
      <point x="256" y="276"/>
      <point x="341" y="437" type="curve" smooth="yes"/>
      <point x="343" y="442"/>
      <point x="344" y="447"/>
      <point x="344" y="454" type="curve" smooth="yes"/>
      <point x="344" y="473"/>
      <point x="332" y="495"/>
      <point x="316" y="506" type="curve"/>
      <point x="230" y="348"/>
      <point x="105" y="99"/>
      <point x="53" y="-11" type="curve"/>
      <point x="61" y="-31"/>
      <point x="73" y="-48"/>
    </contour>
    <contour>
      <point x="317" y="-14" type="curve"/>
      <point x="350" y="35"/>
      <point x="367" y="63"/>
      <point x="367" y="72" type="curve" smooth="yes"/>
      <point x="367" y="77"/>
      <point x="360" y="86"/>
      <point x="346" y="98" type="curve" smooth="yes"/>
      <point x="332" y="111"/>
      <point x="309" y="126"/>
      <point x="275" y="146" type="curve"/>
      <point x="265" y="130"/>
      <point x="256" y="114"/>
      <point x="247" y="98" type="curve" smooth="yes"/>
      <point x="239" y="83"/>
      <point x="230" y="67"/>
      <point x="221" y="50" type="curve"/>
      <point x="252" y="33"/>
      <point x="284" y="11"/>
    </contour>
    <contour>
      <point x="130" y="314" type="curve"/>
      <point x="163" y="361"/>
      <point x="180" y="390"/>
      <point x="180" y="399" type="curve" smooth="yes"/>
      <point x="180" y="405"/>
      <point x="173" y="413"/>
      <point x="159" y="426" type="curve" smooth="yes"/>
      <point x="145" y="438"/>
      <point x="122" y="453"/>
      <point x="88" y="473" type="curve"/>
      <point x="78" y="457"/>
      <point x="69" y="441"/>
      <point x="61" y="426" type="curve" smooth="yes"/>
      <point x="52" y="410"/>
      <point x="44" y="394"/>
      <point x="34" y="377" type="curve"/>
      <point x="60" y="363"/>
      <point x="92" y="342"/>
    </contour>
  </outline>
</glyph>
<glyph name="uni066B" format="2">
  <advance width="222"/>
  <unicode hex="066B"/>
  <outline>
    <contour>
      <point x="42" y="-97" type="line"/>
      <point x="133" y="-69"/>
      <point x="181" y="-11"/>
      <point x="181" y="69" type="curve" smooth="yes"/>
      <point x="181" y="112"/>
      <point x="155" y="144"/>
      <point x="115" y="144" type="curve" smooth="yes"/>
      <point x="84" y="144"/>
      <point x="60" y="126"/>
      <point x="60" y="94" type="curve" smooth="yes"/>
      <point x="60" y="63"/>
      <point x="86" y="54"/>
      <point x="105" y="42" type="curve" smooth="yes"/>
      <point x="115" y="35"/>
      <point x="123" y="27"/>
      <point x="123" y="15" type="curve" smooth="yes"/>
      <point x="123" y="-18"/>
      <point x="96" y="-44"/>
      <point x="42" y="-61" type="curve"/>
    </contour>
  </outline>
</glyph>
<glyph name="uni066C" format="2">
  <advance width="161"/>
  <unicode hex="066C"/>
  <outline>
    <contour>
      <point x="78" y="1" type="curve" smooth="yes"/>
      <point x="109" y="1"/>
      <point x="133" y="19"/>
      <point x="133" y="52" type="curve" smooth="yes"/>
      <point x="133" y="72"/>
      <point x="123" y="87"/>
      <point x="102" y="98" type="curve" smooth="yes"/>
      <point x="79" y="109"/>
      <point x="71" y="117"/>
      <point x="71" y="130" type="curve" smooth="yes"/>
      <point x="71" y="164"/>
      <point x="98" y="190"/>
      <point x="151" y="207" type="curve"/>
      <point x="151" y="242" type="line"/>
      <point x="62" y="216"/>
      <point x="12" y="157"/>
      <point x="12" y="76" type="curve" smooth="yes"/>
      <point x="12" y="33"/>
      <point x="39" y="1"/>
    </contour>
  </outline>
</glyph>
<glyph name="uni066D" format="2">
  <advance width="400"/>
  <unicode hex="066D"/>
  <outline>
    <contour>
      <point x="90" y="59" type="line"/>
      <point x="199" y="145" type="line"/>
      <point x="309" y="59" type="line"/>
      <point x="312" y="61" type="line"/>
      <point x="265" y="192" type="line"/>
      <point x="382" y="271" type="line"/>
      <point x="380" y="274" type="line"/>
      <point x="241" y="270" type="line"/>
      <point x="202" y="404" type="line"/>
      <point x="197" y="404" type="line"/>
      <point x="159" y="270" type="line"/>
      <point x="21" y="274" type="line"/>
      <point x="19" y="270" type="line"/>
      <point x="134" y="192" type="line"/>
      <point x="87" y="61" type="line"/>
    </contour>
  </outline>
</glyph>
<glyph name="uni066E" format="2">
  <advance width="772"/>
  <unicode hex="066E"/>
  <anchor x="378" y="-52" name="bottom"/>
  <anchor x="365" y="398" name="top"/>
  <outline>
    <contour>
      <point x="314" y="0" type="curve" smooth="yes"/>
      <point x="472" y="0"/>
      <point x="600" y="33"/>
      <point x="688" y="89" type="curve"/>
      <point x="711" y="134"/>
      <point x="723" y="168"/>
      <point x="723" y="191" type="curve" smooth="yes"/>
      <point x="723" y="239"/>
      <point x="707" y="309"/>
      <point x="686" y="408" type="curve"/>
      <point x="643" y="384"/>
      <point x="620" y="352"/>
      <point x="620" y="324" type="curve" smooth="yes"/>
      <point x="620" y="313"/>
      <point x="626" y="291"/>
      <point x="639" y="257" type="curve" smooth="yes"/>
      <point x="656" y="211"/>
      <point x="668" y="175"/>
      <point x="675" y="147" type="curve"/>
      <point x="583" y="103"/>
      <point x="459" y="76"/>
      <point x="335" y="76" type="curve" smooth="yes"/>
      <point x="282" y="76"/>
      <point x="240" y="82"/>
      <point x="208" y="93" type="curve" smooth="yes"/>
      <point x="144" y="115"/>
      <point x="116" y="153"/>
      <point x="116" y="231" type="curve" smooth="yes"/>
      <point x="116" y="247"/>
      <point x="118" y="275"/>
      <point x="119" y="280" type="curve"/>
      <point x="83" y="280" type="line"/>
      <point x="74" y="248"/>
      <point x="70" y="212"/>
      <point x="70" y="170" type="curve" smooth="yes"/>
      <point x="70" y="56"/>
      <point x="157" y="0"/>
    </contour>
  </outline>
</glyph>
<glyph name="uni066F" format="2">
  <advance width="647"/>
  <unicode hex="066F"/>
  <anchor x="291" y="-311" name="bottom"/>
  <anchor x="394" y="389" name="top"/>
  <outline>
    <contour>
      <point x="266" y="-262" type="curve" smooth="yes"/>
      <point x="344" y="-262"/>
      <point x="436" y="-226"/>
      <point x="499" y="-171" type="curve" smooth="yes"/>
      <point x="562" y="-116"/>
      <point x="596" y="-43"/>
      <point x="596" y="41" type="curve" smooth="yes"/>
      <point x="596" y="92"/>
      <point x="588" y="141"/>
      <point x="572" y="186" type="curve" smooth="yes"/>
      <point x="539" y="278"/>
      <point x="476" y="340"/>
      <point x="413" y="340" type="curve" smooth="yes"/>
      <point x="391" y="340"/>
      <point x="368" y="330"/>
      <point x="346" y="310" type="curve" smooth="yes"/>
      <point x="302" y="269"/>
      <point x="272" y="197"/>
      <point x="272" y="129" type="curve" smooth="yes"/>
      <point x="272" y="51"/>
      <point x="321" y="0"/>
      <point x="397" y="0" type="curve" smooth="yes"/>
      <point x="448" y="0"/>
      <point x="491" y="20"/>
      <point x="534" y="60" type="curve"/>
      <point x="540" y="28"/>
      <point x="544" y="-9"/>
      <point x="545" y="-51" type="curve"/>
      <point x="529" y="-76"/>
      <point x="506" y="-99"/>
      <point x="476" y="-118" type="curve" smooth="yes"/>
      <point x="417" y="-157"/>
      <point x="338" y="-179"/>
      <point x="269" y="-179" type="curve" smooth="yes"/>
      <point x="168" y="-179"/>
      <point x="113" y="-125"/>
      <point x="113" y="-24" type="curve" smooth="yes"/>
      <point x="113" y="-6"/>
      <point x="117" y="18"/>
      <point x="124" y="47" type="curve"/>
      <point x="87" y="56" type="line"/>
      <point x="71" y="-10"/>
      <point x="68" y="-35"/>
      <point x="68" y="-74" type="curve" smooth="yes"/>
      <point x="68" y="-193"/>
      <point x="141" y="-262"/>
    </contour>
    <contour>
      <point x="421" y="82" type="curve" smooth="yes"/>
      <point x="351" y="82"/>
      <point x="311" y="109"/>
      <point x="311" y="157" type="curve" smooth="yes"/>
      <point x="311" y="170"/>
      <point x="315" y="185"/>
      <point x="323" y="200" type="curve" smooth="yes"/>
      <point x="341" y="231"/>
      <point x="370" y="255"/>
      <point x="397" y="255" type="curve" smooth="yes"/>
      <point x="412" y="255"/>
      <point x="427" y="249"/>
      <point x="444" y="237" type="curve" smooth="yes"/>
      <point x="476" y="214"/>
      <point x="505" y="164"/>
      <point x="523" y="105" type="curve"/>
      <point x="489" y="89"/>
      <point x="455" y="82"/>
    </contour>
  </outline>
</glyph>
<glyph name="uni0670" format="2">
  <unicode hex="0670"/>
  <anchor x="11" y="409" name="_top"/>
  <anchor x="11" y="409" name="_top2"/>
  <anchor x="11" y="409" name="_top3"/>
  <anchor x="9" y="669" name="top3"/>
  <outline>
    <contour>
      <point x="11" y="419" type="line"/>
      <point x="28" y="443"/>
      <point x="37" y="472"/>
      <point x="37" y="504" type="curve" smooth="yes"/>
      <point x="37" y="569"/>
      <point x="32" y="604"/>
      <point x="22" y="654" type="curve"/>
      <point x="0" y="646"/>
      <point x="-15" y="624"/>
      <point x="-15" y="598" type="curve" smooth="yes"/>
      <point x="-15" y="592"/>
      <point x="-14" y="584"/>
      <point x="-12" y="576" type="curve" smooth="yes"/>
      <point x="-1" y="530"/>
      <point x="5" y="479"/>
      <point x="5" y="421" type="curve"/>
    </contour>
  </outline>
</glyph>
<glyph name="uni06A9" format="2">
  <advance width="722"/>
  <unicode hex="06A9"/>
  <unicode hex="FB8E"/>
  <anchor x="450" y="-52" name="bottom"/>
  <anchor x="355" y="575" name="top"/>
  <outline>
    <contour>
      <point x="308" y="0" type="curve" smooth="yes"/>
      <point x="532" y="0"/>
      <point x="643" y="57"/>
      <point x="643" y="164" type="curve" smooth="yes"/>
      <point x="643" y="194"/>
      <point x="629" y="227"/>
      <point x="602" y="262" type="curve" smooth="yes"/>
      <point x="547" y="331"/>
      <point x="447" y="395"/>
      <point x="343" y="420" type="curve"/>
      <point x="419" y="455"/>
      <point x="525" y="501"/>
      <point x="661" y="558" type="curve" smooth="yes"/>
      <point x="690" y="569"/>
      <point x="704" y="590"/>
      <point x="704" y="622" type="curve" smooth="yes"/>
      <point x="704" y="637"/>
      <point x="698" y="646"/>
      <point x="688" y="654" type="curve"/>
      <point x="573" y="607"/>
      <point x="513" y="581"/>
      <point x="333" y="488" type="curve" smooth="yes"/>
      <point x="326" y="484"/>
      <point x="307" y="422"/>
      <point x="307" y="393" type="curve" smooth="yes"/>
      <point x="307" y="356"/>
      <point x="332" y="328"/>
      <point x="368" y="328" type="curve" smooth="yes"/>
      <point x="376" y="328"/>
      <point x="384" y="329"/>
      <point x="393" y="331" type="curve"/>
      <point x="440" y="308"/>
      <point x="479" y="284"/>
      <point x="510" y="259" type="curve" smooth="yes"/>
      <point x="558" y="221"/>
      <point x="587" y="180"/>
      <point x="603" y="135" type="curve"/>
      <point x="518" y="89"/>
      <point x="431" y="76"/>
      <point x="316" y="76" type="curve" smooth="yes"/>
      <point x="243" y="76"/>
      <point x="190" y="83"/>
      <point x="159" y="97" type="curve" smooth="yes"/>
      <point x="128" y="110"/>
      <point x="113" y="133"/>
      <point x="113" y="164" type="curve" smooth="yes"/>
      <point x="113" y="179"/>
      <point x="114" y="193"/>
      <point x="117" y="205" type="curve"/>
      <point x="81" y="205" type="line"/>
      <point x="72" y="184"/>
      <point x="68" y="163"/>
      <point x="68" y="141" type="curve" smooth="yes"/>
      <point x="68" y="112"/>
      <point x="75" y="88"/>
      <point x="89" y="68" type="curve" smooth="yes"/>
      <point x="122" y="23"/>
      <point x="192" y="0"/>
    </contour>
  </outline>
</glyph>
<glyph name="uni06AA" format="2">
  <advance width="1015"/>
  <unicode hex="06AA"/>
  <anchor x="774" y="-52" name="bottom"/>
  <anchor x="387" y="558" name="top"/>
  <outline>
    <contour>
      <point x="286" y="0" type="curve" smooth="yes"/>
      <point x="502" y="0"/>
      <point x="766" y="17"/>
      <point x="942" y="44" type="curve"/>
      <point x="957" y="76"/>
      <point x="964" y="103"/>
      <point x="964" y="125" type="curve" smooth="yes"/>
      <point x="964" y="154"/>
      <point x="956" y="178"/>
      <point x="940" y="199" type="curve" smooth="yes"/>
      <point x="909" y="241"/>
      <point x="850" y="264"/>
      <point x="784" y="264" type="curve" smooth="yes"/>
      <point x="743" y="264"/>
      <point x="677" y="262"/>
      <point x="584" y="257" type="curve" smooth="yes"/>
      <point x="492" y="252"/>
      <point x="427" y="250"/>
      <point x="389" y="250" type="curve" smooth="yes"/>
      <point x="341" y="250"/>
      <point x="280" y="266"/>
      <point x="280" y="283" type="curve" smooth="yes"/>
      <point x="280" y="292"/>
      <point x="289" y="305"/>
      <point x="307" y="320" type="curve" smooth="yes"/>
      <point x="343" y="350"/>
      <point x="427" y="398"/>
      <point x="483" y="421" type="curve" smooth="yes"/>
      <point x="514" y="433"/>
      <point x="529" y="458"/>
      <point x="529" y="494" type="curve" smooth="yes"/>
      <point x="529" y="502"/>
      <point x="528" y="510"/>
      <point x="526" y="519" type="curve"/>
      <point x="452" y="499"/>
      <point x="374" y="458"/>
      <point x="322" y="411" type="curve" smooth="yes"/>
      <point x="269" y="365"/>
      <point x="244" y="316"/>
      <point x="244" y="265" type="curve" smooth="yes"/>
      <point x="244" y="198"/>
      <point x="281" y="172"/>
      <point x="371" y="172" type="curve" smooth="yes"/>
      <point x="419" y="172"/>
      <point x="490" y="175"/>
      <point x="583" y="181" type="curve" smooth="yes"/>
      <point x="676" y="186"/>
      <point x="744" y="188"/>
      <point x="786" y="188" type="curve" smooth="yes"/>
      <point x="862" y="188"/>
      <point x="906" y="164"/>
      <point x="926" y="106" type="curve"/>
      <point x="775" y="88"/>
      <point x="520" y="76"/>
      <point x="271" y="76" type="curve" smooth="yes"/>
      <point x="173" y="76"/>
      <point x="86" y="84"/>
      <point x="10" y="100" type="curve"/>
      <point x="9" y="39"/>
      <point x="21" y="23"/>
      <point x="85" y="10" type="curve" smooth="yes"/>
      <point x="118" y="2"/>
      <point x="174" y="0"/>
    </contour>
  </outline>
</glyph>
<glyph name="uni06BA" format="2">
  <advance width="586"/>
  <unicode hex="06BA"/>
  <unicode hex="FB9E"/>
  <anchor x="264" y="-311" name="bottom"/>
  <anchor x="263" y="226" name="top"/>
  <outline>
    <contour>
      <point x="249" y="-262" type="curve" smooth="yes"/>
      <point x="297" y="-262"/>
      <point x="344" y="-250"/>
      <point x="389" y="-226" type="curve" smooth="yes"/>
      <point x="480" y="-179"/>
      <point x="535" y="-99"/>
      <point x="535" y="-17" type="curve" smooth="yes"/>
      <point x="535" y="11"/>
      <point x="530" y="49"/>
      <point x="521" y="97" type="curve" smooth="yes"/>
      <point x="509" y="160"/>
      <point x="501" y="203"/>
      <point x="498" y="226" type="curve"/>
      <point x="450" y="197"/>
      <point x="433" y="171"/>
      <point x="433" y="137" type="curve" smooth="yes"/>
      <point x="433" y="105"/>
      <point x="454" y="41"/>
      <point x="498" y="-54" type="curve"/>
      <point x="465" y="-125"/>
      <point x="350" y="-179"/>
      <point x="251" y="-179" type="curve" smooth="yes"/>
      <point x="164" y="-179"/>
      <point x="113" y="-122"/>
      <point x="113" y="-24" type="curve" smooth="yes"/>
      <point x="113" y="-6"/>
      <point x="117" y="18"/>
      <point x="124" y="47" type="curve"/>
      <point x="87" y="56" type="line"/>
      <point x="71" y="-10"/>
      <point x="68" y="-35"/>
      <point x="68" y="-74" type="curve" smooth="yes"/>
      <point x="68" y="-194"/>
      <point x="135" y="-262"/>
    </contour>
  </outline>
</glyph>
<glyph name="uni06BE" format="2">
  <advance width="631"/>
  <unicode hex="06BE"/>
  <unicode hex="FBAA"/>
  <anchor x="320" y="-67" name="bottom"/>
  <anchor x="268" y="482" name="top"/>
  <outline>
    <contour>
      <point x="529" y="-18" type="curve"/>
      <point x="563" y="39"/>
      <point x="580" y="84"/>
      <point x="580" y="116" type="curve" smooth="yes"/>
      <point x="580" y="161"/>
      <point x="567" y="205"/>
      <point x="542" y="248" type="curve" smooth="yes"/>
      <point x="492" y="334"/>
      <point x="398" y="402"/>
      <point x="287" y="433" type="curve"/>
      <point x="264" y="368" type="line"/>
      <point x="214" y="343"/>
      <point x="176" y="268"/>
      <point x="176" y="207" type="curve" smooth="yes"/>
      <point x="176" y="164"/>
      <point x="196" y="125"/>
      <point x="238" y="90" type="curve"/>
      <point x="205" y="81"/>
      <point x="171" y="76"/>
      <point x="137" y="76" type="curve" smooth="yes"/>
      <point x="91" y="76"/>
      <point x="54" y="79"/>
      <point x="26" y="84" type="curve"/>
      <point x="17" y="50" type="line"/>
      <point x="77" y="17"/>
      <point x="122" y="0"/>
      <point x="151" y="0" type="curve" smooth="yes"/>
      <point x="206" y="0"/>
      <point x="258" y="15"/>
      <point x="307" y="44" type="curve"/>
      <point x="368" y="13"/>
      <point x="442" y="-8"/>
    </contour>
    <contour>
      <point x="312" y="125" type="curve"/>
      <point x="274" y="148"/>
      <point x="240" y="175"/>
      <point x="211" y="208" type="curve"/>
      <point x="217" y="227"/>
      <point x="224" y="245"/>
      <point x="235" y="260" type="curve" smooth="yes"/>
      <point x="256" y="291"/>
      <point x="283" y="309"/>
      <point x="304" y="309" type="curve" smooth="yes"/>
      <point x="333" y="309"/>
      <point x="363" y="269"/>
      <point x="363" y="231" type="curve" smooth="yes"/>
      <point x="363" y="187"/>
      <point x="346" y="152"/>
    </contour>
    <contour>
      <point x="526" y="55" type="curve"/>
      <point x="472" y="62"/>
      <point x="420" y="75"/>
      <point x="370" y="95" type="curve"/>
      <point x="405" y="134"/>
      <point x="422" y="178"/>
      <point x="422" y="228" type="curve" smooth="yes"/>
      <point x="422" y="256"/>
      <point x="415" y="283"/>
      <point x="400" y="308" type="curve"/>
      <point x="475" y="244"/>
      <point x="526" y="142"/>
    </contour>
  </outline>
</glyph>
<glyph name="uni06C5" format="2">
  <advance width="468"/>
  <unicode hex="06C5"/>
  <unicode hex="FBE0"/>
  <anchor x="192" y="-252" name="bottom"/>
  <anchor x="256" y="389" name="top"/>
  <outline>
    <contour>
      <point x="193" y="-203" type="curve" smooth="yes"/>
      <point x="232" y="-203"/>
      <point x="269" y="-190"/>
      <point x="303" y="-165" type="curve" smooth="yes"/>
      <point x="371" y="-114"/>
      <point x="417" y="-14"/>
      <point x="417" y="81" type="curve" smooth="yes"/>
      <point x="417" y="122"/>
      <point x="410" y="164"/>
      <point x="394" y="207" type="curve" smooth="yes"/>
      <point x="363" y="292"/>
      <point x="313" y="340"/>
      <point x="261" y="340" type="curve" smooth="yes"/>
      <point x="239" y="340"/>
      <point x="216" y="330"/>
      <point x="194" y="310" type="curve" smooth="yes"/>
      <point x="150" y="269"/>
      <point x="120" y="197"/>
      <point x="120" y="129" type="curve" smooth="yes"/>
      <point x="120" y="51"/>
      <point x="168" y="0"/>
      <point x="245" y="0" type="curve" smooth="yes"/>
      <point x="292" y="0"/>
      <point x="340" y="20"/>
      <point x="379" y="57" type="curve"/>
      <point x="380" y="49" type="line"/>
      <point x="366" y="5"/>
      <point x="346" y="-32"/>
      <point x="320" y="-61" type="curve"/>
      <point x="305" y="-58"/>
      <point x="285" y="-52"/>
      <point x="263" y="-43" type="curve" smooth="yes"/>
      <point x="238" y="-33"/>
      <point x="219" y="-28"/>
      <point x="204" y="-28" type="curve" smooth="yes"/>
      <point x="184" y="-28"/>
      <point x="174" y="-32"/>
      <point x="140" y="-59" type="curve"/>
      <point x="156" y="-84" type="line"/>
      <point x="175" y="-76"/>
      <point x="191" y="-71"/>
      <point x="203" y="-71" type="curve" smooth="yes"/>
      <point x="223" y="-71"/>
      <point x="238" y="-76"/>
      <point x="282" y="-93" type="curve"/>
      <point x="250" y="-114"/>
      <point x="212" y="-125"/>
      <point x="170" y="-125" type="curve" smooth="yes"/>
      <point x="125" y="-125"/>
      <point x="84" y="-119"/>
      <point x="48" y="-106" type="curve"/>
      <point x="34" y="-139" type="line"/>
      <point x="70" y="-170"/>
      <point x="150" y="-203"/>
    </contour>
    <contour>
      <point x="269" y="82" type="curve" smooth="yes"/>
      <point x="198" y="82"/>
      <point x="158" y="109"/>
      <point x="158" y="157" type="curve" smooth="yes"/>
      <point x="158" y="170"/>
      <point x="163" y="185"/>
      <point x="171" y="200" type="curve" smooth="yes"/>
      <point x="189" y="232"/>
      <point x="218" y="255"/>
      <point x="246" y="255" type="curve" smooth="yes"/>
      <point x="295" y="255"/>
      <point x="347" y="192"/>
      <point x="370" y="104" type="curve"/>
      <point x="323" y="85"/>
      <point x="302" y="82"/>
    </contour>
  </outline>
</glyph>
<glyph name="uni06CD" format="2">
  <advance width="753"/>
  <unicode hex="06CD"/>
  <anchor x="384" y="-311" name="bottom"/>
  <anchor x="370" y="314" name="top"/>
  <outline>
    <contour>
      <point x="384" y="-262" type="curve" smooth="yes"/>
      <point x="429" y="-262"/>
      <point x="477" y="-251"/>
      <point x="529" y="-229" type="curve" smooth="yes"/>
      <point x="634" y="-185"/>
      <point x="718" y="-108"/>
      <point x="718" y="-47" type="curve" smooth="yes"/>
      <point x="718" y="-15"/>
      <point x="710" y="6"/>
      <point x="687" y="21" type="curve" smooth="yes"/>
      <point x="667" y="34"/>
      <point x="635" y="42"/>
      <point x="587" y="49" type="curve" smooth="yes"/>
      <point x="533" y="57"/>
      <point x="496" y="69"/>
      <point x="477" y="87" type="curve"/>
      <point x="483" y="112"/>
      <point x="495" y="137"/>
      <point x="516" y="164" type="curve" smooth="yes"/>
      <point x="556" y="216"/>
      <point x="616" y="258"/>
      <point x="651" y="258" type="curve" smooth="yes"/>
      <point x="668" y="258"/>
      <point x="674" y="256"/>
      <point x="684" y="243" type="curve"/>
      <point x="719" y="253" type="line"/>
      <point x="707" y="307"/>
      <point x="687" y="340"/>
      <point x="642" y="340" type="curve" smooth="yes"/>
      <point x="616" y="340"/>
      <point x="587" y="326"/>
      <point x="554" y="297" type="curve" smooth="yes"/>
      <point x="489" y="240"/>
      <point x="441" y="152"/>
      <point x="441" y="91" type="curve" smooth="yes"/>
      <point x="441" y="61"/>
      <point x="447" y="37"/>
      <point x="460" y="18" type="curve" smooth="yes"/>
      <point x="486" y="-20"/>
      <point x="530" y="-33"/>
      <point x="630" y="-41" type="curve" smooth="yes"/>
      <point x="648" y="-43"/>
      <point x="666" y="-45"/>
      <point x="683" y="-48" type="curve"/>
      <point x="672" y="-70"/>
      <point x="651" y="-91"/>
      <point x="619" y="-111" type="curve" smooth="yes"/>
      <point x="557" y="-151"/>
      <point x="458" y="-179"/>
      <point x="387" y="-179" type="curve" smooth="yes"/>
      <point x="299" y="-179"/>
      <point x="248" y="-122"/>
      <point x="248" y="-24" type="curve" smooth="yes"/>
      <point x="248" y="4"/>
      <point x="256" y="38"/>
      <point x="268" y="76" type="curve"/>
      <point x="235" y="92" type="line"/>
      <point x="172" y="60"/>
      <point x="93" y="19"/>
      <point x="80" y="4" type="curve" smooth="yes"/>
      <point x="71" y="-7"/>
      <point x="70" y="-13"/>
      <point x="68" y="-30" type="curve" smooth="yes"/>
      <point x="68" y="-41"/>
      <point x="71" y="-51"/>
      <point x="77" y="-61" type="curve"/>
      <point x="122" y="-37"/>
      <point x="166" y="-13"/>
      <point x="210" y="11" type="curve"/>
      <point x="205" y="-14"/>
      <point x="203" y="-42"/>
      <point x="203" y="-74" type="curve" smooth="yes"/>
      <point x="203" y="-194"/>
      <point x="270" y="-262"/>
    </contour>
  </outline>
</glyph>
<glyph name="uni06D2" format="2">
  <advance width="773"/>
  <unicode hex="06D2"/>
  <unicode hex="FBAE"/>
  <anchor x="459" y="-52" name="bottom"/>
  <anchor x="242" y="361" name="top"/>
  <outline>
    <contour>
      <point x="406" y="0" type="curve" smooth="yes"/>
      <point x="516" y="0"/>
      <point x="666" y="18"/>
      <point x="720" y="45" type="curve" smooth="yes"/>
      <point x="744" y="57"/>
      <point x="755" y="71"/>
      <point x="755" y="89" type="curve" smooth="yes"/>
      <point x="755" y="100"/>
      <point x="751" y="111"/>
      <point x="741" y="122" type="curve"/>
      <point x="647" y="94"/>
      <point x="521" y="76"/>
      <point x="419" y="76" type="curve" smooth="yes"/>
      <point x="280" y="76"/>
      <point x="189" y="88"/>
      <point x="114" y="118" type="curve"/>
      <point x="146" y="140"/>
      <point x="167" y="153"/>
      <point x="195" y="165" type="curve" smooth="yes"/>
      <point x="218" y="175"/>
      <point x="247" y="185"/>
      <point x="292" y="198" type="curve" smooth="yes"/>
      <point x="334" y="211"/>
      <point x="359" y="238"/>
      <point x="379" y="297" type="curve"/>
      <point x="348" y="314" type="line"/>
      <point x="335" y="289"/>
      <point x="317" y="268"/>
      <point x="271" y="253" type="curve" smooth="yes"/>
      <point x="221" y="236"/>
      <point x="192" y="226"/>
      <point x="183" y="222" type="curve" smooth="yes"/>
      <point x="149" y="206"/>
      <point x="121" y="187"/>
      <point x="101" y="166" type="curve" smooth="yes"/>
      <point x="88" y="153"/>
      <point x="68" y="80"/>
      <point x="68" y="52" type="curve" smooth="yes"/>
      <point x="68" y="45"/>
      <point x="84" y="37"/>
      <point x="116" y="29" type="curve" smooth="yes"/>
      <point x="187" y="11"/>
      <point x="312" y="0"/>
    </contour>
  </outline>
</glyph>
<glyph name="uni06D6" format="2">
  <unicode hex="06D6"/>
  <anchor x="9" y="479" name="_top"/>
  <anchor x="9" y="479" name="_top2"/>
  <anchor x="9" y="479" name="_top3"/>
  <anchor x="50" y="833" name="top3"/>
  <outline>
    <contour>
      <point x="-123" y="489" type="curve" smooth="yes"/>
      <point x="-79" y="489"/>
      <point x="3" y="486"/>
      <point x="3" y="514" type="curve" smooth="yes"/>
      <point x="3" y="518"/>
      <point x="1" y="523"/>
      <point x="-2" y="527" type="curve"/>
      <point x="-31" y="521"/>
      <point x="-70" y="518"/>
      <point x="-121" y="518" type="curve" smooth="yes"/>
      <point x="-164" y="518"/>
      <point x="-211" y="523"/>
      <point x="-231" y="529" type="curve"/>
      <point x="-202" y="548"/>
      <point x="-135" y="567"/>
      <point x="-96" y="575" type="curve" smooth="yes"/>
      <point x="-73" y="580" type="line"/>
      <point x="-63" y="570"/>
      <point x="-49" y="566"/>
      <point x="-30" y="566" type="curve" smooth="yes"/>
      <point x="-11" y="566"/>
      <point x="3" y="570"/>
      <point x="12" y="580" type="curve"/>
      <point x="18" y="587" type="line"/>
      <point x="39" y="575"/>
      <point x="79" y="566"/>
      <point x="120" y="566" type="curve" smooth="yes"/>
      <point x="142" y="566"/>
      <point x="162" y="569"/>
      <point x="180" y="576" type="curve" smooth="yes"/>
      <point x="217" y="589"/>
      <point x="241" y="611"/>
      <point x="241" y="646" type="curve" smooth="yes"/>
      <point x="241" y="666"/>
      <point x="198" y="700"/>
      <point x="174" y="700" type="curve" smooth="yes"/>
      <point x="140" y="700"/>
      <point x="99" y="668"/>
      <point x="52" y="604" type="curve"/>
      <point x="33" y="612" type="line"/>
      <point x="44" y="638" type="line"/>
      <point x="42" y="640"/>
      <point x="39" y="642"/>
      <point x="35" y="642" type="curve" smooth="yes"/>
      <point x="30" y="642"/>
      <point x="26" y="639"/>
      <point x="23" y="635" type="curve" smooth="yes"/>
      <point x="12" y="616" type="line" smooth="yes"/>
      <point x="5" y="604"/>
      <point x="-6" y="595"/>
      <point x="-30" y="595" type="curve" smooth="yes"/>
      <point x="-43" y="595"/>
      <point x="-56" y="598"/>
      <point x="-69" y="604" type="curve"/>
      <point x="-71" y="712" type="line" smooth="yes"/>
      <point x="-71" y="757"/>
      <point x="-72" y="793"/>
      <point x="-74" y="819" type="curve"/>
      <point x="-82" y="813"/>
      <point x="-90" y="806"/>
      <point x="-99" y="798" type="curve"/>
      <point x="-92" y="697"/>
      <point x="-87" y="633"/>
      <point x="-84" y="604" type="curve"/>
      <point x="-169" y="589"/>
      <point x="-206" y="572"/>
      <point x="-239" y="543" type="curve"/>
      <point x="-243" y="537"/>
      <point x="-249" y="516"/>
      <point x="-249" y="512" type="curve" smooth="yes"/>
      <point x="-249" y="507"/>
      <point x="-235" y="502"/>
      <point x="-207" y="497" type="curve" smooth="yes"/>
      <point x="-179" y="491"/>
      <point x="-151" y="489"/>
    </contour>
    <contour>
      <point x="124" y="595" type="curve" smooth="yes"/>
      <point x="105" y="595"/>
      <point x="87" y="597"/>
      <point x="69" y="600" type="curve"/>
      <point x="106" y="645"/>
      <point x="141" y="669"/>
      <point x="166" y="669" type="curve" smooth="yes"/>
      <point x="183" y="669"/>
      <point x="208" y="656"/>
      <point x="224" y="627" type="curve"/>
      <point x="190" y="605"/>
      <point x="157" y="595"/>
    </contour>
  </outline>
</glyph>
<glyph name="uni06D7" format="2">
  <unicode hex="06D7"/>
  <anchor x="0" y="479" name="_top"/>
  <anchor x="0" y="479" name="_top2"/>
  <anchor x="0" y="479" name="_top3"/>
  <anchor x="-94" y="829" name="top3"/>
  <outline>
    <contour>
      <point x="-50" y="489" type="curve" smooth="yes"/>
      <point x="-11" y="489"/>
      <point x="20" y="490"/>
      <point x="42" y="493" type="curve" smooth="yes"/>
      <point x="65" y="495"/>
      <point x="77" y="502"/>
      <point x="77" y="514" type="curve" smooth="yes"/>
      <point x="77" y="518"/>
      <point x="75" y="522"/>
      <point x="71" y="527" type="curve"/>
      <point x="42" y="521"/>
      <point x="3" y="518"/>
      <point x="-47" y="518" type="curve" smooth="yes"/>
      <point x="-90" y="518"/>
      <point x="-137" y="523"/>
      <point x="-158" y="529" type="curve"/>
      <point x="-142" y="539"/>
      <point x="-115" y="550"/>
      <point x="-77" y="561" type="curve" smooth="yes"/>
      <point x="-65" y="565"/>
      <point x="-39" y="571"/>
      <point x="0" y="580" type="curve"/>
      <point x="11" y="570"/>
      <point x="25" y="566"/>
      <point x="44" y="566" type="curve" smooth="yes"/>
      <point x="95" y="566"/>
      <point x="133" y="570"/>
      <point x="168" y="593" type="curve"/>
      <point x="178" y="611"/>
      <point x="182" y="624"/>
      <point x="182" y="631" type="curve" smooth="yes"/>
      <point x="182" y="689"/>
      <point x="156" y="740"/>
      <point x="115" y="740" type="curve" smooth="yes"/>
      <point x="90" y="740"/>
      <point x="68" y="707"/>
      <point x="68" y="667" type="curve" smooth="yes"/>
      <point x="68" y="643"/>
      <point x="83" y="624"/>
      <point x="105" y="624" type="curve" smooth="yes"/>
      <point x="124" y="624"/>
      <point x="146" y="632"/>
      <point x="159" y="644" type="curve"/>
      <point x="164" y="615" type="line"/>
      <point x="135" y="601"/>
      <point x="95" y="595"/>
      <point x="44" y="595" type="curve" smooth="yes"/>
      <point x="31" y="595"/>
      <point x="17" y="598"/>
      <point x="4" y="604" type="curve"/>
      <point x="0" y="819" type="line"/>
      <point x="-10" y="812"/>
      <point x="-18" y="805"/>
      <point x="-26" y="798" type="curve"/>
      <point x="-23" y="765"/>
      <point x="-21" y="733"/>
      <point x="-19" y="699" type="curve" smooth="yes"/>
      <point x="-17" y="666"/>
      <point x="-14" y="635"/>
      <point x="-11" y="604" type="curve"/>
      <point x="-98" y="588"/>
      <point x="-134" y="571"/>
      <point x="-166" y="543" type="curve"/>
      <point x="-169" y="539"/>
      <point x="-175" y="518"/>
      <point x="-175" y="512" type="curve" smooth="yes"/>
      <point x="-175" y="507"/>
      <point x="-162" y="502"/>
      <point x="-134" y="497" type="curve" smooth="yes"/>
      <point x="-107" y="491"/>
      <point x="-78" y="489"/>
    </contour>
    <contour>
      <point x="114" y="652" type="curve" smooth="yes"/>
      <point x="93" y="652"/>
      <point x="83" y="660"/>
      <point x="83" y="674" type="curve" smooth="yes"/>
      <point x="83" y="693"/>
      <point x="94" y="708"/>
      <point x="110" y="708" type="curve" smooth="yes"/>
      <point x="129" y="708"/>
      <point x="146" y="689"/>
      <point x="154" y="662" type="curve"/>
      <point x="139" y="655"/>
      <point x="126" y="652"/>
    </contour>
    <contour>
      <point x="77" y="758" type="curve"/>
      <point x="89" y="770"/>
      <point x="96" y="779"/>
      <point x="99" y="784" type="curve"/>
      <point x="76" y="807" type="line"/>
      <point x="52" y="782" type="line"/>
      <point x="57" y="775"/>
      <point x="65" y="767"/>
    </contour>
    <contour>
      <point x="133" y="764" type="curve"/>
      <point x="144" y="774"/>
      <point x="151" y="782"/>
      <point x="156" y="790" type="curve"/>
      <point x="133" y="812" type="line"/>
      <point x="108" y="787" type="line"/>
      <point x="117" y="778"/>
      <point x="125" y="770"/>
    </contour>
  </outline>
</glyph>
<glyph name="uni06D8" format="2">
  <unicode hex="06D8"/>
  <anchor x="-1" y="439" name="_top"/>
  <anchor x="-1" y="439" name="_top2"/>
  <anchor x="-1" y="439" name="_top3"/>
  <anchor x="-9" y="601" name="top3"/>
  <outline>
    <contour>
      <point x="-160" y="397" type="curve" smooth="yes"/>
      <point x="-104" y="397"/>
      <point x="-61" y="429"/>
      <point x="-33" y="471" type="curve"/>
      <point x="-10" y="458"/>
      <point x="23" y="449"/>
      <point x="51" y="449" type="curve"/>
      <point x="62" y="457"/>
      <point x="70" y="468"/>
      <point x="70" y="488" type="curve" smooth="yes"/>
      <point x="70" y="526"/>
      <point x="49" y="577"/>
      <point x="24" y="577" type="curve" smooth="yes"/>
      <point x="-7" y="577"/>
      <point x="-18" y="538"/>
      <point x="-36" y="510" type="curve" smooth="yes"/>
      <point x="-73" y="448"/>
      <point x="-120" y="411"/>
      <point x="-194" y="411" type="curve"/>
      <point x="-194" y="401" type="line"/>
      <point x="-181" y="399"/>
      <point x="-170" y="397"/>
    </contour>
    <contour>
      <point x="43" y="478" type="curve"/>
      <point x="19" y="479"/>
      <point x="2" y="485"/>
      <point x="-19" y="497" type="curve"/>
      <point x="-11" y="512"/>
      <point x="-5" y="523"/>
      <point x="1" y="531" type="curve" smooth="yes"/>
      <point x="7" y="539"/>
      <point x="12" y="543"/>
      <point x="18" y="543" type="curve" smooth="yes"/>
      <point x="30" y="543"/>
      <point x="42" y="504"/>
    </contour>
  </outline>
</glyph>
<glyph name="uni06D9" format="2">
  <unicode hex="06D9"/>
  <anchor x="0" y="456" name="_top"/>
  <anchor x="0" y="456" name="_top2"/>
  <anchor x="0" y="456" name="_top3"/>
  <anchor x="-38" y="744" name="top3"/>
  <outline>
    <contour>
      <point x="-64" y="465" type="line"/>
      <point x="-44" y="465" type="line" smooth="yes"/>
      <point x="-5" y="465"/>
      <point x="26" y="467"/>
      <point x="48" y="472" type="curve"/>
      <point x="52" y="474"/>
      <point x="60" y="490"/>
      <point x="60" y="497" type="curve" smooth="yes"/>
      <point x="60" y="503"/>
      <point x="50" y="521"/>
      <point x="31" y="553" type="curve"/>
      <point x="41" y="570"/>
      <point x="46" y="589"/>
      <point x="46" y="609" type="curve" smooth="yes"/>
      <point x="43" y="671" type="line"/>
      <point x="53" y="680" type="line"/>
      <point x="46" y="702"/>
      <point x="42" y="717"/>
      <point x="40" y="725" type="curve"/>
      <point x="23" y="721"/>
      <point x="14" y="713"/>
      <point x="14" y="700" type="curve"/>
      <point x="19" y="671" type="line" smooth="yes"/>
      <point x="24" y="637"/>
      <point x="27" y="613"/>
      <point x="27" y="602" type="curve" smooth="yes"/>
      <point x="27" y="591"/>
      <point x="25" y="581"/>
      <point x="20" y="571" type="curve" smooth="yes"/>
      <point x="20" y="569" type="line"/>
      <point x="-3" y="597"/>
      <point x="-50" y="641"/>
      <point x="-90" y="670" type="curve"/>
      <point x="-98" y="666"/>
      <point x="-103" y="659"/>
      <point x="-103" y="648" type="curve" smooth="yes"/>
      <point x="-102" y="639"/>
      <point x="-96" y="628"/>
      <point x="-84" y="617" type="curve"/>
      <point x="-71" y="617" type="line"/>
      <point x="-45" y="603"/>
      <point x="-18" y="580"/>
      <point x="9" y="551" type="curve"/>
      <point x="-2" y="536"/>
      <point x="-22" y="517"/>
      <point x="-51" y="494" type="curve"/>
      <point x="-60" y="494" type="line" smooth="yes"/>
      <point x="-62" y="494"/>
      <point x="-65" y="478"/>
      <point x="-65" y="470" type="curve"/>
    </contour>
    <contour>
      <point x="-21" y="495" type="line"/>
      <point x="-5" y="507"/>
      <point x="9" y="521"/>
      <point x="21" y="536" type="curve"/>
      <point x="31" y="523"/>
      <point x="39" y="512"/>
      <point x="44" y="501" type="curve"/>
      <point x="27" y="499"/>
      <point x="9" y="497"/>
      <point x="-10" y="496" type="curve" smooth="yes"/>
    </contour>
  </outline>
</glyph>
<glyph name="uni06DA" format="2">
  <unicode hex="06DA"/>
  <anchor x="0" y="375" name="_top"/>
  <anchor x="0" y="375" name="_top2"/>
  <anchor x="0" y="375" name="_top3"/>
  <anchor x="-7" y="669" name="top3"/>
  <outline>
    <contour>
      <point x="2" y="385" type="curve" smooth="yes"/>
      <point x="31" y="385"/>
      <point x="63" y="395"/>
      <point x="100" y="414" type="curve"/>
      <point x="95" y="427" type="line"/>
      <point x="64" y="420"/>
      <point x="33" y="417"/>
      <point x="3" y="417" type="curve" smooth="yes"/>
      <point x="-47" y="417"/>
      <point x="-83" y="442"/>
      <point x="-83" y="481" type="curve" smooth="yes"/>
      <point x="-83" y="499"/>
      <point x="-76" y="516"/>
      <point x="-63" y="532" type="curve" smooth="yes"/>
      <point x="-37" y="563"/>
      <point x="18" y="586"/>
      <point x="62" y="588" type="curve" smooth="yes"/>
      <point x="81" y="590" type="line"/>
      <point x="91" y="619" type="line"/>
      <point x="78" y="618" type="line"/>
      <point x="66" y="618" type="line" smooth="yes"/>
      <point x="51" y="618"/>
      <point x="29" y="623"/>
      <point x="1" y="631" type="curve" smooth="yes"/>
      <point x="-28" y="640"/>
      <point x="-49" y="645"/>
      <point x="-62" y="645" type="curve" smooth="yes"/>
      <point x="-89" y="645"/>
      <point x="-108" y="632"/>
      <point x="-108" y="613" type="curve" smooth="yes"/>
      <point x="-108" y="610"/>
      <point x="-106" y="605"/>
      <point x="-103" y="598" type="curve"/>
      <point x="-90" y="606"/>
      <point x="-81" y="613"/>
      <point x="-61" y="613" type="curve" smooth="yes"/>
      <point x="-54" y="613"/>
      <point x="-47" y="612"/>
      <point x="-39" y="609" type="curve" smooth="yes"/>
      <point x="-8" y="599" type="line"/>
      <point x="-58" y="580"/>
      <point x="-95" y="533"/>
      <point x="-95" y="481" type="curve" smooth="yes"/>
      <point x="-95" y="420"/>
      <point x="-59" y="385"/>
    </contour>
    <contour>
      <point x="1" y="453" type="curve"/>
      <point x="11" y="463"/>
      <point x="19" y="472"/>
      <point x="26" y="481" type="curve"/>
      <point x="19" y="486"/>
      <point x="11" y="495"/>
      <point x="1" y="505" type="curve"/>
      <point x="-25" y="478" type="line"/>
      <point x="-19" y="470"/>
      <point x="-10" y="462"/>
    </contour>
  </outline>
</glyph>
<glyph name="uni06DB" format="2">
  <unicode hex="06DB"/>
  <anchor x="0" y="274" name="_top"/>
  <anchor x="0" y="274" name="_top2"/>
  <anchor x="0" y="274" name="_top3"/>
  <anchor x="-1" y="466" name="top3"/>
  <outline>
    <contour>
      <point x="54" y="292" type="curve"/>
      <point x="67" y="304"/>
      <point x="80" y="319"/>
      <point x="93" y="337" type="curve"/>
      <point x="53" y="377" type="line"/>
      <point x="33" y="356" type="line"/>
      <point x="10" y="333" type="line"/>
      <point x="19" y="323"/>
      <point x="33" y="310"/>
    </contour>
    <contour>
      <point x="-51" y="284" type="curve"/>
      <point x="-37" y="296"/>
      <point x="-24" y="311"/>
      <point x="-12" y="329" type="curve"/>
      <point x="-52" y="368" type="line"/>
      <point x="-76" y="343"/>
      <point x="-90" y="328"/>
      <point x="-95" y="324" type="curve"/>
      <point x="-82" y="310"/>
      <point x="-68" y="296"/>
    </contour>
    <contour>
      <point x="0" y="366" type="curve"/>
      <point x="5" y="369"/>
      <point x="17" y="381"/>
      <point x="37" y="402" type="curve"/>
      <point x="20" y="417"/>
      <point x="7" y="430"/>
      <point x="-2" y="442" type="curve"/>
      <point x="-13" y="429"/>
      <point x="-26" y="416"/>
      <point x="-42" y="402" type="curve"/>
      <point x="-29" y="386"/>
      <point x="-15" y="374"/>
    </contour>
  </outline>
</glyph>
<glyph name="uni06DC" format="2">
  <unicode hex="06DC"/>
  <anchor x="75" y="422" name="_top"/>
  <anchor x="75" y="422" name="_top2"/>
  <anchor x="75" y="422" name="_top3"/>
  <anchor x="5" y="647" name="top3"/>
  <outline>
    <contour>
      <point x="-92" y="422" type="curve" smooth="yes"/>
      <point x="-37" y="422"/>
      <point x="16" y="466"/>
      <point x="16" y="514" type="curve" smooth="yes"/>
      <point x="16" y="528" type="line"/>
      <point x="18" y="528" type="line"/>
      <point x="29" y="528" type="line" smooth="yes"/>
      <point x="59" y="528"/>
      <point x="75" y="531"/>
      <point x="79" y="538" type="curve" smooth="yes"/>
      <point x="82" y="543" type="line"/>
      <point x="110" y="531"/>
      <point x="132" y="528"/>
      <point x="162" y="528" type="curve"/>
      <point x="167" y="539"/>
      <point x="176" y="563"/>
      <point x="176" y="574" type="curve" smooth="yes"/>
      <point x="176" y="586"/>
      <point x="174" y="598"/>
      <point x="171" y="613" type="curve" smooth="yes"/>
      <point x="167" y="627"/>
      <point x="164" y="641"/>
      <point x="162" y="656" type="curve"/>
      <point x="145" y="646"/>
      <point x="137" y="635"/>
      <point x="137" y="624" type="curve" smooth="yes"/>
      <point x="137" y="618"/>
      <point x="139" y="610"/>
      <point x="144" y="599" type="curve" smooth="yes"/>
      <point x="149" y="588"/>
      <point x="154" y="574"/>
      <point x="158" y="558" type="curve"/>
      <point x="131" y="558"/>
      <point x="118" y="560"/>
      <point x="92" y="572" type="curve"/>
      <point x="93" y="576" type="line" smooth="yes"/>
      <point x="99" y="597"/>
      <point x="104" y="611"/>
      <point x="108" y="620" type="curve"/>
      <point x="106" y="622"/>
      <point x="103" y="623"/>
      <point x="100" y="623" type="curve" smooth="yes"/>
      <point x="94" y="623"/>
      <point x="90" y="620"/>
      <point x="86" y="614" type="curve" smooth="yes"/>
      <point x="83" y="608"/>
      <point x="78" y="594"/>
      <point x="71" y="571" type="curve"/>
      <point x="66" y="561" type="line"/>
      <point x="59" y="558"/>
      <point x="48" y="557"/>
      <point x="34" y="557" type="curve" smooth="yes"/>
      <point x="25" y="557"/>
      <point x="17" y="558"/>
      <point x="10" y="560" type="curve"/>
      <point x="7" y="574"/>
      <point x="4" y="589"/>
      <point x="1" y="606" type="curve"/>
      <point x="-12" y="598"/>
      <point x="-23" y="589"/>
      <point x="-23" y="573" type="curve" smooth="yes"/>
      <point x="-23" y="559"/>
      <point x="-15" y="535"/>
      <point x="1" y="500" type="curve"/>
      <point x="-12" y="473"/>
      <point x="-53" y="454"/>
      <point x="-91" y="454" type="curve" smooth="yes"/>
      <point x="-122" y="454"/>
      <point x="-144" y="473"/>
      <point x="-144" y="512" type="curve" smooth="yes"/>
      <point x="-144" y="518"/>
      <point x="-142" y="527"/>
      <point x="-139" y="538" type="curve"/>
      <point x="-153" y="542" type="line"/>
      <point x="-158" y="524"/>
      <point x="-160" y="508"/>
      <point x="-160" y="493" type="curve" smooth="yes"/>
      <point x="-160" y="452"/>
      <point x="-139" y="422"/>
    </contour>
  </outline>
</glyph>
<glyph name="uni06DD" format="2">
  <advance width="189"/>
  <unicode hex="06DD"/>
  <outline>
    <contour>
      <point x="630" y="-271" type="curve"/>
      <point x="652" y="-240"/>
      <point x="692" y="-204"/>
      <point x="738" y="-194" type="curve" smooth="yes"/>
      <point x="932" y="-149"/>
      <point x="1072" y="-46"/>
      <point x="1160" y="109" type="curve"/>
      <point x="1154" y="113"/>
      <point x="1148" y="117"/>
      <point x="1140" y="117" type="curve" smooth="yes"/>
      <point x="1135" y="117"/>
      <point x="1128" y="115"/>
      <point x="1120" y="109" type="curve"/>
      <point x="1168" y="198"/>
      <point x="1189" y="288"/>
      <point x="1189" y="392" type="curve" smooth="yes"/>
      <point x="1189" y="493"/>
      <point x="1168" y="583"/>
      <point x="1120" y="671" type="curve"/>
      <point x="1129" y="668"/>
      <point x="1135" y="667"/>
      <point x="1141" y="667" type="curve" smooth="yes"/>
      <point x="1145" y="667"/>
      <point x="1148" y="667"/>
      <point x="1151" y="668" type="curve" smooth="yes"/>
      <point x="1154" y="669"/>
      <point x="1157" y="670"/>
      <point x="1160" y="671" type="curve"/>
      <point x="1116" y="748"/>
      <point x="1056" y="815"/>
      <point x="984" y="866" type="curve" smooth="yes"/>
      <point x="912" y="917"/>
      <point x="828" y="954"/>
      <point x="738" y="973" type="curve" smooth="yes"/>
      <point x="688" y="984"/>
      <point x="652" y="1023"/>
      <point x="630" y="1056" type="curve"/>
      <point x="604" y="1022"/>
      <point x="570" y="978"/>
      <point x="529" y="973" type="curve" smooth="yes"/>
      <point x="441" y="961"/>
      <point x="358" y="924"/>
      <point x="286" y="871" type="curve" smooth="yes"/>
      <point x="214" y="818"/>
      <point x="153" y="748"/>
      <point x="111" y="671" type="curve"/>
      <point x="113" y="670"/>
      <point x="116" y="669"/>
      <point x="119" y="668" type="curve" smooth="yes"/>
      <point x="122" y="667"/>
      <point x="125" y="667"/>
      <point x="129" y="667" type="curve" smooth="yes"/>
      <point x="134" y="667"/>
      <point x="141" y="668"/>
      <point x="148" y="671" type="curve"/>
      <point x="103" y="583"/>
      <point x="71" y="492"/>
      <point x="71" y="392" type="curve" smooth="yes"/>
      <point x="71" y="340"/>
      <point x="79" y="292"/>
      <point x="93" y="245" type="curve" smooth="yes"/>
      <point x="106" y="198"/>
      <point x="126" y="153"/>
      <point x="148" y="109" type="curve"/>
      <point x="141" y="115"/>
      <point x="134" y="117"/>
      <point x="129" y="117" type="curve" smooth="yes"/>
      <point x="122" y="117"/>
      <point x="115" y="114"/>
      <point x="111" y="109" type="curve"/>
      <point x="154" y="32"/>
      <point x="208" y="-35"/>
      <point x="277" y="-86" type="curve" smooth="yes"/>
      <point x="345" y="-138"/>
      <point x="428" y="-175"/>
      <point x="529" y="-194" type="curve" smooth="yes"/>
      <point x="572" y="-200"/>
      <point x="607" y="-240"/>
    </contour>
    <contour>
      <point x="482" y="-146" type="curve"/>
      <point x="413" y="-122"/>
      <point x="351" y="-93"/>
      <point x="296" y="-53" type="curve"/>
      <point x="287" y="-48"/>
      <point x="282" y="-39"/>
      <point x="282" y="-29" type="curve" smooth="yes"/>
      <point x="282" y="-12"/>
      <point x="296" y="5"/>
      <point x="312" y="5" type="curve" smooth="yes"/>
      <point x="320" y="5"/>
      <point x="328" y="1"/>
      <point x="335" y="-6" type="curve"/>
      <point x="380" y="-35"/>
      <point x="447" y="-70"/>
      <point x="499" y="-86" type="curve"/>
      <point x="512" y="-91"/>
      <point x="523" y="-102"/>
      <point x="523" y="-115" type="curve" smooth="yes"/>
      <point x="523" y="-117"/>
      <point x="523" y="-119"/>
      <point x="522" y="-122" type="curve" smooth="yes"/>
      <point x="517" y="-141"/>
      <point x="499" y="-146"/>
    </contour>
    <contour>
      <point x="630" y="-183" type="curve" smooth="yes"/>
      <point x="599" y="-183"/>
      <point x="578" y="-161"/>
      <point x="578" y="-130" type="curve" smooth="yes"/>
      <point x="578" y="-98"/>
      <point x="599" y="-76"/>
      <point x="630" y="-76" type="curve" smooth="yes"/>
      <point x="662" y="-76"/>
      <point x="686" y="-100"/>
      <point x="686" y="-130" type="curve" smooth="yes"/>
      <point x="686" y="-161"/>
      <point x="663" y="-183"/>
    </contour>
    <contour>
      <point x="780" y="-144" type="curve"/>
      <point x="760" y="-144"/>
      <point x="739" y="-136"/>
      <point x="739" y="-112" type="curve" smooth="yes"/>
      <point x="739" y="-97"/>
      <point x="751" y="-88"/>
      <point x="764" y="-82" type="curve"/>
      <point x="818" y="-67"/>
      <point x="881" y="-34"/>
      <point x="928" y="-5" type="curve"/>
      <point x="936" y="3"/>
      <point x="944" y="7"/>
      <point x="951" y="7" type="curve" smooth="yes"/>
      <point x="959" y="7"/>
      <point x="966" y="3"/>
      <point x="973" y="-5" type="curve" smooth="yes"/>
      <point x="977" y="-10"/>
      <point x="980" y="-17"/>
      <point x="980" y="-24" type="curve" smooth="yes"/>
      <point x="980" y="-35"/>
      <point x="975" y="-44"/>
      <point x="965" y="-51" type="curve" smooth="yes"/>
      <point x="911" y="-88"/>
      <point x="850" y="-120"/>
    </contour>
    <contour>
      <point x="716" y="-57" type="curve" smooth="yes"/>
      <point x="684" y="-57"/>
      <point x="653" y="-40"/>
      <point x="630" y="-21" type="curve"/>
      <point x="608" y="-39"/>
      <point x="582" y="-56"/>
      <point x="548" y="-56" type="curve" smooth="yes"/>
      <point x="542" y="-56"/>
      <point x="536" y="-55"/>
      <point x="529" y="-53" type="curve" smooth="yes"/>
      <point x="433" y="-29"/>
      <point x="365" y="10"/>
      <point x="312" y="72" type="curve"/>
      <point x="305" y="68"/>
      <point x="292" y="66"/>
      <point x="280" y="66" type="curve"/>
      <point x="186" y="150"/>
      <point x="140" y="264"/>
      <point x="140" y="392" type="curve" smooth="yes"/>
      <point x="140" y="524"/>
      <point x="187" y="631"/>
      <point x="280" y="724" type="curve"/>
      <point x="292" y="717"/>
      <point x="306" y="716"/>
      <point x="312" y="716" type="curve"/>
      <point x="366" y="772"/>
      <point x="443" y="817"/>
      <point x="529" y="834" type="curve" smooth="yes"/>
      <point x="540" y="836"/>
      <point x="551" y="837"/>
      <point x="561" y="837" type="curve" smooth="yes"/>
      <point x="596" y="837"/>
      <point x="617" y="825"/>
      <point x="630" y="810" type="curve"/>
      <point x="647" y="826"/>
      <point x="671" y="837"/>
      <point x="707" y="837" type="curve" smooth="yes"/>
      <point x="717" y="837"/>
      <point x="727" y="836"/>
      <point x="738" y="834" type="curve" smooth="yes"/>
      <point x="815" y="819"/>
      <point x="895" y="770"/>
      <point x="950" y="716" type="curve"/>
      <point x="956" y="716"/>
      <point x="967" y="717"/>
      <point x="980" y="724" type="curve"/>
      <point x="1074" y="631"/>
      <point x="1118" y="524"/>
      <point x="1120" y="392" type="curve" smooth="yes"/>
      <point x="1120" y="331"/>
      <point x="1108" y="270"/>
      <point x="1085" y="215" type="curve" smooth="yes"/>
      <point x="1062" y="159"/>
      <point x="1027" y="108"/>
      <point x="980" y="66" type="curve"/>
      <point x="967" y="66"/>
      <point x="957" y="68"/>
      <point x="950" y="72" type="curve"/>
      <point x="922" y="40"/>
      <point x="892" y="17"/>
      <point x="858" y="-3" type="curve" smooth="yes"/>
      <point x="824" y="-22"/>
      <point x="785" y="-38"/>
      <point x="738" y="-53" type="curve" smooth="yes"/>
      <point x="730" y="-56"/>
      <point x="723" y="-57"/>
    </contour>
    <contour>
      <point x="313" y="779" type="curve" smooth="yes"/>
      <point x="299" y="779"/>
      <point x="284" y="793"/>
      <point x="284" y="809" type="curve" smooth="yes"/>
      <point x="284" y="820"/>
      <point x="289" y="831"/>
      <point x="299" y="836" type="curve"/>
      <point x="352" y="875"/>
      <point x="414" y="906"/>
      <point x="483" y="930" type="curve"/>
      <point x="500" y="930"/>
      <point x="518" y="926"/>
      <point x="522" y="907" type="curve" smooth="yes"/>
      <point x="523" y="904"/>
      <point x="523" y="902"/>
      <point x="523" y="900" type="curve" smooth="yes"/>
      <point x="523" y="886"/>
      <point x="514" y="874"/>
      <point x="500" y="868" type="curve"/>
      <point x="446" y="852"/>
      <point x="382" y="820"/>
      <point x="336" y="790" type="curve"/>
      <point x="329" y="782"/>
      <point x="321" y="779"/>
    </contour>
    <contour>
      <point x="630" y="856" type="curve" smooth="yes"/>
      <point x="599" y="856"/>
      <point x="578" y="878"/>
      <point x="578" y="911" type="curve" smooth="yes"/>
      <point x="578" y="942"/>
      <point x="599" y="963"/>
      <point x="630" y="963" type="curve" smooth="yes"/>
      <point x="663" y="963"/>
      <point x="686" y="942"/>
      <point x="686" y="911" type="curve" smooth="yes"/>
      <point x="686" y="878"/>
      <point x="663" y="856"/>
    </contour>
    <contour>
      <point x="952" y="776" type="curve" smooth="yes"/>
      <point x="944" y="776"/>
      <point x="936" y="780"/>
      <point x="929" y="787" type="curve"/>
      <point x="881" y="819"/>
      <point x="821" y="850"/>
      <point x="765" y="866" type="curve" smooth="yes"/>
      <point x="752" y="870"/>
      <point x="741" y="886"/>
      <point x="741" y="901" type="curve" smooth="yes"/>
      <point x="741" y="924"/>
      <point x="762" y="927"/>
      <point x="781" y="927" type="curve"/>
      <point x="850" y="902"/>
      <point x="911" y="872"/>
      <point x="967" y="834" type="curve"/>
      <point x="976" y="829"/>
      <point x="981" y="819"/>
      <point x="981" y="808" type="curve" smooth="yes"/>
      <point x="981" y="800"/>
      <point x="978" y="793"/>
      <point x="973" y="787" type="curve" smooth="yes"/>
      <point x="967" y="780"/>
      <point x="959" y="776"/>
    </contour>
  </outline>
</glyph>
<glyph name="uni06DE" format="2">
  <advance width="921"/>
  <unicode hex="06DE"/>
  <outline>
    <contour>
      <point x="460" y="-189" type="line"/>
      <point x="590" y="-60" type="line"/>
      <point x="773" y="-60" type="line"/>
      <point x="773" y="122" type="line"/>
      <point x="901" y="251" type="line"/>
      <point x="773" y="380" type="line"/>
      <point x="773" y="562" type="line"/>
      <point x="590" y="562" type="line"/>
      <point x="460" y="691" type="line"/>
      <point x="333" y="562" type="line"/>
      <point x="149" y="562" type="line"/>
      <point x="149" y="380" type="line"/>
      <point x="21" y="251" type="line"/>
      <point x="149" y="122" type="line"/>
      <point x="149" y="-60" type="line"/>
      <point x="333" y="-60" type="line"/>
    </contour>
    <contour>
      <point x="181" y="-28" type="line"/>
      <point x="181" y="91" type="line"/>
      <point x="301" y="-28" type="line"/>
    </contour>
    <contour>
      <point x="460" y="-145" type="line"/>
      <point x="375" y="-60" type="line"/>
      <point x="546" y="-60" type="line"/>
    </contour>
    <contour>
      <point x="149" y="166" type="line"/>
      <point x="65" y="251" type="line"/>
      <point x="149" y="336" type="line"/>
    </contour>
    <contour>
      <point x="181" y="412" type="line"/>
      <point x="181" y="531" type="line"/>
      <point x="301" y="531" type="line"/>
    </contour>
    <contour>
      <point x="621" y="-28" type="line"/>
      <point x="741" y="91" type="line"/>
      <point x="741" y="-28" type="line"/>
    </contour>
    <contour>
      <point x="345" y="-28" type="line"/>
      <point x="181" y="135" type="line"/>
      <point x="181" y="367" type="line"/>
      <point x="345" y="531" type="line"/>
      <point x="577" y="531" type="line"/>
      <point x="741" y="367" type="line"/>
      <point x="741" y="135" type="line"/>
      <point x="577" y="-28" type="line"/>
    </contour>
    <contour>
      <point x="460" y="161" type="curve" smooth="yes"/>
      <point x="511" y="161"/>
      <point x="551" y="201"/>
      <point x="551" y="251" type="curve" smooth="yes"/>
      <point x="551" y="301"/>
      <point x="511" y="341"/>
      <point x="460" y="341" type="curve" smooth="yes"/>
      <point x="412" y="341"/>
      <point x="371" y="301"/>
      <point x="371" y="251" type="curve" smooth="yes"/>
      <point x="371" y="201"/>
      <point x="412" y="161"/>
    </contour>
    <contour>
      <point x="460" y="191" type="curve" smooth="yes"/>
      <point x="428" y="191"/>
      <point x="402" y="218"/>
      <point x="402" y="251" type="curve" smooth="yes"/>
      <point x="402" y="284"/>
      <point x="428" y="311"/>
      <point x="460" y="311" type="curve" smooth="yes"/>
      <point x="494" y="311"/>
      <point x="520" y="284"/>
      <point x="520" y="251" type="curve" smooth="yes"/>
      <point x="520" y="218"/>
      <point x="494" y="191"/>
    </contour>
    <contour>
      <point x="375" y="562" type="line"/>
      <point x="460" y="648" type="line"/>
      <point x="546" y="562" type="line"/>
    </contour>
    <contour>
      <point x="773" y="166" type="line"/>
      <point x="773" y="336" type="line"/>
      <point x="856" y="251" type="line"/>
    </contour>
    <contour>
      <point x="741" y="412" type="line"/>
      <point x="621" y="531" type="line"/>
      <point x="741" y="531" type="line"/>
    </contour>
  </outline>
</glyph>
<glyph name="uni06DF" format="2">
  <unicode hex="06DF"/>
  <anchor x="0" y="442" name="_top"/>
  <anchor x="0" y="442" name="_top2"/>
  <anchor x="0" y="442" name="_top3"/>
  <anchor x="0" y="582" name="top3"/>
  <outline>
    <contour>
      <point x="0" y="452" type="curve" smooth="yes"/>
      <point x="32" y="452"/>
      <point x="54" y="473"/>
      <point x="54" y="510" type="curve" smooth="yes"/>
      <point x="54" y="547"/>
      <point x="32" y="567"/>
      <point x="0" y="567" type="curve" smooth="yes"/>
      <point x="-30" y="567"/>
      <point x="-54" y="550"/>
      <point x="-54" y="510" type="curve" smooth="yes"/>
      <point x="-54" y="469"/>
      <point x="-30" y="452"/>
    </contour>
    <contour>
      <point x="0" y="478" type="curve" smooth="yes"/>
      <point x="-20" y="478"/>
      <point x="-30" y="489"/>
      <point x="-30" y="510" type="curve" smooth="yes"/>
      <point x="-30" y="531"/>
      <point x="-20" y="542"/>
      <point x="0" y="542" type="curve" smooth="yes"/>
      <point x="16" y="542"/>
      <point x="30" y="533"/>
      <point x="30" y="510" type="curve" smooth="yes"/>
      <point x="30" y="487"/>
      <point x="16" y="478"/>
    </contour>
  </outline>
</glyph>
<glyph name="uni06E0" format="2">
  <unicode hex="06E0"/>
  <anchor x="0" y="403" name="_top"/>
  <anchor x="0" y="403" name="_top2"/>
  <anchor x="0" y="403" name="_top3"/>
  <anchor x="0" y="582" name="top3"/>
  <outline>
    <contour>
      <point x="0" y="413" type="curve" smooth="yes"/>
      <point x="36" y="413"/>
      <point x="54" y="439"/>
      <point x="54" y="490" type="curve" smooth="yes"/>
      <point x="54" y="542"/>
      <point x="36" y="567"/>
      <point x="0" y="567" type="curve" smooth="yes"/>
      <point x="-36" y="567"/>
      <point x="-54" y="542"/>
      <point x="-54" y="490" type="curve" smooth="yes"/>
      <point x="-54" y="439"/>
      <point x="-36" y="413"/>
    </contour>
    <contour>
      <point x="0" y="439" type="curve" smooth="yes"/>
      <point x="-21" y="439"/>
      <point x="-30" y="454"/>
      <point x="-30" y="490" type="curve" smooth="yes"/>
      <point x="-30" y="527"/>
      <point x="-21" y="542"/>
      <point x="0" y="542" type="curve" smooth="yes"/>
      <point x="21" y="542"/>
      <point x="30" y="527"/>
      <point x="30" y="490" type="curve" smooth="yes"/>
      <point x="30" y="454"/>
      <point x="21" y="439"/>
    </contour>
  </outline>
</glyph>
<glyph name="uni06E1" format="2">
  <unicode hex="06E1"/>
  <anchor x="0" y="442" name="_top"/>
  <anchor x="0" y="442" name="_top2"/>
  <anchor x="0" y="442" name="_top3"/>
  <anchor x="0" y="604" name="top3"/>
  <outline>
    <contour>
      <point x="-53" y="452" type="line"/>
      <point x="-49" y="452" type="line" smooth="yes"/>
      <point x="25" y="452"/>
      <point x="64" y="499"/>
      <point x="84" y="564" type="curve"/>
      <point x="53" y="574"/>
      <point x="28" y="580"/>
      <point x="-6" y="580" type="curve" smooth="yes"/>
      <point x="-47" y="580"/>
      <point x="-64" y="562"/>
      <point x="-64" y="545" type="curve" smooth="yes"/>
      <point x="-64" y="537"/>
      <point x="-61" y="533"/>
      <point x="-59" y="529" type="curve"/>
      <point x="-49" y="540"/>
      <point x="-34" y="546"/>
      <point x="-11" y="546" type="curve" smooth="yes"/>
      <point x="9" y="546"/>
      <point x="29" y="545"/>
      <point x="47" y="541" type="curve"/>
      <point x="20" y="490"/>
      <point x="-15" y="475"/>
      <point x="-81" y="470" type="curve"/>
    </contour>
  </outline>
</glyph>
<glyph name="uni06E2" format="2">
  <unicode hex="06E2"/>
  <anchor x="15" y="403" name="_top"/>
  <anchor x="15" y="403" name="_top2"/>
  <anchor x="15" y="403" name="_top3"/>
  <anchor x="-7" y="640" name="top3"/>
  <outline>
    <contour>
      <point x="-58" y="382" type="curve"/>
      <point x="-47" y="390"/>
      <point x="-38" y="397"/>
      <point x="-33" y="403" type="curve"/>
      <point x="-35" y="420"/>
      <point x="-37" y="438"/>
      <point x="-41" y="459" type="curve" smooth="yes"/>
      <point x="-47" y="495" type="line"/>
      <point x="-12" y="507"/>
      <point x="13" y="509"/>
      <point x="53" y="509" type="curve"/>
      <point x="67" y="548" type="line"/>
      <point x="39" y="571"/>
      <point x="23" y="616"/>
      <point x="0" y="616" type="curve" smooth="yes"/>
      <point x="-21" y="616"/>
      <point x="-38" y="599"/>
      <point x="-52" y="564" type="curve"/>
      <point x="-40" y="559" type="line"/>
      <point x="-28" y="574"/>
      <point x="-18" y="582"/>
      <point x="-9" y="582" type="curve" smooth="yes"/>
      <point x="-5" y="582"/>
      <point x="-1" y="580"/>
      <point x="4" y="576" type="curve" smooth="yes"/>
      <point x="8" y="571"/>
      <point x="15" y="563"/>
      <point x="24" y="549" type="curve"/>
      <point x="32" y="541" type="line"/>
      <point x="-8" y="539"/>
      <point x="-9" y="538"/>
      <point x="-51" y="527" type="curve"/>
      <point x="-59" y="507"/>
      <point x="-63" y="494"/>
      <point x="-63" y="489" type="curve" smooth="yes"/>
      <point x="-63" y="479"/>
      <point x="-63" y="465"/>
      <point x="-61" y="448" type="curve" smooth="yes"/>
      <point x="-59" y="430"/>
      <point x="-58" y="409"/>
    </contour>
  </outline>
</glyph>
<glyph name="uni06E3" format="2">
  <unicode hex="06E3"/>
  <anchor x="0" y="-43" name="_bottom"/>
  <anchor x="0" y="-43" name="_bottom2"/>
  <anchor x="0" y="-43" name="_bottom3"/>
  <anchor x="75" y="-258" name="bottom3"/>
  <outline>
    <contour>
      <point x="-92" y="-258" type="curve" smooth="yes"/>
      <point x="-38" y="-258"/>
      <point x="16" y="-214"/>
      <point x="16" y="-166" type="curve" smooth="yes"/>
      <point x="16" y="-151" type="line"/>
      <point x="29" y="-152" type="line" smooth="yes"/>
      <point x="42" y="-152"/>
      <point x="53" y="-151"/>
      <point x="62" y="-149" type="curve" smooth="yes"/>
      <point x="71" y="-147"/>
      <point x="77" y="-145"/>
      <point x="79" y="-142" type="curve" smooth="yes"/>
      <point x="82" y="-136" type="line"/>
      <point x="114" y="-150"/>
      <point x="133" y="-152"/>
      <point x="162" y="-152" type="curve"/>
      <point x="166" y="-143"/>
      <point x="176" y="-116"/>
      <point x="176" y="-106" type="curve" smooth="yes"/>
      <point x="176" y="-94"/>
      <point x="174" y="-81"/>
      <point x="171" y="-67" type="curve" smooth="yes"/>
      <point x="167" y="-53"/>
      <point x="164" y="-39"/>
      <point x="162" y="-24" type="curve"/>
      <point x="145" y="-34"/>
      <point x="137" y="-45"/>
      <point x="137" y="-56" type="curve" smooth="yes"/>
      <point x="137" y="-62"/>
      <point x="139" y="-70"/>
      <point x="144" y="-81" type="curve" smooth="yes"/>
      <point x="149" y="-92"/>
      <point x="154" y="-106"/>
      <point x="158" y="-123" type="curve"/>
      <point x="135" y="-123"/>
      <point x="113" y="-118"/>
      <point x="92" y="-108" type="curve"/>
      <point x="97" y="-90"/>
      <point x="102" y="-74"/>
      <point x="108" y="-60" type="curve"/>
      <point x="106" y="-58"/>
      <point x="103" y="-58"/>
      <point x="100" y="-58" type="curve" smooth="yes"/>
      <point x="94" y="-58"/>
      <point x="89" y="-61"/>
      <point x="85" y="-67" type="curve" smooth="yes"/>
      <point x="82" y="-73"/>
      <point x="77" y="-87"/>
      <point x="71" y="-109" type="curve"/>
      <point x="66" y="-120" type="line"/>
      <point x="59" y="-122"/>
      <point x="48" y="-124"/>
      <point x="34" y="-124" type="curve" smooth="yes"/>
      <point x="27" y="-124"/>
      <point x="19" y="-122"/>
      <point x="10" y="-120" type="curve"/>
      <point x="7" y="-106"/>
      <point x="4" y="-91"/>
      <point x="1" y="-74" type="curve"/>
      <point x="-15" y="-83"/>
      <point x="-23" y="-95"/>
      <point x="-23" y="-107" type="curve" smooth="yes"/>
      <point x="-23" y="-121"/>
      <point x="-15" y="-145"/>
      <point x="1" y="-179" type="curve"/>
      <point x="-11" y="-205"/>
      <point x="-52" y="-227"/>
      <point x="-91" y="-227" type="curve" smooth="yes"/>
      <point x="-122" y="-227"/>
      <point x="-144" y="-208"/>
      <point x="-144" y="-168" type="curve" smooth="yes"/>
      <point x="-144" y="-162"/>
      <point x="-142" y="-153"/>
      <point x="-139" y="-142" type="curve"/>
      <point x="-153" y="-139" type="line"/>
      <point x="-158" y="-158"/>
      <point x="-160" y="-174"/>
      <point x="-160" y="-187" type="curve" smooth="yes"/>
      <point x="-160" y="-233"/>
      <point x="-134" y="-258"/>
    </contour>
  </outline>
</glyph>
<glyph name="uni06E4" format="2">
  <unicode hex="06E4"/>
  <anchor x="0" y="465" name="_top"/>
  <anchor x="0" y="465" name="_top2"/>
  <anchor x="0" y="465" name="_top3"/>
  <anchor x="1" y="543" name="top3"/>
  <outline>
    <contour>
      <point x="-120" y="471" type="line"/>
      <point x="-61" y="503" type="line"/>
      <point x="-20" y="486"/>
      <point x="9" y="475"/>
      <point x="34" y="475" type="curve" smooth="yes"/>
      <point x="55" y="475"/>
      <point x="90" y="493"/>
      <point x="118" y="520" type="curve"/>
      <point x="111" y="531" type="line"/>
      <point x="89" y="516"/>
      <point x="69" y="503"/>
      <point x="35" y="503" type="curve" smooth="yes"/>
      <point x="22" y="503"/>
      <point x="4" y="508"/>
      <point x="-17" y="516" type="curve" smooth="yes"/>
      <point x="-39" y="525"/>
      <point x="-53" y="529"/>
      <point x="-58" y="529" type="curve" smooth="yes"/>
      <point x="-65" y="529"/>
      <point x="-110" y="498"/>
      <point x="-127" y="481" type="curve"/>
    </contour>
  </outline>
</glyph>
